{"glyphs":{"0":{"ha":803,"x_min":0,"x_max":0,"o":"m 401 32 b 121 469 215 32 121 213 b 401 904 121 726 215 904 b 682 467 588 904 682 724 b 401 32 682 210 588 32 z m 401 113 b 211 467 264 113 211 258 b 401 824 211 675 265 824 b 592 469 539 824 592 678 b 401 113 592 261 538 113 z m 401 63 b 643 469 574 63 643 231 b 401 874 643 707 574 874 b 160 467 229 874 160 706 b 401 63 160 229 229 63 z m 401 -18 b 733 467 621 -18 733 178 b 401 954 733 756 621 954 b 69 469 182 954 69 758 b 401 -18 69 181 182 -18 z "},"1":{"ha":490,"x_min":0,"x_max":0,"o":"m 344 0 l 344 963 l 43 842 l 58 790 l 299 888 l 299 0 z m 267 0 l 267 842 l 67 763 l 82 713 l 219 767 l 219 0 z "},"2":{"ha":771,"x_min":0,"x_max":0,"o":"m 706 0 l 706 50 l 138 50 l 138 85 b 560 667 472 406 560 497 b 358 874 560 807 465 874 b 149 738 253 874 193 817 l 189 710 b 358 824 235 793 289 824 b 508 667 436 824 508 774 b 88 107 508 517 424 428 l 88 0 z m 706 83 l 706 133 l 304 133 b 649 669 465 294 649 447 b 364 954 649 860 514 954 b 83 783 236 954 157 906 l 122 756 b 364 904 182 851 243 904 b 597 669 486 904 597 826 b 183 83 597 472 451 343 z "},"3":{"ha":769,"x_min":0,"x_max":0,"o":"m 314 510 b 554 701 467 510 554 585 b 356 874 554 806 474 874 b 136 772 256 874 190 836 l 171 736 b 356 824 224 797 276 824 b 504 701 443 824 504 778 b 314 560 504 610 428 560 l 211 560 l 211 510 z m 69 111 b 360 -18 158 24 240 -18 b 683 264 536 -18 683 72 b 531 503 683 386 622 463 b 643 703 599 546 643 615 b 356 954 643 865 519 954 b 79 829 236 954 157 911 l 114 794 b 356 904 179 867 251 904 b 593 703 476 904 593 843 b 429 496 593 606 529 521 b 632 264 544 471 632 394 b 360 32 632 108 507 32 b 107 147 254 32 169 78 z m 129 169 b 360 63 192 94 267 63 b 594 264 485 63 594 124 b 311 476 594 400 494 476 l 211 476 l 211 426 l 311 426 b 543 264 461 426 543 372 b 360 113 543 163 476 113 b 167 206 286 113 219 139 z "},"4":{"ha":804,"x_min":0,"x_max":0,"o":"m 542 319 l 542 874 l 138 319 z m 542 0 l 542 289 l 106 289 l 106 331 l 521 901 l 574 901 l 574 319 l 763 319 l 763 369 l 619 369 l 619 954 l 499 954 l 56 347 l 56 239 l 494 239 l 494 0 z m 619 0 l 619 239 l 763 239 l 763 289 l 574 289 l 574 0 z m 494 369 l 236 369 l 494 731 z "},"5":{"ha":731,"x_min":0,"x_max":0,"o":"m 51 111 b 342 -18 140 24 222 -18 b 665 279 531 -18 665 110 b 325 593 665 501 510 593 b 261 590 307 593 279 592 l 261 803 l 622 803 l 622 853 l 215 853 l 215 540 b 319 547 250 544 286 547 b 615 279 476 547 615 469 b 342 32 615 136 514 32 b 89 147 236 32 151 78 z m 111 169 b 342 63 174 94 249 63 b 576 278 461 63 576 126 b 304 514 576 435 476 514 b 183 501 267 514 217 508 l 183 886 l 622 886 l 622 936 l 136 936 l 136 443 b 304 467 194 457 254 467 b 526 278 443 467 526 403 b 342 113 526 174 457 113 b 149 206 268 113 201 139 z "},"6":{"ha":835,"x_min":0,"x_max":0,"o":"m 204 374 b 436 63 204 210 274 63 b 653 297 563 63 653 156 b 435 526 653 431 585 526 b 204 397 340 526 264 472 z m 744 824 b 476 954 664 913 576 954 b 115 422 171 954 115 664 b 433 -18 115 189 194 -18 b 742 308 619 -18 742 113 b 453 606 742 486 626 606 b 258 544 375 606 311 581 b 468 824 272 699 329 824 b 647 731 539 824 592 796 l 685 767 b 468 874 626 833 561 874 b 204 443 286 874 204 694 b 451 560 267 513 339 560 b 692 308 597 560 692 454 b 433 32 692 140 589 32 b 167 422 232 32 167 213 b 476 904 167 592 194 904 b 708 789 557 904 636 872 z m 256 385 b 433 479 296 440 351 479 b 601 297 550 479 601 403 b 436 113 601 179 542 113 b 256 368 310 113 256 229 z "},"7":{"ha":699,"x_min":0,"x_max":0,"o":"m 299 0 l 299 119 b 431 599 299 317 328 403 l 563 850 l 65 850 l 65 800 l 482 800 l 390 625 b 251 119 285 424 251 322 l 251 0 z m 376 0 l 376 121 b 500 553 376 274 394 356 l 646 824 l 646 936 l 65 936 l 65 886 l 596 886 l 596 838 l 460 579 b 331 121 365 400 331 311 l 331 0 z "},"8":{"ha":831,"x_min":0,"x_max":0,"o":"m 617 696 b 415 874 617 804 542 874 b 214 696 289 874 214 804 b 415 507 214 576 304 507 b 617 696 526 507 617 576 z m 490 494 b 683 264 639 471 683 364 b 414 32 683 118 569 32 b 147 264 261 32 147 118 b 340 494 147 364 192 471 b 178 696 231 524 178 597 b 414 904 178 825 279 904 b 653 696 551 904 653 825 b 490 494 653 597 600 524 z m 592 499 b 704 696 667 544 704 610 b 414 954 704 860 575 954 b 126 696 256 954 126 860 b 239 499 126 610 165 540 b 96 264 139 457 96 361 b 414 -18 96 89 236 -18 b 735 264 594 -18 735 89 b 592 499 735 360 694 453 z m 597 265 b 415 113 597 163 518 113 b 233 265 313 113 233 163 b 414 429 233 371 297 429 b 597 265 533 429 597 371 z m 649 265 b 417 476 649 404 560 476 b 182 265 271 476 182 404 b 415 63 182 132 290 63 b 649 265 540 63 649 132 z m 565 694 b 415 554 565 603 500 554 b 265 694 332 554 265 606 b 415 824 265 778 319 824 b 565 694 511 824 565 778 z "},"9":{"ha":835,"x_min":0,"x_max":0,"o":"m 631 563 b 399 874 631 726 561 874 b 182 639 272 874 182 781 b 400 410 182 506 250 410 b 631 539 494 410 571 464 z m 150 169 b 367 63 208 103 274 63 b 631 493 549 63 631 242 b 383 376 568 424 496 376 b 143 628 238 376 143 482 b 401 904 143 796 246 904 b 668 514 603 904 668 724 b 358 32 668 344 640 32 b 126 147 278 32 199 64 l 90 113 b 358 -18 171 24 258 -18 b 719 514 664 -18 719 272 b 401 954 719 747 640 954 b 93 628 215 954 93 824 b 382 331 93 450 208 331 b 576 392 460 331 524 356 b 367 113 563 238 506 113 b 188 206 296 113 243 140 z m 579 551 b 401 457 539 496 483 457 b 233 639 285 457 233 533 b 399 824 233 757 293 824 b 579 568 525 824 579 707 z "},"\u0000":{"ha":0,"x_min":0,"x_max":0,"o":""},"\r":{"ha":347,"x_min":0,"x_max":0,"o":""}," ":{"ha":347,"x_min":0,"x_max":0,"o":""},"":{"ha":694,"x_min":0,"x_max":0,"o":""},"A":{"ha":938,"x_min":0,"x_max":0,"o":"m 910 0 l 533 943 l 406 943 l 28 0 l 86 0 l 443 893 l 497 893 l 851 0 z m 806 0 l 685 310 l 251 310 l 128 0 l 185 0 l 285 260 l 649 260 l 749 0 z m 672 340 l 469 856 l 264 340 z m 600 389 l 336 389 l 468 732 z "},"B":{"ha":947,"x_min":0,"x_max":0,"o":"m 517 500 b 710 675 632 500 710 560 b 518 851 710 786 636 851 l 236 851 l 236 500 z m 514 85 b 757 278 676 85 757 142 b 507 468 757 408 657 468 l 236 468 l 236 85 z m 197 50 l 197 886 l 531 886 b 750 681 636 886 750 822 b 599 486 750 579 692 503 b 797 274 708 481 797 399 b 524 50 797 118 669 50 z m 524 0 b 849 274 699 0 849 82 b 706 496 849 393 788 463 b 801 681 764 535 801 597 b 531 936 801 858 663 936 l 146 936 l 146 0 z m 288 132 l 288 421 l 507 421 b 706 278 632 421 706 374 b 514 132 706 178 643 132 z m 288 550 l 288 804 l 518 804 b 658 675 604 804 658 756 b 517 550 658 592 601 550 z "},"C":{"ha":947,"x_min":0,"x_max":0,"o":"m 808 176 b 499 32 717 71 622 32 b 115 467 239 32 115 246 b 496 904 115 690 236 904 b 808 758 640 904 717 864 l 846 792 b 496 954 769 892 658 954 b 63 467 200 954 63 715 b 496 -18 63 221 200 -18 b 846 143 650 -18 760 39 z m 739 239 b 499 117 668 147 597 117 b 211 468 300 117 211 293 b 499 819 211 643 300 819 b 739 697 603 819 682 776 l 779 733 b 499 869 700 835 614 869 b 158 468 264 869 158 668 b 501 67 158 267 269 67 b 779 201 611 67 693 97 z "},"D":{"ha":1031,"x_min":0,"x_max":0,"o":"m 517 86 b 874 468 753 86 874 243 b 517 850 874 703 735 850 l 236 850 l 236 86 z m 197 50 l 197 886 l 524 886 b 917 469 792 886 917 696 b 524 50 917 242 783 50 z m 524 0 b 968 469 818 0 968 213 b 524 936 968 725 828 936 l 146 936 l 146 0 z m 288 136 l 288 800 l 517 800 b 822 468 704 800 822 671 b 517 136 822 274 719 136 z "},"E":{"ha":869,"x_min":0,"x_max":0,"o":"m 753 0 l 753 50 l 196 50 l 196 886 l 725 886 l 725 936 l 144 936 l 144 0 z m 753 86 l 753 136 l 286 136 l 286 418 l 683 418 l 683 467 l 235 467 l 235 86 z m 683 501 l 683 550 l 286 550 l 286 800 l 725 800 l 725 850 l 235 850 l 235 501 z "},"F":{"ha":849,"x_min":0,"x_max":0,"o":"m 714 464 l 714 513 l 288 513 l 288 800 l 756 800 l 756 850 l 236 850 l 236 464 z m 714 381 l 714 429 l 236 429 l 236 0 l 288 0 l 288 381 z m 197 0 l 197 886 l 756 886 l 756 936 l 146 936 l 146 0 z "},"G":{"ha":964,"x_min":0,"x_max":0,"o":"m 717 138 b 543 115 668 122 601 115 b 211 468 318 115 211 256 b 499 819 211 643 300 819 b 739 697 603 819 682 776 l 779 733 b 499 869 700 835 614 869 b 158 468 264 869 158 668 b 543 65 158 225 282 65 b 768 100 615 65 697 75 l 768 388 l 457 388 l 457 339 l 717 339 z m 804 76 b 535 32 724 47 629 32 b 115 467 269 32 115 197 b 496 904 115 690 236 904 b 808 758 640 904 717 864 l 846 792 b 496 954 769 892 658 954 b 63 467 200 954 63 715 b 535 -18 63 165 236 -18 b 856 39 643 -18 754 -1 l 856 471 l 457 471 l 457 422 l 804 422 z "},"H":{"ha":1082,"x_min":0,"x_max":0,"o":"m 846 503 l 846 936 l 794 936 l 794 551 l 288 551 l 288 936 l 236 936 l 236 503 z m 936 0 l 936 936 l 885 936 l 885 0 z m 846 0 l 846 465 l 236 465 l 236 0 l 288 0 l 288 415 l 794 415 l 794 0 z m 197 0 l 197 936 l 146 936 l 146 0 z "},"I":{"ha":432,"x_min":0,"x_max":0,"o":"m 286 0 l 286 936 l 235 936 l 235 0 z m 197 0 l 197 936 l 146 936 l 146 0 z "},"J":{"ha":711,"x_min":0,"x_max":0,"o":"m 514 283 b 304 32 514 125 446 32 b 61 174 192 32 118 76 l 22 142 b 299 -18 94 19 192 -18 b 565 283 472 -18 565 85 l 565 936 l 514 936 z m 424 285 b 297 117 424 174 383 117 b 133 231 224 117 171 157 l 93 199 b 306 67 139 113 204 67 b 475 285 426 67 475 163 l 475 936 l 424 936 z "},"K":{"ha":950,"x_min":0,"x_max":0,"o":"m 197 0 l 197 936 l 146 936 l 146 0 z m 771 0 l 331 479 l 778 936 l 707 936 l 288 504 l 288 936 l 236 936 l 236 0 l 288 0 l 288 450 l 700 0 z m 896 0 l 447 479 l 896 936 l 826 936 l 376 479 l 825 0 z "},"L":{"ha":842,"x_min":0,"x_max":0,"o":"m 765 86 l 765 136 l 288 136 l 288 936 l 236 936 l 236 86 z m 765 0 l 765 50 l 197 50 l 197 936 l 146 936 l 146 0 z "},"M":{"ha":1176,"x_min":0,"x_max":0,"o":"m 940 0 l 940 832 l 613 321 l 565 321 l 232 835 l 232 0 l 282 0 l 282 660 l 536 268 l 636 268 l 889 660 l 889 0 z m 1031 0 l 1031 936 l 904 936 l 589 440 l 271 936 l 146 936 l 146 0 l 196 0 l 196 886 l 243 886 l 589 353 l 929 886 l 979 886 l 979 0 z "},"N":{"ha":1083,"x_min":0,"x_max":0,"o":"m 851 107 l 851 936 l 801 936 l 801 253 l 268 936 l 146 936 l 146 0 l 196 0 l 196 886 l 242 886 z m 938 0 l 938 936 l 888 936 l 888 50 l 846 50 l 232 838 l 232 0 l 282 0 l 282 682 l 818 0 z "},"O":{"ha":1042,"x_min":0,"x_max":0,"o":"m 522 67 b 883 468 778 67 883 269 b 519 869 883 665 775 869 b 158 468 264 869 158 667 b 522 67 158 271 267 67 z m 522 32 b 115 469 249 32 115 240 b 519 904 115 696 247 904 b 926 467 793 904 926 696 b 522 32 926 240 794 32 z m 522 -18 b 979 467 831 -18 979 214 b 519 954 979 722 826 954 b 63 469 211 954 63 722 b 522 -18 63 214 214 -18 z m 522 117 b 211 468 306 117 211 297 b 519 819 211 642 304 819 b 831 468 736 819 831 639 b 522 117 831 294 738 117 z "},"P":{"ha":890,"x_min":0,"x_max":0,"o":"m 499 415 b 724 635 647 415 724 492 b 500 851 724 767 636 851 l 236 851 l 236 415 z m 288 0 l 288 331 l 503 331 b 814 638 700 331 814 447 b 504 936 814 821 689 936 l 146 936 l 146 0 l 197 0 l 197 886 l 504 886 b 764 638 658 886 764 789 b 503 381 764 479 667 381 l 236 381 l 236 0 z m 288 464 l 288 804 l 500 804 b 672 635 606 804 672 736 b 499 464 672 526 614 464 z "},"Q":{"ha":1042,"x_min":0,"x_max":0,"o":"m 522 67 b 883 468 778 67 883 269 b 519 869 883 665 775 869 b 158 468 264 869 158 667 b 522 67 158 271 267 67 z m 522 117 b 211 468 306 117 211 297 b 519 819 211 642 304 819 b 831 468 736 819 831 639 b 522 117 831 294 738 117 z m 879 -289 l 651 -1 b 979 467 872 51 979 253 b 519 954 979 722 826 954 b 63 469 211 954 63 722 b 506 -18 63 218 210 -11 l 714 -289 l 775 -289 l 528 32 b 115 469 246 32 115 240 b 519 904 115 696 247 904 b 926 467 793 904 926 696 b 564 33 926 256 813 56 l 819 -289 z "},"R":{"ha":956,"x_min":0,"x_max":0,"o":"m 764 0 l 482 422 l 236 422 l 236 0 l 288 0 l 288 374 l 454 374 l 701 0 z m 490 454 b 707 657 614 454 707 515 b 499 853 707 781 615 853 l 236 853 l 236 454 z m 879 0 l 611 393 b 799 658 718 428 799 513 b 503 936 799 836 665 936 l 146 936 l 146 0 l 197 0 l 197 888 l 503 888 b 747 658 638 888 747 801 b 526 424 747 500 632 435 l 815 0 z m 288 503 l 288 803 l 499 803 b 656 657 588 803 656 749 b 490 503 656 553 586 503 z "},"S":{"ha":913,"x_min":0,"x_max":0,"o":"m 789 789 b 468 954 696 910 596 954 b 160 690 285 954 160 858 b 433 415 160 514 301 461 b 639 240 561 371 639 339 b 461 118 639 169 581 118 b 217 253 357 118 282 167 l 176 215 b 461 68 257 107 356 68 b 690 240 601 68 690 147 b 449 465 690 367 611 411 b 210 690 332 506 210 558 b 468 904 210 815 292 904 b 753 756 567 904 656 879 z m 724 728 b 461 868 644 835 561 868 b 257 704 321 868 257 796 b 486 496 257 585 339 549 b 736 257 619 449 736 399 b 454 32 736 101 597 32 b 144 186 347 32 242 63 l 108 153 b 454 -18 210 29 317 -18 b 788 257 642 -18 788 82 b 504 544 788 446 640 496 b 308 704 390 585 308 613 b 461 818 308 769 350 818 b 688 694 556 818 622 778 z "},"T":{"ha":875,"x_min":0,"x_max":0,"o":"m 418 0 l 418 850 l 42 850 l 42 800 l 367 800 l 367 0 z m 508 0 l 508 800 l 833 800 l 833 850 l 457 850 l 457 0 z m 833 886 l 833 936 l 42 936 l 42 886 z "},"U":{"ha":1082,"x_min":0,"x_max":0,"o":"m 885 319 b 540 32 885 142 744 32 b 197 319 343 32 197 143 l 197 936 l 146 936 l 146 319 b 540 -18 146 108 313 -18 b 936 319 775 -18 936 107 l 936 936 l 885 936 z m 794 326 b 539 117 794 200 689 117 b 288 328 393 117 288 204 l 288 936 l 236 936 l 236 328 b 540 67 236 174 361 67 b 846 326 725 67 846 168 l 846 936 l 794 936 z "},"V":{"ha":938,"x_min":0,"x_max":0,"o":"m 532 -7 l 910 936 l 851 936 l 494 43 l 440 43 l 86 936 l 28 936 l 404 -7 z m 468 81 l 810 936 l 753 936 l 469 204 l 189 936 l 132 936 z "},"W":{"ha":1306,"x_min":0,"x_max":0,"o":"m 976 -7 l 1231 936 l 1174 936 l 935 43 l 875 43 l 653 847 l 425 43 l 368 43 l 129 936 l 75 936 l 328 -7 l 468 -7 l 651 682 l 833 -7 z m 904 85 l 1131 936 l 1076 936 l 901 238 l 725 936 l 586 936 l 400 236 l 233 936 l 179 936 l 396 85 l 625 886 l 683 886 z "},"X":{"ha":947,"x_min":0,"x_max":0,"o":"m 122 0 l 444 472 l 126 936 l 63 936 l 381 472 l 60 0 z m 776 0 l 472 447 l 168 0 l 232 0 l 472 363 l 711 0 z m 889 0 l 567 471 l 886 936 l 822 936 l 503 471 l 826 0 z m 476 496 l 778 936 l 713 936 l 476 579 l 240 936 l 176 936 z "},"Y":{"ha":892,"x_min":0,"x_max":0,"o":"m 425 0 l 425 447 l 100 936 l 36 936 l 374 429 l 374 0 z m 515 0 l 515 429 l 856 936 l 792 936 l 464 447 l 464 0 z m 446 482 l 744 936 l 682 936 l 447 567 l 213 936 l 150 936 z "},"Z":{"ha":861,"x_min":0,"x_max":0,"o":"m 785 0 l 785 50 l 156 50 l 156 89 l 665 850 l 129 850 l 129 800 l 568 800 l 104 106 l 104 0 z m 785 86 l 785 136 l 293 136 l 758 831 l 758 936 l 129 936 l 129 885 l 707 885 l 707 844 l 197 86 z "},"À":{"ha":938,"x_min":0,"x_max":0,"o":"m 910 0 l 533 943 l 519 943 l 433 1057 l 331 1057 l 419 943 l 406 943 l 28 0 l 86 0 l 443 893 l 497 893 l 851 0 z m 672 340 l 469 856 l 264 340 z m 806 0 l 685 310 l 251 310 l 128 0 l 185 0 l 285 260 l 649 260 l 749 0 z m 600 389 l 336 389 l 468 732 z "},"Á":{"ha":938,"x_min":0,"x_max":0,"o":"m 910 0 l 533 943 l 519 943 l 608 1057 l 506 1057 l 419 943 l 406 943 l 28 0 l 86 0 l 443 893 l 497 893 l 851 0 z m 672 340 l 469 856 l 264 340 z m 806 0 l 685 310 l 251 310 l 128 0 l 185 0 l 285 260 l 649 260 l 749 0 z m 600 389 l 336 389 l 468 732 z "},"Â":{"ha":938,"x_min":0,"x_max":0,"o":"m 619 936 l 514 1057 l 425 1057 l 319 936 l 403 936 l 28 0 l 86 0 l 443 893 l 497 893 l 851 0 l 910 0 l 536 936 z m 672 340 l 469 856 l 264 340 z m 806 0 l 685 310 l 251 310 l 128 0 l 185 0 l 285 260 l 649 260 l 749 0 z m 600 389 l 336 389 l 468 732 z m 469 1000 l 514 943 l 425 943 z "},"Ã":{"ha":938,"x_min":0,"x_max":0,"o":"m 564 996 l 471 1040 b 390 1063 442 1054 418 1063 b 293 936 318 1063 299 997 l 368 936 l 376 997 l 469 953 b 490 943 476 949 483 946 l 406 943 l 28 0 l 86 0 l 443 893 l 497 893 l 851 0 l 910 0 l 538 931 l 550 931 b 647 1057 622 931 642 996 l 572 1057 z m 672 340 l 469 856 l 264 340 z m 806 0 l 685 310 l 251 310 l 128 0 l 185 0 l 285 260 l 649 260 l 749 0 z m 600 389 l 336 389 l 468 732 z "},"Ä":{"ha":938,"x_min":0,"x_max":0,"o":"m 608 936 l 608 1043 l 508 1043 l 508 943 l 428 943 l 428 1043 l 328 1043 l 328 936 l 403 936 l 28 0 l 86 0 l 443 893 l 497 893 l 851 0 l 910 0 l 536 936 z m 672 340 l 469 856 l 264 340 z m 806 0 l 685 310 l 251 310 l 128 0 l 185 0 l 285 260 l 649 260 l 749 0 z m 600 389 l 336 389 l 468 732 z "},"Ā":{"ha":938,"x_min":0,"x_max":0,"o":"m 638 936 l 638 1013 l 301 1013 l 301 936 l 403 936 l 28 0 l 86 0 l 443 893 l 497 893 l 851 0 l 910 0 l 536 936 z m 672 340 l 469 856 l 264 340 z m 806 0 l 685 310 l 251 310 l 128 0 l 185 0 l 285 260 l 649 260 l 749 0 z m 600 389 l 336 389 l 468 732 z "},"Ă":{"ha":938,"x_min":0,"x_max":0,"o":"m 574 1057 b 469 996 569 1014 532 996 b 365 1057 406 996 369 1014 l 296 1057 b 403 938 299 989 339 951 l 28 0 l 86 0 l 443 893 l 497 893 l 851 0 l 910 0 l 535 938 b 643 1057 600 951 639 989 z m 672 340 l 469 856 l 264 340 z m 806 0 l 685 310 l 251 310 l 128 0 l 185 0 l 285 260 l 649 260 l 749 0 z m 600 389 l 336 389 l 468 732 z "},"Å":{"ha":938,"x_min":0,"x_max":0,"o":"m 581 1025 b 467 1118 581 1085 538 1118 b 353 1025 396 1118 353 1086 b 406 943 353 985 372 957 l 28 0 l 86 0 l 443 893 l 497 893 l 851 0 l 910 0 l 533 943 l 529 943 b 581 1025 561 957 581 985 z m 672 340 l 469 856 l 264 340 z m 806 0 l 685 310 l 251 310 l 128 0 l 185 0 l 285 260 l 649 260 l 749 0 z m 600 389 l 336 389 l 468 732 z m 517 1025 b 467 985 517 1000 501 985 b 418 1025 433 985 418 1003 b 467 1067 418 1049 433 1067 b 517 1025 501 1067 517 1049 z "},"Ǻ":{"ha":938,"x_min":0,"x_max":0,"o":"m 583 1025 b 522 1110 583 1068 561 1097 l 611 1224 l 508 1224 l 424 1113 b 356 1025 381 1101 356 1071 b 407 943 356 985 374 957 l 406 943 l 28 0 l 86 0 l 443 893 l 497 893 l 851 0 l 910 0 l 533 943 l 532 943 b 583 1025 564 957 583 985 z m 672 340 l 469 856 l 264 340 z m 806 0 l 685 310 l 251 310 l 128 0 l 185 0 l 285 260 l 649 260 l 749 0 z m 600 389 l 336 389 l 468 732 z m 519 1025 b 469 985 519 1000 504 985 b 421 1025 436 985 421 1003 b 469 1067 421 1049 436 1067 b 519 1025 504 1067 519 1049 z "},"Ą":{"ha":938,"x_min":0,"x_max":0,"o":"m 806 0 l 685 310 l 251 310 l 128 0 l 185 0 l 285 260 l 649 260 l 749 0 l 776 0 b 756 -54 764 -15 756 -35 b 849 -131 756 -100 786 -131 b 901 -125 869 -131 883 -129 l 894 -67 l 826 -61 l 857 0 l 910 0 l 533 943 l 406 943 l 28 0 l 86 0 l 443 893 l 497 893 l 851 0 z m 672 340 l 469 856 l 264 340 z m 600 389 l 336 389 l 468 732 z "},"Æ":{"ha":1350,"x_min":0,"x_max":0,"o":"m 1206 886 l 1206 936 l 586 936 l 14 0 l 76 0 l 613 886 z m 1233 86 l 1233 136 l 808 136 l 808 357 l 1164 357 l 1164 406 l 757 406 l 757 86 z m 1164 440 l 1164 489 l 808 489 l 808 800 l 1206 800 l 1206 850 l 757 850 l 757 440 z m 667 486 l 468 486 l 653 800 l 667 800 z m 1233 0 l 1233 50 l 718 50 l 718 407 l 367 407 l 122 0 l 183 0 l 393 357 l 667 357 l 667 0 z m 718 438 l 718 850 l 633 850 l 386 438 z "},"Ǽ":{"ha":1350,"x_min":0,"x_max":0,"o":"m 794 936 l 889 1057 l 786 1057 l 694 936 l 586 936 l 14 0 l 76 0 l 613 886 l 1206 886 l 1206 936 z m 718 438 l 718 850 l 633 850 l 386 438 z m 1233 0 l 1233 50 l 718 50 l 718 407 l 367 407 l 122 0 l 183 0 l 393 357 l 667 357 l 667 0 z m 1164 440 l 1164 489 l 808 489 l 808 800 l 1206 800 l 1206 850 l 757 850 l 757 440 z m 1233 86 l 1233 136 l 808 136 l 808 357 l 1164 357 l 1164 406 l 757 406 l 757 86 z m 667 486 l 468 486 l 653 800 l 667 800 z "},"Ć":{"ha":947,"x_min":0,"x_max":0,"o":"m 808 176 b 499 32 717 71 622 32 b 115 467 239 32 115 246 b 496 904 115 690 236 904 b 808 758 640 904 717 864 l 846 792 b 529 953 775 885 674 944 l 611 1057 l 508 1057 l 426 949 b 63 467 178 914 63 694 b 496 -18 63 221 200 -18 b 846 143 650 -18 760 39 z m 739 239 b 499 117 668 147 597 117 b 211 468 300 117 211 293 b 499 819 211 643 300 819 b 739 697 603 819 682 776 l 779 733 b 499 869 700 835 614 869 b 158 468 264 869 158 668 b 501 67 158 267 269 67 b 779 201 611 67 693 97 z "},"Ĉ":{"ha":947,"x_min":0,"x_max":0,"o":"m 650 936 l 544 1057 l 456 1057 l 350 936 l 364 936 b 63 467 158 876 63 675 b 496 -18 63 221 200 -18 b 846 143 650 -18 760 39 l 808 176 b 499 32 717 71 622 32 b 115 467 239 32 115 246 b 496 904 115 690 236 904 b 808 758 640 904 717 864 l 846 792 b 636 936 793 860 725 910 z m 739 239 b 499 117 668 147 597 117 b 211 468 300 117 211 293 b 499 819 211 643 300 819 b 739 697 603 819 682 776 l 779 733 b 499 869 700 835 614 869 b 158 468 264 869 158 668 b 501 67 158 267 269 67 b 779 201 611 67 693 97 z m 496 954 b 463 953 485 954 474 953 l 500 1000 l 538 953 b 496 954 524 953 510 954 z "},"Č":{"ha":947,"x_min":0,"x_max":0,"o":"m 808 176 b 499 32 717 71 622 32 b 115 467 239 32 115 246 b 496 904 115 690 236 904 b 808 758 640 904 717 864 l 846 792 b 557 950 779 878 686 936 l 650 1057 l 550 1057 l 500 993 l 450 1057 l 350 1057 l 442 951 b 63 467 183 924 63 700 b 496 -18 63 221 200 -18 b 846 143 650 -18 760 39 z m 739 239 b 499 117 668 147 597 117 b 211 468 300 117 211 293 b 499 819 211 643 300 819 b 739 697 603 819 682 776 l 779 733 b 499 869 700 835 614 869 b 158 468 264 869 158 668 b 501 67 158 267 269 67 b 779 201 611 67 693 97 z "},"Ċ":{"ha":947,"x_min":0,"x_max":0,"o":"m 808 176 b 499 32 717 71 622 32 b 115 467 239 32 115 246 b 496 904 115 690 236 904 b 808 758 640 904 717 864 l 846 792 b 553 951 778 879 685 938 l 553 1043 l 453 1043 l 453 951 b 63 467 186 929 63 703 b 496 -18 63 221 200 -18 b 846 143 650 -18 760 39 z m 739 239 b 499 117 668 147 597 117 b 211 468 300 117 211 293 b 499 819 211 643 300 819 b 739 697 603 819 682 776 l 779 733 b 499 869 700 835 614 869 b 158 468 264 869 158 668 b 501 67 158 267 269 67 b 779 201 611 67 693 97 z "},"Ç":{"ha":947,"x_min":0,"x_max":0,"o":"m 469 -121 l 549 -15 b 846 143 675 -4 769 51 l 808 176 b 499 32 717 71 622 32 b 115 467 239 32 115 246 b 496 904 115 690 236 904 b 808 758 640 904 717 864 l 846 792 b 496 954 769 892 658 954 b 63 467 200 954 63 715 b 449 -15 63 233 185 8 l 367 -121 z m 739 239 b 499 117 668 147 597 117 b 211 468 300 117 211 293 b 499 819 211 643 300 819 b 739 697 603 819 682 776 l 779 733 b 499 869 700 835 614 869 b 158 468 264 869 158 668 b 501 67 158 267 269 67 b 779 201 611 67 693 97 z "},"Ď":{"ha":1031,"x_min":0,"x_max":0,"o":"m 531 936 l 636 1057 l 536 1057 l 486 993 l 436 1057 l 336 1057 l 442 936 l 146 936 l 146 0 l 524 0 b 968 469 818 0 968 213 b 531 936 968 722 829 932 z m 197 50 l 197 886 l 524 886 b 917 469 792 886 917 696 b 524 50 917 242 783 50 z m 517 86 b 874 468 753 86 874 243 b 517 850 874 703 735 850 l 236 850 l 236 86 z m 288 136 l 288 800 l 517 800 b 822 468 704 800 822 671 b 517 136 822 274 719 136 z "},"Đ":{"ha":1031,"x_min":0,"x_max":0,"o":"m 524 0 b 968 469 818 0 968 213 b 524 936 968 725 828 936 l 146 936 l 146 515 l 14 515 l 14 454 l 146 454 l 146 0 z m 197 50 l 197 886 l 524 886 b 917 469 792 886 917 696 b 524 50 917 242 783 50 z m 517 86 b 874 468 753 86 874 243 b 517 850 874 703 735 850 l 236 850 l 236 86 z m 288 136 l 288 454 l 528 454 l 528 515 l 288 515 l 288 800 l 517 800 b 822 468 704 800 822 671 b 517 136 822 274 719 136 z "},"È":{"ha":869,"x_min":0,"x_max":0,"o":"m 497 936 l 406 1057 l 303 1057 l 397 936 l 144 936 l 144 0 l 753 0 l 753 50 l 196 50 l 196 886 l 725 886 l 725 936 z m 753 86 l 753 136 l 286 136 l 286 418 l 683 418 l 683 467 l 235 467 l 235 86 z m 683 501 l 683 550 l 286 550 l 286 800 l 725 800 l 725 850 l 235 850 l 235 501 z "},"É":{"ha":869,"x_min":0,"x_max":0,"o":"m 486 936 l 581 1057 l 478 1057 l 386 936 l 144 936 l 144 0 l 753 0 l 753 50 l 196 50 l 196 886 l 725 886 l 725 936 z m 753 86 l 753 136 l 286 136 l 286 418 l 683 418 l 683 467 l 235 467 l 235 86 z m 683 501 l 683 550 l 286 550 l 286 800 l 725 800 l 725 850 l 235 850 l 235 501 z "},"Ê":{"ha":869,"x_min":0,"x_max":0,"o":"m 586 936 l 481 1057 l 392 1057 l 286 936 l 144 936 l 144 0 l 753 0 l 753 50 l 196 50 l 196 886 l 725 886 l 725 936 z m 753 86 l 753 136 l 286 136 l 286 418 l 683 418 l 683 467 l 235 467 l 235 86 z m 683 501 l 683 550 l 286 550 l 286 800 l 725 800 l 725 850 l 235 850 l 235 501 z m 436 1000 l 486 936 l 386 936 z "},"Ě":{"ha":869,"x_min":0,"x_max":0,"o":"m 486 936 l 592 1057 l 492 1057 l 442 993 l 392 1057 l 292 1057 l 397 936 l 144 936 l 144 0 l 753 0 l 753 50 l 196 50 l 196 886 l 725 886 l 725 936 z m 753 86 l 753 136 l 286 136 l 286 418 l 683 418 l 683 467 l 235 467 l 235 86 z m 683 501 l 683 550 l 286 550 l 286 800 l 725 800 l 725 850 l 235 850 l 235 501 z "},"Ë":{"ha":869,"x_min":0,"x_max":0,"o":"m 583 936 l 583 1043 l 483 1043 l 483 936 l 403 936 l 403 1043 l 303 1043 l 303 936 l 144 936 l 144 0 l 753 0 l 753 50 l 196 50 l 196 886 l 725 886 l 725 936 z m 753 86 l 753 136 l 286 136 l 286 418 l 683 418 l 683 467 l 235 467 l 235 86 z m 683 501 l 683 550 l 286 550 l 286 800 l 725 800 l 725 850 l 235 850 l 235 501 z "},"Ē":{"ha":869,"x_min":0,"x_max":0,"o":"m 613 936 l 613 1013 l 276 1013 l 276 936 l 144 936 l 144 0 l 753 0 l 753 50 l 196 50 l 196 886 l 725 886 l 725 936 z m 753 86 l 753 136 l 286 136 l 286 418 l 683 418 l 683 467 l 235 467 l 235 86 z m 683 501 l 683 550 l 286 550 l 286 800 l 725 800 l 725 850 l 235 850 l 235 501 z "},"Ĕ":{"ha":869,"x_min":0,"x_max":0,"o":"m 553 1057 b 449 996 549 1014 511 996 b 344 1057 385 996 349 1014 l 275 1057 b 388 936 278 988 319 949 l 144 936 l 144 0 l 753 0 l 753 50 l 196 50 l 196 886 l 725 886 l 725 936 l 508 936 b 622 1057 576 949 618 988 z m 753 86 l 753 136 l 286 136 l 286 418 l 683 418 l 683 467 l 235 467 l 235 86 z m 683 501 l 683 550 l 286 550 l 286 800 l 725 800 l 725 850 l 235 850 l 235 501 z "},"Ė":{"ha":869,"x_min":0,"x_max":0,"o":"m 492 936 l 492 1043 l 392 1043 l 392 936 l 144 936 l 144 0 l 753 0 l 753 50 l 196 50 l 196 886 l 725 886 l 725 936 z m 753 86 l 753 136 l 286 136 l 286 418 l 683 418 l 683 467 l 235 467 l 235 86 z m 683 501 l 683 550 l 286 550 l 286 800 l 725 800 l 725 850 l 235 850 l 235 501 z "},"Ę":{"ha":869,"x_min":0,"x_max":0,"o":"m 626 0 b 606 -54 614 -15 606 -35 b 699 -131 606 -100 636 -131 b 751 -125 719 -131 733 -129 l 744 -67 l 676 -61 l 707 0 l 753 0 l 753 50 l 196 50 l 196 886 l 725 886 l 725 936 l 144 936 l 144 0 z m 753 86 l 753 136 l 286 136 l 286 418 l 683 418 l 683 467 l 235 467 l 235 86 z m 683 501 l 683 550 l 286 550 l 286 800 l 725 800 l 725 850 l 235 850 l 235 501 z "},"":{"ha":1281,"x_min":0,"x_max":0,"o":"m 714 464 l 714 513 l 288 513 l 288 800 l 756 800 l 756 850 l 236 850 l 236 464 z m 714 381 l 714 429 l 236 429 l 236 0 l 288 0 l 288 381 z m 197 0 l 197 886 l 756 886 l 756 936 l 146 936 l 146 0 z m 1135 0 l 1135 936 l 1083 936 l 1083 0 z m 1046 0 l 1046 936 l 994 936 l 994 0 z "},"":{"ha":1690,"x_min":0,"x_max":0,"o":"m 714 464 l 714 513 l 288 513 l 288 800 l 756 800 l 756 850 l 236 850 l 236 464 z m 714 381 l 714 429 l 236 429 l 236 0 l 288 0 l 288 381 z m 197 0 l 197 886 l 756 886 l 756 936 l 146 936 l 146 0 z m 1614 86 l 1614 136 l 1136 136 l 1136 936 l 1085 936 l 1085 86 z m 1614 0 l 1614 50 l 1046 50 l 1046 936 l 994 936 l 994 0 z "},"Ĝ":{"ha":964,"x_min":0,"x_max":0,"o":"m 650 936 l 544 1057 l 456 1057 l 350 936 l 364 936 b 63 467 158 876 63 675 b 535 -18 63 165 236 -18 b 856 39 643 -18 754 -1 l 856 471 l 457 471 l 457 422 l 804 422 l 804 76 b 535 32 724 47 629 32 b 115 467 269 32 115 197 b 496 904 115 690 236 904 b 808 758 640 904 717 864 l 846 792 b 636 936 793 860 725 910 z m 717 138 b 543 115 668 122 601 115 b 211 468 318 115 211 256 b 499 819 211 643 300 819 b 739 697 603 819 682 776 l 779 733 b 499 869 700 835 614 869 b 158 468 264 869 158 668 b 543 65 158 225 282 65 b 768 100 615 65 697 75 l 768 388 l 457 388 l 457 339 l 717 339 z m 496 954 b 463 953 485 954 474 953 l 500 1000 l 538 953 b 496 954 524 953 510 954 z "},"Ğ":{"ha":964,"x_min":0,"x_max":0,"o":"m 621 1057 b 517 996 617 1014 579 996 b 413 1057 453 996 417 1014 l 343 1057 b 415 947 346 1003 371 967 b 63 467 175 908 63 692 b 535 -18 63 165 236 -18 b 856 39 643 -18 754 -1 l 856 471 l 457 471 l 457 422 l 804 422 l 804 76 b 535 32 724 47 629 32 b 115 467 269 32 115 197 b 496 904 115 690 236 904 b 808 758 640 904 717 864 l 846 792 b 606 943 788 867 710 921 b 690 1057 657 961 688 999 z m 717 138 b 543 115 668 122 601 115 b 211 468 318 115 211 256 b 499 819 211 643 300 819 b 739 697 603 819 682 776 l 779 733 b 499 869 700 835 614 869 b 158 468 264 869 158 668 b 543 65 158 225 282 65 b 768 100 615 65 697 75 l 768 388 l 457 388 l 457 339 l 717 339 z "},"Ġ":{"ha":964,"x_min":0,"x_max":0,"o":"m 804 76 b 535 32 724 47 629 32 b 115 467 269 32 115 197 b 496 904 115 690 236 904 b 808 758 640 904 717 864 l 846 792 b 554 951 779 879 685 938 l 554 1043 l 454 1043 l 454 951 b 63 467 188 931 63 703 b 535 -18 63 165 236 -18 b 856 39 643 -18 754 -1 l 856 471 l 457 471 l 457 422 l 804 422 z m 717 138 b 543 115 668 122 601 115 b 211 468 318 115 211 256 b 499 819 211 643 300 819 b 739 697 603 819 682 776 l 779 733 b 499 869 700 835 614 869 b 158 468 264 869 158 668 b 543 65 158 225 282 65 b 768 100 615 65 697 75 l 768 388 l 457 388 l 457 339 l 717 339 z "},"Ģ":{"ha":964,"x_min":0,"x_max":0,"o":"m 717 138 b 543 115 668 122 601 115 b 211 468 318 115 211 256 b 499 819 211 643 300 819 b 739 697 603 819 682 776 l 779 733 b 499 869 700 835 614 869 b 158 468 264 869 158 668 b 543 65 158 225 282 65 b 768 100 615 65 697 75 l 768 388 l 457 388 l 457 339 l 717 339 z m 804 76 b 535 32 724 47 629 32 b 115 467 269 32 115 197 b 496 904 115 690 236 904 b 808 758 640 904 717 864 l 846 792 b 496 954 769 892 658 954 b 63 467 200 954 63 715 b 535 -18 63 165 236 -18 b 856 39 643 -18 754 -1 l 856 471 l 457 471 l 457 422 l 804 422 z m 485 -121 l 544 -43 l 443 -43 l 382 -121 z "},"Ĥ":{"ha":1082,"x_min":0,"x_max":0,"o":"m 846 503 l 846 936 l 794 936 l 794 551 l 288 551 l 288 936 l 236 936 l 236 503 z m 936 0 l 936 936 l 885 936 l 885 0 z m 846 0 l 846 465 l 236 465 l 236 0 l 288 0 l 288 415 l 794 415 l 794 0 z m 197 0 l 197 936 l 146 936 l 146 0 z m 690 936 l 585 1057 l 496 1057 l 390 936 l 490 936 l 540 1000 l 590 936 z "},"Ħ":{"ha":1082,"x_min":0,"x_max":0,"o":"m 846 503 l 846 936 l 794 936 l 794 736 l 288 736 l 288 936 l 236 936 l 236 503 z m 846 0 l 846 465 l 236 465 l 236 0 l 288 0 l 288 415 l 794 415 l 794 0 z m 288 551 l 288 675 l 794 675 l 794 551 z m 936 0 l 936 675 l 1068 675 l 1068 736 l 936 736 l 936 936 l 885 936 l 885 0 z m 197 0 l 197 936 l 146 936 l 146 736 l 14 736 l 14 675 l 146 675 l 146 0 z "},"Ì":{"ha":432,"x_min":0,"x_max":0,"o":"m 290 936 l 199 1057 l 96 1057 l 190 936 l 168 936 l 168 0 l 219 0 l 219 936 l 257 936 l 257 0 l 308 0 l 308 936 z "},"Í":{"ha":432,"x_min":0,"x_max":0,"o":"m 288 936 l 382 1057 l 279 1057 l 188 936 l 168 936 l 168 0 l 219 0 l 219 936 l 257 936 l 257 0 l 308 0 l 308 936 z "},"Î":{"ha":432,"x_min":0,"x_max":0,"o":"m 388 936 l 282 1057 l 193 1057 l 88 936 l 168 936 l 168 0 l 219 0 l 219 936 l 188 936 l 238 1000 l 288 936 l 257 936 l 257 0 l 308 0 l 308 936 z "},"Ĩ":{"ha":432,"x_min":0,"x_max":0,"o":"m 286 0 l 286 931 l 296 931 b 393 1057 368 931 388 996 l 318 1057 l 310 996 l 217 1040 b 136 1063 188 1054 164 1063 b 39 936 64 1063 44 997 l 114 936 l 122 997 l 215 953 b 256 936 229 946 242 940 l 235 936 l 235 0 z m 197 0 l 197 936 l 146 936 l 146 0 z "},"Ï":{"ha":432,"x_min":0,"x_max":0,"o":"m 379 936 l 379 1043 l 279 1043 l 279 936 l 257 936 l 257 0 l 308 0 l 308 936 z m 199 936 l 199 1043 l 99 1043 l 99 936 l 168 936 l 168 0 l 219 0 l 219 936 z "},"Ī":{"ha":432,"x_min":0,"x_max":0,"o":"m 383 936 l 383 1013 l 47 1013 l 47 936 l 146 936 l 146 0 l 197 0 l 197 936 l 235 936 l 235 0 l 286 0 l 286 936 z "},"Ĭ":{"ha":432,"x_min":0,"x_max":0,"o":"m 319 1057 b 215 996 315 1014 278 996 b 111 1057 151 996 115 1014 l 42 1057 b 154 936 44 988 86 949 l 146 936 l 146 0 l 197 0 l 197 931 l 215 931 l 235 931 l 235 0 l 286 0 l 286 936 l 275 936 b 389 1057 343 949 385 988 z "},"İ":{"ha":432,"x_min":0,"x_max":0,"o":"m 265 936 l 265 1043 l 165 1043 l 165 936 l 146 936 l 146 0 l 197 0 l 197 936 l 235 936 l 235 0 l 286 0 l 286 936 z "},"Į":{"ha":432,"x_min":0,"x_max":0,"o":"m 197 0 l 197 936 l 146 936 l 146 0 l 175 0 b 154 -54 163 -15 154 -35 b 247 -131 154 -100 185 -131 b 300 -125 268 -131 282 -129 l 293 -67 l 225 -61 l 256 0 l 286 0 l 286 936 l 235 936 l 235 0 z "},"Ĳ":{"ha":1143,"x_min":0,"x_max":0,"o":"m 286 0 l 286 936 l 235 936 l 235 0 z m 197 0 l 197 936 l 146 936 l 146 0 z m 946 283 b 736 32 946 125 878 32 b 493 174 624 32 550 76 l 454 142 b 731 -18 526 19 624 -18 b 997 283 904 -18 997 85 l 997 936 l 946 936 z m 856 285 b 729 117 856 174 815 117 b 565 231 656 117 603 157 l 525 199 b 738 67 571 113 636 67 b 907 285 858 67 907 163 l 907 936 l 856 936 z "},"Ĵ":{"ha":711,"x_min":0,"x_max":0,"o":"m 644 936 l 539 1057 l 450 1057 l 344 936 l 424 936 l 424 285 b 297 117 424 174 383 117 b 133 231 224 117 171 157 l 93 199 b 306 67 139 113 204 67 b 475 285 426 67 475 163 l 475 936 l 444 936 l 494 1000 l 544 936 l 514 936 l 514 283 b 304 32 514 125 446 32 b 61 174 192 32 118 76 l 22 142 b 299 -18 94 19 192 -18 b 565 283 472 -18 565 85 l 565 936 z "},"Ķ":{"ha":950,"x_min":0,"x_max":0,"o":"m 197 0 l 197 936 l 146 936 l 146 0 z m 771 0 l 331 479 l 778 936 l 707 936 l 288 504 l 288 936 l 236 936 l 236 0 l 288 0 l 288 450 l 700 0 z m 896 0 l 447 479 l 896 936 l 826 936 l 376 479 l 825 0 z m 450 -121 l 510 -43 l 408 -43 l 347 -121 z "},"Ĺ":{"ha":842,"x_min":0,"x_max":0,"o":"m 264 936 l 358 1057 l 256 1057 l 164 936 l 146 936 l 146 0 l 765 0 l 765 50 l 197 50 l 197 936 l 236 936 l 236 86 l 765 86 l 765 136 l 288 136 l 288 936 z "},"Ľ":{"ha":842,"x_min":0,"x_max":0,"o":"m 765 86 l 765 136 l 288 136 l 288 936 l 236 936 l 236 86 z m 765 0 l 765 50 l 197 50 l 197 936 l 146 936 l 146 0 z m 489 772 l 531 936 l 444 936 l 411 772 z "},"Ļ":{"ha":842,"x_min":0,"x_max":0,"o":"m 765 86 l 765 136 l 288 136 l 288 936 l 236 936 l 236 86 z m 765 0 l 765 50 l 197 50 l 197 936 l 146 936 l 146 0 z m 438 -121 l 497 -43 l 396 -43 l 335 -121 z "},"Ł":{"ha":842,"x_min":0,"x_max":0,"o":"m 765 86 l 765 136 l 288 136 l 288 425 l 610 601 l 610 671 l 288 496 l 288 936 l 236 936 l 236 86 z m 765 0 l 765 50 l 197 50 l 197 936 l 146 936 l 146 419 l 42 363 l 42 292 l 146 349 l 146 0 z "},"Ŀ":{"ha":842,"x_min":0,"x_max":0,"o":"m 765 86 l 765 136 l 288 136 l 288 936 l 236 936 l 236 86 z m 765 0 l 765 50 l 197 50 l 197 936 l 146 936 l 146 0 z m 707 471 l 707 578 l 607 578 l 607 471 z "},"Ń":{"ha":1083,"x_min":0,"x_max":0,"o":"m 851 107 l 851 936 l 801 936 l 801 253 l 268 936 l 146 936 l 146 0 l 196 0 l 196 886 l 242 886 z m 938 0 l 938 936 l 888 936 l 888 50 l 846 50 l 232 838 l 232 0 l 282 0 l 282 682 l 818 0 z m 544 936 l 639 1057 l 536 1057 l 444 936 z "},"Ň":{"ha":1083,"x_min":0,"x_max":0,"o":"m 851 107 l 851 936 l 801 936 l 801 253 l 268 936 l 146 936 l 146 0 l 196 0 l 196 886 l 242 886 z m 938 0 l 938 936 l 888 936 l 888 50 l 846 50 l 232 838 l 232 0 l 282 0 l 282 682 l 818 0 z m 586 936 l 692 1057 l 592 1057 l 542 993 l 492 1057 l 392 1057 l 497 936 z "},"Ñ":{"ha":1083,"x_min":0,"x_max":0,"o":"m 851 107 l 851 936 l 801 936 l 801 253 l 268 936 l 146 936 l 146 0 l 196 0 l 196 886 l 242 886 z m 938 0 l 938 936 l 888 936 l 888 50 l 846 50 l 232 838 l 232 0 l 282 0 l 282 682 l 818 0 z m 654 996 l 561 1040 b 481 1063 532 1054 508 1063 b 383 936 408 1063 389 997 l 458 936 l 467 997 l 560 953 b 640 931 588 939 611 931 b 738 1057 713 931 732 996 l 663 1057 z "},"Ņ":{"ha":1083,"x_min":0,"x_max":0,"o":"m 851 107 l 851 936 l 801 936 l 801 253 l 268 936 l 146 936 l 146 0 l 196 0 l 196 886 l 242 886 z m 938 0 l 938 936 l 888 936 l 888 50 l 846 50 l 232 838 l 232 0 l 282 0 l 282 682 l 818 0 z m 521 -121 l 581 -43 l 479 -43 l 418 -121 z "},"Ò":{"ha":1042,"x_min":0,"x_max":0,"o":"m 522 -18 b 979 467 831 -18 979 214 b 561 953 979 710 840 932 l 482 1057 l 379 1057 l 461 951 b 63 469 192 924 63 706 b 522 -18 63 214 214 -18 z m 522 32 b 115 469 249 32 115 240 b 519 904 115 696 247 904 b 926 467 793 904 926 696 b 522 32 926 240 794 32 z m 522 67 b 883 468 778 67 883 269 b 519 869 883 665 775 869 b 158 468 264 869 158 667 b 522 67 158 271 267 67 z m 522 117 b 211 468 306 117 211 297 b 519 819 211 642 304 819 b 831 468 736 819 831 639 b 522 117 831 294 738 117 z "},"Ó":{"ha":1042,"x_min":0,"x_max":0,"o":"m 522 -18 b 979 467 831 -18 979 214 b 569 951 979 708 843 928 l 651 1057 l 549 1057 l 468 951 b 63 469 194 928 63 707 b 522 -18 63 214 214 -18 z m 522 32 b 115 469 249 32 115 240 b 519 904 115 696 247 904 b 926 467 793 904 926 696 b 522 32 926 240 794 32 z m 522 67 b 883 468 778 67 883 269 b 519 869 883 665 775 869 b 158 468 264 869 158 667 b 522 67 158 271 267 67 z m 522 117 b 211 468 306 117 211 297 b 519 819 211 642 304 819 b 831 468 736 819 831 639 b 522 117 831 294 738 117 z "},"Ô":{"ha":1042,"x_min":0,"x_max":0,"o":"m 671 936 l 565 1057 l 476 1057 l 371 936 l 381 936 b 63 469 167 876 63 681 b 522 -18 63 214 214 -18 b 979 467 831 -18 979 214 b 658 936 979 681 872 876 z m 522 32 b 115 469 249 32 115 240 b 519 904 115 696 247 904 b 926 467 793 904 926 696 b 522 32 926 240 794 32 z m 522 67 b 883 468 778 67 883 269 b 519 869 883 665 775 869 b 158 468 264 869 158 667 b 522 67 158 271 267 67 z m 522 117 b 211 468 306 117 211 297 b 519 819 211 642 304 819 b 831 468 736 819 831 639 b 522 117 831 294 738 117 z m 519 954 b 483 953 507 954 496 953 l 521 1000 l 557 953 b 519 954 544 953 532 954 z "},"Õ":{"ha":1042,"x_min":0,"x_max":0,"o":"m 618 996 l 525 1040 b 444 1063 496 1054 472 1063 b 347 936 372 1063 353 997 l 381 936 b 63 469 167 876 63 681 b 522 -18 63 214 214 -18 b 979 467 831 -18 979 214 b 644 939 979 685 868 885 b 701 1057 685 960 697 1010 l 626 1057 z m 522 32 b 115 469 249 32 115 240 b 519 904 115 696 247 904 b 926 467 793 904 926 696 b 522 32 926 240 794 32 z m 522 67 b 883 468 778 67 883 269 b 519 869 883 665 775 869 b 158 468 264 869 158 667 b 522 67 158 271 267 67 z m 522 117 b 211 468 306 117 211 297 b 519 819 211 642 304 819 b 831 468 736 819 831 639 b 522 117 831 294 738 117 z m 424 946 l 431 997 l 521 954 l 519 954 b 424 946 485 954 453 951 z "},"Ö":{"ha":1042,"x_min":0,"x_max":0,"o":"m 660 936 l 660 1043 l 560 1043 l 560 953 b 519 954 546 953 533 954 b 479 953 506 954 492 953 l 479 1043 l 379 1043 l 379 936 l 381 936 b 63 469 167 876 63 681 b 522 -18 63 214 214 -18 b 979 467 831 -18 979 214 b 658 936 979 681 872 876 z m 522 32 b 115 469 249 32 115 240 b 519 904 115 696 247 904 b 926 467 793 904 926 696 b 522 32 926 240 794 32 z m 522 67 b 883 468 778 67 883 269 b 519 869 883 665 775 869 b 158 468 264 869 158 667 b 522 67 158 271 267 67 z m 522 117 b 211 468 306 117 211 297 b 519 819 211 642 304 819 b 831 468 736 819 831 639 b 522 117 831 294 738 117 z "},"Ō":{"ha":1042,"x_min":0,"x_max":0,"o":"m 689 936 l 689 1013 l 353 1013 l 353 936 l 381 936 b 63 469 167 876 63 681 b 522 -18 63 214 214 -18 b 979 467 831 -18 979 214 b 658 936 979 681 872 876 z m 522 32 b 115 469 249 32 115 240 b 519 904 115 696 247 904 b 926 467 793 904 926 696 b 522 32 926 240 794 32 z m 522 67 b 883 468 778 67 883 269 b 519 869 883 665 775 869 b 158 468 264 869 158 667 b 522 67 158 271 267 67 z m 522 117 b 211 468 306 117 211 297 b 519 819 211 642 304 819 b 831 468 736 819 831 639 b 522 117 831 294 738 117 z "},"Ŏ":{"ha":1042,"x_min":0,"x_max":0,"o":"m 625 1057 b 521 996 621 1014 583 996 b 417 1057 457 996 421 1014 l 347 1057 b 425 946 350 1000 378 964 b 63 469 181 903 63 694 b 522 -18 63 214 214 -18 b 979 467 831 -18 979 214 b 615 946 979 693 858 901 b 694 1057 663 964 692 1000 z m 522 32 b 115 469 249 32 115 240 b 519 904 115 696 247 904 b 926 467 793 904 926 696 b 522 32 926 240 794 32 z m 522 67 b 883 468 778 67 883 269 b 519 869 883 665 775 869 b 158 468 264 869 158 667 b 522 67 158 271 267 67 z m 522 117 b 211 468 306 117 211 297 b 519 819 211 642 304 819 b 831 468 736 819 831 639 b 522 117 831 294 738 117 z "},"Ő":{"ha":1042,"x_min":0,"x_max":0,"o":"m 522 -18 b 979 467 831 -18 979 214 b 654 936 979 681 871 879 l 749 1057 l 646 1057 l 567 953 b 519 954 551 954 535 954 b 490 953 510 954 500 954 l 572 1057 l 469 1057 l 378 936 l 381 936 b 63 469 167 876 63 681 b 522 -18 63 214 214 -18 z m 522 32 b 115 469 249 32 115 240 b 519 904 115 696 247 904 b 926 467 793 904 926 696 b 522 32 926 240 794 32 z m 522 67 b 883 468 778 67 883 269 b 519 869 883 665 775 869 b 158 468 264 869 158 667 b 522 67 158 271 267 67 z m 522 117 b 211 468 306 117 211 297 b 519 819 211 642 304 819 b 831 468 736 819 831 639 b 522 117 831 294 738 117 z "},"Ø":{"ha":1042,"x_min":0,"x_max":0,"o":"m 522 -18 b 979 467 831 -18 979 214 b 856 817 979 599 938 725 l 956 936 l 868 936 l 806 863 b 519 954 733 919 638 954 b 63 469 211 954 63 722 b 185 119 63 336 103 210 l 86 0 l 174 0 l 235 74 b 522 -18 307 17 403 -18 z m 522 32 b 115 469 249 32 115 240 b 519 904 115 696 247 904 b 926 467 793 904 926 696 b 522 32 926 240 794 32 z m 522 67 b 883 468 778 67 883 269 b 519 869 883 665 775 869 b 158 468 264 869 158 667 b 522 67 158 271 267 67 z m 522 117 b 326 183 440 117 375 142 l 760 703 b 831 468 808 636 831 551 b 522 117 831 294 738 117 z m 211 468 b 519 819 211 642 304 819 b 714 751 601 819 665 793 l 281 233 b 211 468 233 299 211 385 z "},"Ǿ":{"ha":1042,"x_min":0,"x_max":0,"o":"m 522 -18 b 979 467 831 -18 979 214 b 856 817 979 599 938 725 l 956 936 l 868 936 l 806 863 b 569 951 743 911 665 943 l 651 1057 l 549 1057 l 468 951 b 63 469 194 928 63 707 b 185 119 63 336 103 210 l 86 0 l 174 0 l 235 74 b 522 -18 307 17 403 -18 z m 522 32 b 115 469 249 32 115 240 b 519 904 115 696 247 904 b 926 467 793 904 926 696 b 522 32 926 240 794 32 z m 522 67 b 883 468 778 67 883 269 b 519 869 883 665 775 869 b 158 468 264 869 158 667 b 522 67 158 271 267 67 z m 522 117 b 326 183 440 117 375 142 l 760 703 b 831 468 808 636 831 551 b 522 117 831 294 738 117 z m 211 468 b 519 819 211 642 304 819 b 714 751 601 819 665 793 l 281 233 b 211 468 233 299 211 385 z "},"Œ":{"ha":1440,"x_min":0,"x_max":0,"o":"m 1324 86 l 1324 136 l 871 136 l 871 418 l 1254 418 l 1254 467 l 819 467 l 819 86 z m 1254 501 l 1254 550 l 871 550 l 871 800 l 1296 800 l 1296 850 l 819 850 l 819 501 z m 781 86 l 781 850 l 514 850 b 157 468 278 850 157 693 b 514 86 157 233 296 86 z m 1324 0 l 1324 50 l 507 50 b 114 467 239 50 114 240 b 507 886 114 694 247 886 l 1296 886 l 1296 936 l 507 936 b 63 467 213 936 63 724 b 507 0 63 211 203 0 z m 729 136 l 514 136 b 208 468 326 136 208 265 b 514 800 208 663 311 800 l 729 800 z "},"Ŕ":{"ha":956,"x_min":0,"x_max":0,"o":"m 490 454 b 707 657 614 454 707 515 b 499 853 707 781 615 853 l 236 853 l 236 454 z m 475 936 l 569 1057 l 467 1057 l 375 936 l 146 936 l 146 0 l 197 0 l 197 888 l 503 888 b 747 658 638 888 747 801 b 526 424 747 500 632 435 l 815 0 l 879 0 l 611 393 b 799 658 718 428 799 513 b 503 936 799 836 665 936 z m 288 503 l 288 803 l 499 803 b 656 657 588 803 656 749 b 490 503 656 553 586 503 z m 764 0 l 482 422 l 236 422 l 236 0 l 288 0 l 288 374 l 454 374 l 701 0 z "},"Ř":{"ha":956,"x_min":0,"x_max":0,"o":"m 490 454 b 707 657 614 454 707 515 b 499 853 707 781 615 853 l 236 853 l 236 454 z m 464 936 l 569 1057 l 469 1057 l 419 993 l 369 1057 l 269 1057 l 375 936 l 146 936 l 146 0 l 197 0 l 197 888 l 503 888 b 747 658 638 888 747 801 b 526 424 747 500 632 435 l 815 0 l 879 0 l 611 393 b 799 658 718 428 799 513 b 503 936 799 836 665 936 z m 288 503 l 288 803 l 499 803 b 656 657 588 803 656 749 b 490 503 656 553 586 503 z m 764 0 l 482 422 l 236 422 l 236 0 l 288 0 l 288 374 l 454 374 l 701 0 z "},"Ŗ":{"ha":956,"x_min":0,"x_max":0,"o":"m 764 0 l 482 422 l 236 422 l 236 0 l 288 0 l 288 374 l 454 374 l 701 0 z m 490 454 b 707 657 614 454 707 515 b 499 853 707 781 615 853 l 236 853 l 236 454 z m 879 0 l 611 393 b 799 658 718 428 799 513 b 503 936 799 836 665 936 l 146 936 l 146 0 l 197 0 l 197 888 l 503 888 b 747 658 638 888 747 801 b 526 424 747 500 632 435 l 815 0 z m 288 503 l 288 803 l 499 803 b 656 657 588 803 656 749 b 490 503 656 553 586 503 z m 460 -121 l 519 -43 l 418 -43 l 357 -121 z "},"Ś":{"ha":913,"x_min":0,"x_max":0,"o":"m 789 789 b 497 953 703 900 611 946 l 579 1057 l 476 1057 l 394 949 b 160 690 251 925 160 835 b 433 415 160 514 301 461 b 639 240 561 371 639 339 b 461 118 639 169 581 118 b 217 253 357 118 282 167 l 176 215 b 461 68 257 107 356 68 b 690 240 601 68 690 147 b 449 465 690 367 611 411 b 210 690 332 506 210 558 b 468 904 210 815 292 904 b 753 756 567 904 656 879 z m 724 728 b 461 868 644 835 561 868 b 257 704 321 868 257 796 b 486 496 257 585 339 549 b 736 257 619 449 736 399 b 454 32 736 101 597 32 b 144 186 347 32 242 63 l 108 153 b 454 -18 210 29 317 -18 b 788 257 642 -18 788 82 b 504 544 788 446 640 496 b 308 704 390 585 308 613 b 461 818 308 769 350 818 b 688 694 556 818 622 778 z "},"Ŝ":{"ha":913,"x_min":0,"x_max":0,"o":"m 618 936 l 513 1057 l 424 1057 l 318 936 l 340 936 b 160 690 229 900 160 815 b 433 415 160 514 301 461 b 639 240 561 371 639 339 b 461 118 639 169 581 118 b 217 253 357 118 282 167 l 176 215 b 461 68 257 107 356 68 b 690 240 601 68 690 147 b 449 465 690 367 611 411 b 210 690 332 506 210 558 b 468 904 210 815 292 904 b 753 756 567 904 656 879 l 789 789 b 594 936 729 867 667 913 z m 724 728 b 461 868 644 835 561 868 b 257 704 321 868 257 796 b 486 496 257 585 339 549 b 736 257 619 449 736 399 b 454 32 736 101 597 32 b 144 186 347 32 242 63 l 108 153 b 454 -18 210 29 317 -18 b 788 257 642 -18 788 82 b 504 544 788 446 640 496 b 308 704 390 585 308 613 b 461 818 308 769 350 818 b 688 694 556 818 622 778 z m 468 954 b 431 953 456 954 443 953 l 468 1000 l 504 953 b 468 954 493 953 481 954 z "},"Š":{"ha":913,"x_min":0,"x_max":0,"o":"m 789 789 b 522 951 710 892 625 939 l 615 1057 l 515 1057 l 465 993 l 415 1057 l 315 1057 l 408 950 b 160 690 258 932 160 839 b 433 415 160 514 301 461 b 639 240 561 371 639 339 b 461 118 639 169 581 118 b 217 253 357 118 282 167 l 176 215 b 461 68 257 107 356 68 b 690 240 601 68 690 147 b 449 465 690 367 611 411 b 210 690 332 506 210 558 b 468 904 210 815 292 904 b 753 756 567 904 656 879 z m 724 728 b 461 868 644 835 561 868 b 257 704 321 868 257 796 b 486 496 257 585 339 549 b 736 257 619 449 736 399 b 454 32 736 101 597 32 b 144 186 347 32 242 63 l 108 153 b 454 -18 210 29 317 -18 b 788 257 642 -18 788 82 b 504 544 788 446 640 496 b 308 704 390 585 308 613 b 461 818 308 769 350 818 b 688 694 556 818 622 778 z "},"Ş":{"ha":913,"x_min":0,"x_max":0,"o":"m 454 -121 l 538 -10 b 788 257 683 15 788 108 b 504 544 788 446 640 496 b 308 704 390 585 308 613 b 461 818 308 769 350 818 b 688 694 556 818 622 778 l 724 728 b 461 868 644 835 561 868 b 257 704 321 868 257 796 b 486 496 257 585 339 549 b 736 257 619 449 736 399 b 454 32 736 101 597 32 b 144 186 347 32 242 63 l 108 153 b 432 -17 204 36 304 -12 l 351 -121 z m 789 789 b 468 954 696 910 596 954 b 160 690 285 954 160 858 b 433 415 160 514 301 461 b 639 240 561 371 639 339 b 461 118 639 169 581 118 b 217 253 357 118 282 167 l 176 215 b 461 68 257 107 356 68 b 690 240 601 68 690 147 b 449 465 690 367 611 411 b 210 690 332 506 210 558 b 468 904 210 815 292 904 b 753 756 567 904 656 879 z "},"Ș":{"ha":913,"x_min":0,"x_max":0,"o":"m 789 789 b 468 954 696 910 596 954 b 160 690 285 954 160 858 b 433 415 160 514 301 461 b 639 240 561 371 639 339 b 461 118 639 169 581 118 b 217 253 357 118 282 167 l 176 215 b 461 68 257 107 356 68 b 690 240 601 68 690 147 b 449 465 690 367 611 411 b 210 690 332 506 210 558 b 468 904 210 815 292 904 b 753 756 567 904 656 879 z m 724 728 b 461 868 644 835 561 868 b 257 704 321 868 257 796 b 486 496 257 585 339 549 b 736 257 619 449 736 399 b 454 32 736 101 597 32 b 144 186 347 32 242 63 l 108 153 b 454 -18 210 29 317 -18 b 788 257 642 -18 788 82 b 504 544 788 446 640 496 b 308 704 390 585 308 613 b 461 818 308 769 350 818 b 688 694 556 818 622 778 z m 461 -121 l 521 -43 l 419 -43 l 358 -121 z "},"Ť":{"ha":875,"x_min":0,"x_max":0,"o":"m 418 0 l 418 850 l 42 850 l 42 800 l 367 800 l 367 0 z m 508 0 l 508 800 l 833 800 l 833 850 l 457 850 l 457 0 z m 482 936 l 588 1057 l 488 1057 l 438 993 l 388 1057 l 288 1057 l 393 936 l 42 936 l 42 886 l 833 886 l 833 936 z "},"Ţ":{"ha":875,"x_min":0,"x_max":0,"o":"m 418 0 l 418 850 l 42 850 l 42 800 l 367 800 l 367 0 z m 508 0 l 508 800 l 833 800 l 833 850 l 457 850 l 457 0 z m 833 886 l 833 936 l 42 936 l 42 886 z m 410 -121 l 469 -43 l 368 -43 l 307 -121 z "},"Ŧ":{"ha":875,"x_min":0,"x_max":0,"o":"m 418 0 l 418 850 l 42 850 l 42 800 l 367 800 l 367 485 l 174 485 l 174 424 l 367 424 l 367 0 z m 508 0 l 508 424 l 701 424 l 701 485 l 508 485 l 508 800 l 833 800 l 833 850 l 457 850 l 457 0 z m 833 886 l 833 936 l 42 936 l 42 886 z "},"Ù":{"ha":1082,"x_min":0,"x_max":0,"o":"m 885 319 b 540 32 885 142 744 32 b 197 319 343 32 197 143 l 197 936 l 146 936 l 146 319 b 540 -18 146 108 313 -18 b 936 319 775 -18 936 107 l 936 936 l 885 936 z m 794 326 b 539 117 794 200 689 117 b 288 328 393 117 288 204 l 288 936 l 236 936 l 236 328 b 540 67 236 174 361 67 b 846 326 725 67 846 168 l 846 936 l 794 936 z m 599 936 l 507 1057 l 404 1057 l 499 936 z "},"Ú":{"ha":1082,"x_min":0,"x_max":0,"o":"m 885 319 b 540 32 885 142 744 32 b 197 319 343 32 197 143 l 197 936 l 146 936 l 146 319 b 540 -18 146 108 313 -18 b 936 319 775 -18 936 107 l 936 936 l 885 936 z m 794 326 b 539 117 794 200 689 117 b 288 328 393 117 288 204 l 288 936 l 236 936 l 236 328 b 540 67 236 174 361 67 b 846 326 725 67 846 168 l 846 936 l 794 936 z m 586 936 l 681 1057 l 578 1057 l 486 936 z "},"Û":{"ha":1082,"x_min":0,"x_max":0,"o":"m 885 319 b 540 32 885 142 744 32 b 197 319 343 32 197 143 l 197 936 l 146 936 l 146 319 b 540 -18 146 108 313 -18 b 936 319 775 -18 936 107 l 936 936 l 885 936 z m 794 326 b 539 117 794 200 689 117 b 288 328 393 117 288 204 l 288 936 l 236 936 l 236 328 b 540 67 236 174 361 67 b 846 326 725 67 846 168 l 846 936 l 794 936 z m 690 936 l 585 1057 l 496 1057 l 390 936 l 490 936 l 540 1000 l 590 936 z "},"Ũ":{"ha":1082,"x_min":0,"x_max":0,"o":"m 885 319 b 540 32 885 142 744 32 b 197 319 343 32 197 143 l 197 936 l 146 936 l 146 319 b 540 -18 146 108 313 -18 b 936 319 775 -18 936 107 l 936 936 l 885 936 z m 794 326 b 539 117 794 200 689 117 b 288 328 393 117 288 204 l 288 936 l 236 936 l 236 328 b 540 67 236 174 361 67 b 846 326 725 67 846 168 l 846 936 l 794 936 z m 635 996 l 542 1040 b 461 1063 513 1054 489 1063 b 364 936 389 1063 369 997 l 439 936 l 447 997 l 540 953 b 621 931 568 939 592 931 b 718 1057 693 931 713 996 l 643 1057 z "},"Ü":{"ha":1082,"x_min":0,"x_max":0,"o":"m 885 319 b 540 32 885 142 744 32 b 197 319 343 32 197 143 l 197 936 l 146 936 l 146 319 b 540 -18 146 108 313 -18 b 936 319 775 -18 936 107 l 936 936 l 885 936 z m 794 326 b 539 117 794 200 689 117 b 288 328 393 117 288 204 l 288 936 l 236 936 l 236 328 b 540 67 236 174 361 67 b 846 326 725 67 846 168 l 846 936 l 794 936 z m 504 936 l 504 1043 l 404 1043 l 404 936 z m 685 936 l 685 1043 l 585 1043 l 585 936 z "},"Ū":{"ha":1082,"x_min":0,"x_max":0,"o":"m 885 319 b 540 32 885 142 744 32 b 197 319 343 32 197 143 l 197 936 l 146 936 l 146 319 b 540 -18 146 108 313 -18 b 936 319 775 -18 936 107 l 936 936 l 885 936 z m 794 326 b 539 117 794 200 689 117 b 288 328 393 117 288 204 l 288 936 l 236 936 l 236 328 b 540 67 236 174 361 67 b 846 326 725 67 846 168 l 846 936 l 794 936 z m 708 936 l 708 1013 l 372 1013 l 372 936 z "},"Ŭ":{"ha":1082,"x_min":0,"x_max":0,"o":"m 885 319 b 540 32 885 142 744 32 b 197 319 343 32 197 143 l 197 936 l 146 936 l 146 319 b 540 -18 146 108 313 -18 b 936 319 775 -18 936 107 l 936 936 l 885 936 z m 794 326 b 539 117 794 200 689 117 b 288 328 393 117 288 204 l 288 936 l 236 936 l 236 328 b 540 67 236 174 361 67 b 846 326 725 67 846 168 l 846 936 l 794 936 z m 644 1057 b 540 996 640 1014 603 996 b 436 1057 476 996 440 1014 l 367 1057 b 540 931 371 969 438 931 b 714 1057 643 931 710 969 z "},"Ů":{"ha":1082,"x_min":0,"x_max":0,"o":"m 885 319 b 540 32 885 142 744 32 b 197 319 343 32 197 143 l 197 936 l 146 936 l 146 319 b 540 -18 146 108 313 -18 b 936 319 775 -18 936 107 l 936 936 l 885 936 z m 794 326 b 539 117 794 200 689 117 b 288 328 393 117 288 204 l 288 936 l 236 936 l 236 328 b 540 67 236 174 361 67 b 846 326 725 67 846 168 l 846 936 l 794 936 z m 590 1025 b 540 985 590 1000 575 985 b 492 1025 507 985 492 1003 b 540 1067 492 1049 507 1067 b 590 1025 575 1067 590 1049 z m 654 1025 b 540 1118 654 1085 611 1118 b 426 1025 469 1118 426 1086 b 540 932 426 965 469 932 b 654 1025 611 932 654 964 z "},"Ű":{"ha":1082,"x_min":0,"x_max":0,"o":"m 885 319 b 540 32 885 142 744 32 b 197 319 343 32 197 143 l 197 936 l 146 936 l 146 319 b 540 -18 146 108 313 -18 b 936 319 775 -18 936 107 l 936 936 l 885 936 z m 794 326 b 539 117 794 200 689 117 b 288 328 393 117 288 204 l 288 936 l 236 936 l 236 328 b 540 67 236 174 361 67 b 846 326 725 67 846 168 l 846 936 l 794 936 z m 456 936 l 550 1057 l 447 1057 l 356 936 z m 632 936 l 726 1057 l 624 1057 l 532 936 z "},"Ų":{"ha":1082,"x_min":0,"x_max":0,"o":"m 885 319 b 540 32 885 142 744 32 b 197 319 343 32 197 143 l 197 936 l 146 936 l 146 319 b 485 -15 146 125 286 3 b 475 -54 479 -26 475 -40 b 568 -131 475 -100 506 -131 b 621 -125 589 -131 603 -129 l 614 -67 l 546 -61 l 567 -17 b 936 319 788 -8 936 115 l 936 936 l 885 936 z m 794 326 b 539 117 794 200 689 117 b 288 328 393 117 288 204 l 288 936 l 236 936 l 236 328 b 540 67 236 174 361 67 b 846 326 725 67 846 168 l 846 936 l 794 936 z "},"Ẁ":{"ha":1306,"x_min":0,"x_max":0,"o":"m 976 -7 l 1231 936 l 1174 936 l 935 43 l 875 43 l 653 847 l 425 43 l 368 43 l 129 936 l 75 936 l 328 -7 l 468 -7 l 651 682 l 833 -7 z m 708 936 l 617 1057 l 514 1057 l 608 936 l 586 936 l 400 236 l 233 936 l 179 936 l 396 85 l 625 886 l 683 886 l 904 85 l 1131 936 l 1076 936 l 901 238 l 725 936 z "},"Ẃ":{"ha":1306,"x_min":0,"x_max":0,"o":"m 976 -7 l 1231 936 l 1174 936 l 935 43 l 875 43 l 653 847 l 425 43 l 368 43 l 129 936 l 75 936 l 328 -7 l 468 -7 l 651 682 l 833 -7 z m 697 936 l 792 1057 l 689 1057 l 597 936 l 586 936 l 400 236 l 233 936 l 179 936 l 396 85 l 625 886 l 683 886 l 904 85 l 1131 936 l 1076 936 l 901 238 l 725 936 z "},"Ŵ":{"ha":1306,"x_min":0,"x_max":0,"o":"m 976 -7 l 1231 936 l 1174 936 l 935 43 l 875 43 l 653 847 l 425 43 l 368 43 l 129 936 l 75 936 l 328 -7 l 468 -7 l 651 682 l 833 -7 z m 803 936 l 697 1057 l 608 1057 l 503 936 l 586 936 l 400 236 l 233 936 l 179 936 l 396 85 l 625 886 l 683 886 l 904 85 l 1131 936 l 1076 936 l 901 238 l 725 936 z m 653 1000 l 703 936 l 603 936 z "},"Ẅ":{"ha":1306,"x_min":0,"x_max":0,"o":"m 976 -7 l 1231 936 l 1174 936 l 935 43 l 875 43 l 653 847 l 425 43 l 368 43 l 129 936 l 75 936 l 328 -7 l 468 -7 l 651 682 l 833 -7 z m 793 936 l 793 1043 l 693 1043 l 693 936 l 613 936 l 613 1043 l 513 1043 l 513 936 l 586 936 l 400 236 l 233 936 l 179 936 l 396 85 l 625 886 l 683 886 l 904 85 l 1131 936 l 1076 936 l 901 238 l 725 936 z "},"Ỳ":{"ha":892,"x_min":0,"x_max":0,"o":"m 425 0 l 425 447 l 100 936 l 36 936 l 374 429 l 374 0 z m 515 0 l 515 429 l 856 936 l 792 936 l 464 447 l 464 0 z m 446 482 l 744 936 l 682 936 l 447 567 l 213 936 l 150 936 z m 543 936 l 451 1057 l 349 1057 l 443 936 z "},"Ý":{"ha":892,"x_min":0,"x_max":0,"o":"m 397 0 l 397 447 l 72 936 l 8 936 l 346 429 l 346 0 z m 488 0 l 488 429 l 828 936 l 764 936 l 436 447 l 436 0 z m 418 482 l 717 936 l 654 936 l 419 567 l 185 936 l 122 936 z m 476 936 l 385 1057 l 282 1057 l 376 936 z "},"Ŷ":{"ha":892,"x_min":0,"x_max":0,"o":"m 425 0 l 425 447 l 100 936 l 36 936 l 374 429 l 374 0 z m 515 0 l 515 429 l 856 936 l 792 936 l 464 447 l 464 0 z m 446 482 l 744 936 l 682 936 l 447 567 l 213 936 l 150 936 z m 596 936 l 490 1057 l 401 1057 l 296 936 l 396 936 l 446 1000 l 496 936 z "},"Ÿ":{"ha":892,"x_min":0,"x_max":0,"o":"m 397 0 l 397 447 l 72 936 l 8 936 l 346 429 l 346 0 z m 488 0 l 488 429 l 828 936 l 764 936 l 436 447 l 436 0 z m 418 482 l 717 936 l 654 936 l 419 567 l 185 936 l 122 936 z m 382 936 l 382 1043 l 282 1043 l 282 936 z m 563 936 l 563 1043 l 463 1043 l 463 936 z "},"Ź":{"ha":861,"x_min":0,"x_max":0,"o":"m 461 936 l 556 1057 l 453 1057 l 361 936 l 129 936 l 129 885 l 707 885 l 707 844 l 197 86 l 785 86 l 785 136 l 293 136 l 758 831 l 758 936 z m 785 0 l 785 50 l 156 50 l 156 89 l 665 850 l 129 850 l 129 800 l 568 800 l 104 106 l 104 0 z "},"Ž":{"ha":861,"x_min":0,"x_max":0,"o":"m 489 936 l 594 1057 l 494 1057 l 444 993 l 394 1057 l 294 1057 l 400 936 l 129 936 l 129 885 l 707 885 l 707 844 l 197 86 l 785 86 l 785 136 l 293 136 l 758 831 l 758 936 z m 785 0 l 785 50 l 156 50 l 156 89 l 665 850 l 129 850 l 129 800 l 568 800 l 104 106 l 104 0 z "},"Ż":{"ha":861,"x_min":0,"x_max":0,"o":"m 496 936 l 496 1043 l 396 1043 l 396 936 l 129 936 l 129 885 l 707 885 l 707 844 l 197 86 l 785 86 l 785 136 l 293 136 l 758 831 l 758 936 z m 785 0 l 785 50 l 156 50 l 156 89 l 665 850 l 129 850 l 129 800 l 568 800 l 104 106 l 104 0 z "},"Ŋ":{"ha":1083,"x_min":0,"x_max":0,"o":"m 938 936 l 888 936 l 888 -25 b 657 -260 888 -137 825 -235 l 669 -308 b 938 -26 853 -286 938 -179 z m 282 0 l 282 682 l 796 28 l 796 3 b 633 -172 794 -100 746 -157 l 647 -226 b 847 -26 790 -208 847 -108 l 846 50 l 232 838 l 232 0 z m 851 936 l 801 936 l 801 253 l 268 936 l 146 936 l 146 0 l 196 0 l 196 886 l 242 886 l 851 107 z "},"Ð":{"ha":1031,"x_min":0,"x_max":0,"o":"m 524 0 b 968 469 818 0 968 213 b 524 936 968 725 828 936 l 146 936 l 146 515 l 14 515 l 14 454 l 146 454 l 146 0 z m 197 50 l 197 886 l 524 886 b 917 469 792 886 917 696 b 524 50 917 242 783 50 z m 517 86 b 874 468 753 86 874 243 b 517 850 874 703 735 850 l 236 850 l 236 86 z m 288 136 l 288 454 l 528 454 l 528 515 l 288 515 l 288 800 l 517 800 b 822 468 704 800 822 671 b 517 136 822 274 719 136 z "},"Þ":{"ha":890,"x_min":0,"x_max":0,"o":"m 499 318 b 724 538 647 318 724 394 b 500 754 724 669 636 754 l 236 754 l 236 318 z m 288 0 l 288 233 l 503 233 b 814 540 700 233 814 350 b 504 839 814 724 689 839 l 288 839 l 288 936 l 236 936 l 236 789 l 504 789 b 764 540 658 789 764 692 b 503 283 764 382 667 283 l 236 283 l 236 0 z m 288 367 l 288 707 l 500 707 b 672 538 606 707 672 639 b 499 367 672 429 614 367 z m 197 0 l 197 936 l 146 936 l 146 0 z "},"a":{"ha":938,"x_min":0,"x_max":0,"o":"m 910 0 l 533 943 l 406 943 l 28 0 l 86 0 l 443 893 l 497 893 l 851 0 z m 806 0 l 685 310 l 251 310 l 128 0 l 185 0 l 285 260 l 649 260 l 749 0 z m 672 340 l 469 856 l 264 340 z m 600 389 l 336 389 l 468 732 z "},"b":{"ha":947,"x_min":0,"x_max":0,"o":"m 517 500 b 710 675 632 500 710 560 b 518 851 710 786 636 851 l 236 851 l 236 500 z m 514 85 b 757 278 676 85 757 142 b 507 468 757 408 657 468 l 236 468 l 236 85 z m 197 50 l 197 886 l 531 886 b 750 681 636 886 750 822 b 599 486 750 579 692 503 b 797 274 708 481 797 399 b 524 50 797 118 669 50 z m 524 0 b 849 274 699 0 849 82 b 706 496 849 393 788 463 b 801 681 764 535 801 597 b 531 936 801 858 663 936 l 146 936 l 146 0 z m 288 132 l 288 421 l 507 421 b 706 278 632 421 706 374 b 514 132 706 178 643 132 z m 288 550 l 288 804 l 518 804 b 658 675 604 804 658 756 b 517 550 658 592 601 550 z "},"c":{"ha":947,"x_min":0,"x_max":0,"o":"m 808 176 b 499 32 717 71 622 32 b 115 467 239 32 115 246 b 496 904 115 690 236 904 b 808 758 640 904 717 864 l 846 792 b 496 954 769 892 658 954 b 63 467 200 954 63 715 b 496 -18 63 221 200 -18 b 846 143 650 -18 760 39 z m 739 239 b 499 117 668 147 597 117 b 211 468 300 117 211 293 b 499 819 211 643 300 819 b 739 697 603 819 682 776 l 779 733 b 499 869 700 835 614 869 b 158 468 264 869 158 668 b 501 67 158 267 269 67 b 779 201 611 67 693 97 z "},"d":{"ha":1031,"x_min":0,"x_max":0,"o":"m 517 86 b 874 468 753 86 874 243 b 517 850 874 703 735 850 l 236 850 l 236 86 z m 197 50 l 197 886 l 524 886 b 917 469 792 886 917 696 b 524 50 917 242 783 50 z m 524 0 b 968 469 818 0 968 213 b 524 936 968 725 828 936 l 146 936 l 146 0 z m 288 136 l 288 800 l 517 800 b 822 468 704 800 822 671 b 517 136 822 274 719 136 z "},"e":{"ha":869,"x_min":0,"x_max":0,"o":"m 753 0 l 753 50 l 196 50 l 196 886 l 725 886 l 725 936 l 144 936 l 144 0 z m 753 86 l 753 136 l 286 136 l 286 418 l 683 418 l 683 467 l 235 467 l 235 86 z m 683 501 l 683 550 l 286 550 l 286 800 l 725 800 l 725 850 l 235 850 l 235 501 z "},"f":{"ha":849,"x_min":0,"x_max":0,"o":"m 714 464 l 714 513 l 288 513 l 288 800 l 756 800 l 756 850 l 236 850 l 236 464 z m 714 381 l 714 429 l 236 429 l 236 0 l 288 0 l 288 381 z m 197 0 l 197 886 l 756 886 l 756 936 l 146 936 l 146 0 z "},"g":{"ha":964,"x_min":0,"x_max":0,"o":"m 717 138 b 543 115 668 122 601 115 b 211 468 318 115 211 256 b 499 819 211 643 300 819 b 739 697 603 819 682 776 l 779 733 b 499 869 700 835 614 869 b 158 468 264 869 158 668 b 543 65 158 225 282 65 b 768 100 615 65 697 75 l 768 388 l 457 388 l 457 339 l 717 339 z m 804 76 b 535 32 724 47 629 32 b 115 467 269 32 115 197 b 496 904 115 690 236 904 b 808 758 640 904 717 864 l 846 792 b 496 954 769 892 658 954 b 63 467 200 954 63 715 b 535 -18 63 165 236 -18 b 856 39 643 -18 754 -1 l 856 471 l 457 471 l 457 422 l 804 422 z "},"h":{"ha":1082,"x_min":0,"x_max":0,"o":"m 846 503 l 846 936 l 794 936 l 794 551 l 288 551 l 288 936 l 236 936 l 236 503 z m 936 0 l 936 936 l 885 936 l 885 0 z m 846 0 l 846 465 l 236 465 l 236 0 l 288 0 l 288 415 l 794 415 l 794 0 z m 197 0 l 197 936 l 146 936 l 146 0 z "},"i":{"ha":432,"x_min":0,"x_max":0,"o":"m 286 0 l 286 936 l 235 936 l 235 0 z m 197 0 l 197 936 l 146 936 l 146 0 z "},"j":{"ha":711,"x_min":0,"x_max":0,"o":"m 514 283 b 304 32 514 125 446 32 b 61 174 192 32 118 76 l 22 142 b 299 -18 94 19 192 -18 b 565 283 472 -18 565 85 l 565 936 l 514 936 z m 424 285 b 297 117 424 174 383 117 b 133 231 224 117 171 157 l 93 199 b 306 67 139 113 204 67 b 475 285 426 67 475 163 l 475 936 l 424 936 z "},"k":{"ha":950,"x_min":0,"x_max":0,"o":"m 197 0 l 197 936 l 146 936 l 146 0 z m 771 0 l 331 479 l 778 936 l 707 936 l 288 504 l 288 936 l 236 936 l 236 0 l 288 0 l 288 450 l 700 0 z m 896 0 l 447 479 l 896 936 l 826 936 l 376 479 l 825 0 z "},"l":{"ha":842,"x_min":0,"x_max":0,"o":"m 765 86 l 765 136 l 288 136 l 288 936 l 236 936 l 236 86 z m 765 0 l 765 50 l 197 50 l 197 936 l 146 936 l 146 0 z "},"m":{"ha":1176,"x_min":0,"x_max":0,"o":"m 940 0 l 940 832 l 613 321 l 565 321 l 232 835 l 232 0 l 282 0 l 282 660 l 536 268 l 636 268 l 889 660 l 889 0 z m 1031 0 l 1031 936 l 904 936 l 589 440 l 271 936 l 146 936 l 146 0 l 196 0 l 196 886 l 243 886 l 589 353 l 929 886 l 979 886 l 979 0 z "},"n":{"ha":1083,"x_min":0,"x_max":0,"o":"m 851 107 l 851 936 l 801 936 l 801 253 l 268 936 l 146 936 l 146 0 l 196 0 l 196 886 l 242 886 z m 938 0 l 938 936 l 888 936 l 888 50 l 846 50 l 232 838 l 232 0 l 282 0 l 282 682 l 818 0 z "},"o":{"ha":1042,"x_min":0,"x_max":0,"o":"m 522 67 b 883 468 778 67 883 269 b 519 869 883 665 775 869 b 158 468 264 869 158 667 b 522 67 158 271 267 67 z m 522 32 b 115 469 249 32 115 240 b 519 904 115 696 247 904 b 926 467 793 904 926 696 b 522 32 926 240 794 32 z m 522 -18 b 979 467 831 -18 979 214 b 519 954 979 722 826 954 b 63 469 211 954 63 722 b 522 -18 63 214 214 -18 z m 522 117 b 211 468 306 117 211 297 b 519 819 211 642 304 819 b 831 468 736 819 831 639 b 522 117 831 294 738 117 z "},"p":{"ha":890,"x_min":0,"x_max":0,"o":"m 499 415 b 724 635 647 415 724 492 b 500 851 724 767 636 851 l 236 851 l 236 415 z m 288 0 l 288 331 l 503 331 b 814 638 700 331 814 447 b 504 936 814 821 689 936 l 146 936 l 146 0 l 197 0 l 197 886 l 504 886 b 764 638 658 886 764 789 b 503 381 764 479 667 381 l 236 381 l 236 0 z m 288 464 l 288 804 l 500 804 b 672 635 606 804 672 736 b 499 464 672 526 614 464 z "},"q":{"ha":1042,"x_min":0,"x_max":0,"o":"m 522 67 b 883 468 778 67 883 269 b 519 869 883 665 775 869 b 158 468 264 869 158 667 b 522 67 158 271 267 67 z m 522 117 b 211 468 306 117 211 297 b 519 819 211 642 304 819 b 831 468 736 819 831 639 b 522 117 831 294 738 117 z m 879 -289 l 651 -1 b 979 467 872 51 979 253 b 519 954 979 722 826 954 b 63 469 211 954 63 722 b 506 -18 63 218 210 -11 l 714 -289 l 775 -289 l 528 32 b 115 469 246 32 115 240 b 519 904 115 696 247 904 b 926 467 793 904 926 696 b 564 33 926 256 813 56 l 819 -289 z "},"r":{"ha":956,"x_min":0,"x_max":0,"o":"m 764 0 l 482 422 l 236 422 l 236 0 l 288 0 l 288 374 l 454 374 l 701 0 z m 490 454 b 707 657 614 454 707 515 b 499 853 707 781 615 853 l 236 853 l 236 454 z m 879 0 l 611 393 b 799 658 718 428 799 513 b 503 936 799 836 665 936 l 146 936 l 146 0 l 197 0 l 197 888 l 503 888 b 747 658 638 888 747 801 b 526 424 747 500 632 435 l 815 0 z m 288 503 l 288 803 l 499 803 b 656 657 588 803 656 749 b 490 503 656 553 586 503 z "},"s":{"ha":913,"x_min":0,"x_max":0,"o":"m 789 789 b 468 954 696 910 596 954 b 160 690 285 954 160 858 b 433 415 160 514 301 461 b 639 240 561 371 639 339 b 461 118 639 169 581 118 b 217 253 357 118 282 167 l 176 215 b 461 68 257 107 356 68 b 690 240 601 68 690 147 b 449 465 690 367 611 411 b 210 690 332 506 210 558 b 468 904 210 815 292 904 b 753 756 567 904 656 879 z m 724 728 b 461 868 644 835 561 868 b 257 704 321 868 257 796 b 486 496 257 585 339 549 b 736 257 619 449 736 399 b 454 32 736 101 597 32 b 144 186 347 32 242 63 l 108 153 b 454 -18 210 29 317 -18 b 788 257 642 -18 788 82 b 504 544 788 446 640 496 b 308 704 390 585 308 613 b 461 818 308 769 350 818 b 688 694 556 818 622 778 z "},"t":{"ha":875,"x_min":0,"x_max":0,"o":"m 418 0 l 418 850 l 42 850 l 42 800 l 367 800 l 367 0 z m 508 0 l 508 800 l 833 800 l 833 850 l 457 850 l 457 0 z m 833 886 l 833 936 l 42 936 l 42 886 z "},"u":{"ha":1082,"x_min":0,"x_max":0,"o":"m 885 319 b 540 32 885 142 744 32 b 197 319 343 32 197 143 l 197 936 l 146 936 l 146 319 b 540 -18 146 108 313 -18 b 936 319 775 -18 936 107 l 936 936 l 885 936 z m 794 326 b 539 117 794 200 689 117 b 288 328 393 117 288 204 l 288 936 l 236 936 l 236 328 b 540 67 236 174 361 67 b 846 326 725 67 846 168 l 846 936 l 794 936 z "},"v":{"ha":938,"x_min":0,"x_max":0,"o":"m 532 -7 l 910 936 l 851 936 l 494 43 l 440 43 l 86 936 l 28 936 l 404 -7 z m 468 81 l 810 936 l 753 936 l 469 204 l 189 936 l 132 936 z "},"w":{"ha":1306,"x_min":0,"x_max":0,"o":"m 976 -7 l 1231 936 l 1174 936 l 935 43 l 875 43 l 653 847 l 425 43 l 368 43 l 129 936 l 75 936 l 328 -7 l 468 -7 l 651 682 l 833 -7 z m 904 85 l 1131 936 l 1076 936 l 901 238 l 725 936 l 586 936 l 400 236 l 233 936 l 179 936 l 396 85 l 625 886 l 683 886 z "},"x":{"ha":947,"x_min":0,"x_max":0,"o":"m 122 0 l 444 472 l 126 936 l 63 936 l 381 472 l 60 0 z m 776 0 l 472 447 l 168 0 l 232 0 l 472 363 l 711 0 z m 889 0 l 567 471 l 886 936 l 822 936 l 503 471 l 826 0 z m 476 496 l 778 936 l 713 936 l 476 579 l 240 936 l 176 936 z "},"y":{"ha":892,"x_min":0,"x_max":0,"o":"m 425 0 l 425 447 l 100 936 l 36 936 l 374 429 l 374 0 z m 515 0 l 515 429 l 856 936 l 792 936 l 464 447 l 464 0 z m 446 482 l 744 936 l 682 936 l 447 567 l 213 936 l 150 936 z "},"z":{"ha":861,"x_min":0,"x_max":0,"o":"m 785 0 l 785 50 l 156 50 l 156 89 l 665 850 l 129 850 l 129 800 l 568 800 l 104 106 l 104 0 z m 785 86 l 785 136 l 293 136 l 758 831 l 758 936 l 129 936 l 129 885 l 707 885 l 707 844 l 197 86 z "},"à":{"ha":938,"x_min":0,"x_max":0,"o":"m 910 0 l 533 943 l 519 943 l 433 1057 l 331 1057 l 419 943 l 406 943 l 28 0 l 86 0 l 443 893 l 497 893 l 851 0 z m 672 340 l 469 856 l 264 340 z m 806 0 l 685 310 l 251 310 l 128 0 l 185 0 l 285 260 l 649 260 l 749 0 z m 600 389 l 336 389 l 468 732 z "},"á":{"ha":938,"x_min":0,"x_max":0,"o":"m 910 0 l 533 943 l 519 943 l 608 1057 l 506 1057 l 419 943 l 406 943 l 28 0 l 86 0 l 443 893 l 497 893 l 851 0 z m 672 340 l 469 856 l 264 340 z m 806 0 l 685 310 l 251 310 l 128 0 l 185 0 l 285 260 l 649 260 l 749 0 z m 600 389 l 336 389 l 468 732 z "},"â":{"ha":938,"x_min":0,"x_max":0,"o":"m 619 936 l 514 1057 l 425 1057 l 319 936 l 403 936 l 28 0 l 86 0 l 443 893 l 497 893 l 851 0 l 910 0 l 536 936 z m 672 340 l 469 856 l 264 340 z m 806 0 l 685 310 l 251 310 l 128 0 l 185 0 l 285 260 l 649 260 l 749 0 z m 600 389 l 336 389 l 468 732 z m 469 1000 l 514 943 l 425 943 z "},"ã":{"ha":938,"x_min":0,"x_max":0,"o":"m 564 996 l 471 1040 b 390 1063 442 1054 418 1063 b 293 936 318 1063 299 997 l 368 936 l 376 997 l 469 953 b 490 943 476 949 483 946 l 406 943 l 28 0 l 86 0 l 443 893 l 497 893 l 851 0 l 910 0 l 538 931 l 550 931 b 647 1057 622 931 642 996 l 572 1057 z m 672 340 l 469 856 l 264 340 z m 806 0 l 685 310 l 251 310 l 128 0 l 185 0 l 285 260 l 649 260 l 749 0 z m 600 389 l 336 389 l 468 732 z "},"ä":{"ha":938,"x_min":0,"x_max":0,"o":"m 608 936 l 608 1043 l 508 1043 l 508 943 l 428 943 l 428 1043 l 328 1043 l 328 936 l 403 936 l 28 0 l 86 0 l 443 893 l 497 893 l 851 0 l 910 0 l 536 936 z m 672 340 l 469 856 l 264 340 z m 806 0 l 685 310 l 251 310 l 128 0 l 185 0 l 285 260 l 649 260 l 749 0 z m 600 389 l 336 389 l 468 732 z "},"ā":{"ha":938,"x_min":0,"x_max":0,"o":"m 638 936 l 638 1013 l 301 1013 l 301 936 l 403 936 l 28 0 l 86 0 l 443 893 l 497 893 l 851 0 l 910 0 l 536 936 z m 672 340 l 469 856 l 264 340 z m 806 0 l 685 310 l 251 310 l 128 0 l 185 0 l 285 260 l 649 260 l 749 0 z m 600 389 l 336 389 l 468 732 z "},"ă":{"ha":938,"x_min":0,"x_max":0,"o":"m 574 1057 b 469 996 569 1014 532 996 b 365 1057 406 996 369 1014 l 296 1057 b 403 938 299 989 339 951 l 28 0 l 86 0 l 443 893 l 497 893 l 851 0 l 910 0 l 535 938 b 643 1057 600 951 639 989 z m 672 340 l 469 856 l 264 340 z m 806 0 l 685 310 l 251 310 l 128 0 l 185 0 l 285 260 l 649 260 l 749 0 z m 600 389 l 336 389 l 468 732 z "},"å":{"ha":938,"x_min":0,"x_max":0,"o":"m 581 1025 b 467 1118 581 1085 538 1118 b 353 1025 396 1118 353 1086 b 406 943 353 985 372 957 l 28 0 l 86 0 l 443 893 l 497 893 l 851 0 l 910 0 l 533 943 l 529 943 b 581 1025 561 957 581 985 z m 672 340 l 469 856 l 264 340 z m 806 0 l 685 310 l 251 310 l 128 0 l 185 0 l 285 260 l 649 260 l 749 0 z m 600 389 l 336 389 l 468 732 z m 517 1025 b 467 985 517 1000 501 985 b 418 1025 433 985 418 1003 b 467 1067 418 1049 433 1067 b 517 1025 501 1067 517 1049 z "},"ǻ":{"ha":938,"x_min":0,"x_max":0,"o":"m 583 1025 b 522 1110 583 1068 561 1097 l 611 1224 l 508 1224 l 424 1113 b 356 1025 381 1101 356 1071 b 407 943 356 985 374 957 l 406 943 l 28 0 l 86 0 l 443 893 l 497 893 l 851 0 l 910 0 l 533 943 l 532 943 b 583 1025 564 957 583 985 z m 672 340 l 469 856 l 264 340 z m 806 0 l 685 310 l 251 310 l 128 0 l 185 0 l 285 260 l 649 260 l 749 0 z m 600 389 l 336 389 l 468 732 z m 519 1025 b 469 985 519 1000 504 985 b 421 1025 436 985 421 1003 b 469 1067 421 1049 436 1067 b 519 1025 504 1067 519 1049 z "},"ą":{"ha":938,"x_min":0,"x_max":0,"o":"m 806 0 l 685 310 l 251 310 l 128 0 l 185 0 l 285 260 l 649 260 l 749 0 l 776 0 b 756 -54 764 -15 756 -35 b 849 -131 756 -100 786 -131 b 901 -125 869 -131 883 -129 l 894 -67 l 826 -61 l 857 0 l 910 0 l 533 943 l 406 943 l 28 0 l 86 0 l 443 893 l 497 893 l 851 0 z m 672 340 l 469 856 l 264 340 z m 600 389 l 336 389 l 468 732 z "},"æ":{"ha":1350,"x_min":0,"x_max":0,"o":"m 1206 886 l 1206 936 l 586 936 l 14 0 l 76 0 l 613 886 z m 1233 86 l 1233 136 l 808 136 l 808 357 l 1164 357 l 1164 406 l 757 406 l 757 86 z m 1164 440 l 1164 489 l 808 489 l 808 800 l 1206 800 l 1206 850 l 757 850 l 757 440 z m 667 486 l 468 486 l 653 800 l 667 800 z m 1233 0 l 1233 50 l 718 50 l 718 407 l 367 407 l 122 0 l 183 0 l 393 357 l 667 357 l 667 0 z m 718 438 l 718 850 l 633 850 l 386 438 z "},"ǽ":{"ha":1350,"x_min":0,"x_max":0,"o":"m 794 936 l 889 1057 l 786 1057 l 694 936 l 586 936 l 14 0 l 76 0 l 613 886 l 1206 886 l 1206 936 z m 718 438 l 718 850 l 633 850 l 386 438 z m 1233 0 l 1233 50 l 718 50 l 718 407 l 367 407 l 122 0 l 183 0 l 393 357 l 667 357 l 667 0 z m 1164 440 l 1164 489 l 808 489 l 808 800 l 1206 800 l 1206 850 l 757 850 l 757 440 z m 1233 86 l 1233 136 l 808 136 l 808 357 l 1164 357 l 1164 406 l 757 406 l 757 86 z m 667 486 l 468 486 l 653 800 l 667 800 z "},"ć":{"ha":947,"x_min":0,"x_max":0,"o":"m 808 176 b 499 32 717 71 622 32 b 115 467 239 32 115 246 b 496 904 115 690 236 904 b 808 758 640 904 717 864 l 846 792 b 529 953 775 885 674 944 l 611 1057 l 508 1057 l 426 949 b 63 467 178 914 63 694 b 496 -18 63 221 200 -18 b 846 143 650 -18 760 39 z m 739 239 b 499 117 668 147 597 117 b 211 468 300 117 211 293 b 499 819 211 643 300 819 b 739 697 603 819 682 776 l 779 733 b 499 869 700 835 614 869 b 158 468 264 869 158 668 b 501 67 158 267 269 67 b 779 201 611 67 693 97 z "},"ĉ":{"ha":947,"x_min":0,"x_max":0,"o":"m 650 936 l 544 1057 l 456 1057 l 350 936 l 364 936 b 63 467 158 876 63 675 b 496 -18 63 221 200 -18 b 846 143 650 -18 760 39 l 808 176 b 499 32 717 71 622 32 b 115 467 239 32 115 246 b 496 904 115 690 236 904 b 808 758 640 904 717 864 l 846 792 b 636 936 793 860 725 910 z m 739 239 b 499 117 668 147 597 117 b 211 468 300 117 211 293 b 499 819 211 643 300 819 b 739 697 603 819 682 776 l 779 733 b 499 869 700 835 614 869 b 158 468 264 869 158 668 b 501 67 158 267 269 67 b 779 201 611 67 693 97 z m 496 954 b 463 953 485 954 474 953 l 500 1000 l 538 953 b 496 954 524 953 510 954 z "},"č":{"ha":947,"x_min":0,"x_max":0,"o":"m 808 176 b 499 32 717 71 622 32 b 115 467 239 32 115 246 b 496 904 115 690 236 904 b 808 758 640 904 717 864 l 846 792 b 557 950 779 878 686 936 l 650 1057 l 550 1057 l 500 993 l 450 1057 l 350 1057 l 442 951 b 63 467 183 924 63 700 b 496 -18 63 221 200 -18 b 846 143 650 -18 760 39 z m 739 239 b 499 117 668 147 597 117 b 211 468 300 117 211 293 b 499 819 211 643 300 819 b 739 697 603 819 682 776 l 779 733 b 499 869 700 835 614 869 b 158 468 264 869 158 668 b 501 67 158 267 269 67 b 779 201 611 67 693 97 z "},"ċ":{"ha":947,"x_min":0,"x_max":0,"o":"m 808 176 b 499 32 717 71 622 32 b 115 467 239 32 115 246 b 496 904 115 690 236 904 b 808 758 640 904 717 864 l 846 792 b 553 951 778 879 685 938 l 553 1043 l 453 1043 l 453 951 b 63 467 186 929 63 703 b 496 -18 63 221 200 -18 b 846 143 650 -18 760 39 z m 739 239 b 499 117 668 147 597 117 b 211 468 300 117 211 293 b 499 819 211 643 300 819 b 739 697 603 819 682 776 l 779 733 b 499 869 700 835 614 869 b 158 468 264 869 158 668 b 501 67 158 267 269 67 b 779 201 611 67 693 97 z "},"ç":{"ha":947,"x_min":0,"x_max":0,"o":"m 469 -121 l 549 -15 b 846 143 675 -4 769 51 l 808 176 b 499 32 717 71 622 32 b 115 467 239 32 115 246 b 496 904 115 690 236 904 b 808 758 640 904 717 864 l 846 792 b 496 954 769 892 658 954 b 63 467 200 954 63 715 b 449 -15 63 233 185 8 l 367 -121 z m 739 239 b 499 117 668 147 597 117 b 211 468 300 117 211 293 b 499 819 211 643 300 819 b 739 697 603 819 682 776 l 779 733 b 499 869 700 835 614 869 b 158 468 264 869 158 668 b 501 67 158 267 269 67 b 779 201 611 67 693 97 z "},"ď":{"ha":1031,"x_min":0,"x_max":0,"o":"m 531 936 l 636 1057 l 536 1057 l 486 993 l 436 1057 l 336 1057 l 442 936 l 146 936 l 146 0 l 524 0 b 968 469 818 0 968 213 b 531 936 968 722 829 932 z m 197 50 l 197 886 l 524 886 b 917 469 792 886 917 696 b 524 50 917 242 783 50 z m 517 86 b 874 468 753 86 874 243 b 517 850 874 703 735 850 l 236 850 l 236 86 z m 288 136 l 288 800 l 517 800 b 822 468 704 800 822 671 b 517 136 822 274 719 136 z "},"đ":{"ha":1031,"x_min":0,"x_max":0,"o":"m 524 0 b 968 469 818 0 968 213 b 524 936 968 725 828 936 l 146 936 l 146 515 l 14 515 l 14 454 l 146 454 l 146 0 z m 197 50 l 197 886 l 524 886 b 917 469 792 886 917 696 b 524 50 917 242 783 50 z m 517 86 b 874 468 753 86 874 243 b 517 850 874 703 735 850 l 236 850 l 236 86 z m 288 136 l 288 454 l 528 454 l 528 515 l 288 515 l 288 800 l 517 800 b 822 468 704 800 822 671 b 517 136 822 274 719 136 z "},"è":{"ha":869,"x_min":0,"x_max":0,"o":"m 497 936 l 406 1057 l 303 1057 l 397 936 l 144 936 l 144 0 l 753 0 l 753 50 l 196 50 l 196 886 l 725 886 l 725 936 z m 753 86 l 753 136 l 286 136 l 286 418 l 683 418 l 683 467 l 235 467 l 235 86 z m 683 501 l 683 550 l 286 550 l 286 800 l 725 800 l 725 850 l 235 850 l 235 501 z "},"é":{"ha":869,"x_min":0,"x_max":0,"o":"m 486 936 l 581 1057 l 478 1057 l 386 936 l 144 936 l 144 0 l 753 0 l 753 50 l 196 50 l 196 886 l 725 886 l 725 936 z m 753 86 l 753 136 l 286 136 l 286 418 l 683 418 l 683 467 l 235 467 l 235 86 z m 683 501 l 683 550 l 286 550 l 286 800 l 725 800 l 725 850 l 235 850 l 235 501 z "},"ê":{"ha":869,"x_min":0,"x_max":0,"o":"m 586 936 l 481 1057 l 392 1057 l 286 936 l 144 936 l 144 0 l 753 0 l 753 50 l 196 50 l 196 886 l 725 886 l 725 936 z m 753 86 l 753 136 l 286 136 l 286 418 l 683 418 l 683 467 l 235 467 l 235 86 z m 683 501 l 683 550 l 286 550 l 286 800 l 725 800 l 725 850 l 235 850 l 235 501 z m 436 1000 l 486 936 l 386 936 z "},"ě":{"ha":869,"x_min":0,"x_max":0,"o":"m 486 936 l 592 1057 l 492 1057 l 442 993 l 392 1057 l 292 1057 l 397 936 l 144 936 l 144 0 l 753 0 l 753 50 l 196 50 l 196 886 l 725 886 l 725 936 z m 753 86 l 753 136 l 286 136 l 286 418 l 683 418 l 683 467 l 235 467 l 235 86 z m 683 501 l 683 550 l 286 550 l 286 800 l 725 800 l 725 850 l 235 850 l 235 501 z "},"ë":{"ha":869,"x_min":0,"x_max":0,"o":"m 583 936 l 583 1043 l 483 1043 l 483 936 l 403 936 l 403 1043 l 303 1043 l 303 936 l 144 936 l 144 0 l 753 0 l 753 50 l 196 50 l 196 886 l 725 886 l 725 936 z m 753 86 l 753 136 l 286 136 l 286 418 l 683 418 l 683 467 l 235 467 l 235 86 z m 683 501 l 683 550 l 286 550 l 286 800 l 725 800 l 725 850 l 235 850 l 235 501 z "},"ē":{"ha":869,"x_min":0,"x_max":0,"o":"m 613 936 l 613 1013 l 276 1013 l 276 936 l 144 936 l 144 0 l 753 0 l 753 50 l 196 50 l 196 886 l 725 886 l 725 936 z m 753 86 l 753 136 l 286 136 l 286 418 l 683 418 l 683 467 l 235 467 l 235 86 z m 683 501 l 683 550 l 286 550 l 286 800 l 725 800 l 725 850 l 235 850 l 235 501 z "},"ĕ":{"ha":869,"x_min":0,"x_max":0,"o":"m 553 1057 b 449 996 549 1014 511 996 b 344 1057 385 996 349 1014 l 275 1057 b 388 936 278 988 319 949 l 144 936 l 144 0 l 753 0 l 753 50 l 196 50 l 196 886 l 725 886 l 725 936 l 508 936 b 622 1057 576 949 618 988 z m 753 86 l 753 136 l 286 136 l 286 418 l 683 418 l 683 467 l 235 467 l 235 86 z m 683 501 l 683 550 l 286 550 l 286 800 l 725 800 l 725 850 l 235 850 l 235 501 z "},"ė":{"ha":869,"x_min":0,"x_max":0,"o":"m 492 936 l 492 1043 l 392 1043 l 392 936 l 144 936 l 144 0 l 753 0 l 753 50 l 196 50 l 196 886 l 725 886 l 725 936 z m 753 86 l 753 136 l 286 136 l 286 418 l 683 418 l 683 467 l 235 467 l 235 86 z m 683 501 l 683 550 l 286 550 l 286 800 l 725 800 l 725 850 l 235 850 l 235 501 z "},"ę":{"ha":869,"x_min":0,"x_max":0,"o":"m 626 0 b 606 -54 614 -15 606 -35 b 699 -131 606 -100 636 -131 b 751 -125 719 -131 733 -129 l 744 -67 l 676 -61 l 707 0 l 753 0 l 753 50 l 196 50 l 196 886 l 725 886 l 725 936 l 144 936 l 144 0 z m 753 86 l 753 136 l 286 136 l 286 418 l 683 418 l 683 467 l 235 467 l 235 86 z m 683 501 l 683 550 l 286 550 l 286 800 l 725 800 l 725 850 l 235 850 l 235 501 z "},"ĝ":{"ha":964,"x_min":0,"x_max":0,"o":"m 650 936 l 544 1057 l 456 1057 l 350 936 l 364 936 b 63 467 158 876 63 675 b 535 -18 63 165 236 -18 b 856 39 643 -18 754 -1 l 856 471 l 457 471 l 457 422 l 804 422 l 804 76 b 535 32 724 47 629 32 b 115 467 269 32 115 197 b 496 904 115 690 236 904 b 808 758 640 904 717 864 l 846 792 b 636 936 793 860 725 910 z m 717 138 b 543 115 668 122 601 115 b 211 468 318 115 211 256 b 499 819 211 643 300 819 b 739 697 603 819 682 776 l 779 733 b 499 869 700 835 614 869 b 158 468 264 869 158 668 b 543 65 158 225 282 65 b 768 100 615 65 697 75 l 768 388 l 457 388 l 457 339 l 717 339 z m 496 954 b 463 953 485 954 474 953 l 500 1000 l 538 953 b 496 954 524 953 510 954 z "},"ğ":{"ha":964,"x_min":0,"x_max":0,"o":"m 621 1057 b 517 996 617 1014 579 996 b 413 1057 453 996 417 1014 l 343 1057 b 415 947 346 1003 371 967 b 63 467 175 908 63 692 b 535 -18 63 165 236 -18 b 856 39 643 -18 754 -1 l 856 471 l 457 471 l 457 422 l 804 422 l 804 76 b 535 32 724 47 629 32 b 115 467 269 32 115 197 b 496 904 115 690 236 904 b 808 758 640 904 717 864 l 846 792 b 606 943 788 867 710 921 b 690 1057 657 961 688 999 z m 717 138 b 543 115 668 122 601 115 b 211 468 318 115 211 256 b 499 819 211 643 300 819 b 739 697 603 819 682 776 l 779 733 b 499 869 700 835 614 869 b 158 468 264 869 158 668 b 543 65 158 225 282 65 b 768 100 615 65 697 75 l 768 388 l 457 388 l 457 339 l 717 339 z "},"ġ":{"ha":964,"x_min":0,"x_max":0,"o":"m 804 76 b 535 32 724 47 629 32 b 115 467 269 32 115 197 b 496 904 115 690 236 904 b 808 758 640 904 717 864 l 846 792 b 554 951 779 879 685 938 l 554 1043 l 454 1043 l 454 951 b 63 467 188 931 63 703 b 535 -18 63 165 236 -18 b 856 39 643 -18 754 -1 l 856 471 l 457 471 l 457 422 l 804 422 z m 717 138 b 543 115 668 122 601 115 b 211 468 318 115 211 256 b 499 819 211 643 300 819 b 739 697 603 819 682 776 l 779 733 b 499 869 700 835 614 869 b 158 468 264 869 158 668 b 543 65 158 225 282 65 b 768 100 615 65 697 75 l 768 388 l 457 388 l 457 339 l 717 339 z "},"ģ":{"ha":964,"x_min":0,"x_max":0,"o":"m 717 138 b 543 115 668 122 601 115 b 211 468 318 115 211 256 b 499 819 211 643 300 819 b 739 697 603 819 682 776 l 779 733 b 499 869 700 835 614 869 b 158 468 264 869 158 668 b 543 65 158 225 282 65 b 768 100 615 65 697 75 l 768 388 l 457 388 l 457 339 l 717 339 z m 804 76 b 535 32 724 47 629 32 b 115 467 269 32 115 197 b 496 904 115 690 236 904 b 808 758 640 904 717 864 l 846 792 b 496 954 769 892 658 954 b 63 467 200 954 63 715 b 535 -18 63 165 236 -18 b 856 39 643 -18 754 -1 l 856 471 l 457 471 l 457 422 l 804 422 z m 485 -121 l 544 -43 l 443 -43 l 382 -121 z "},"ĥ":{"ha":1082,"x_min":0,"x_max":0,"o":"m 846 503 l 846 936 l 794 936 l 794 551 l 288 551 l 288 936 l 236 936 l 236 503 z m 936 0 l 936 936 l 885 936 l 885 0 z m 846 0 l 846 465 l 236 465 l 236 0 l 288 0 l 288 415 l 794 415 l 794 0 z m 197 0 l 197 936 l 146 936 l 146 0 z m 690 936 l 585 1057 l 496 1057 l 390 936 l 490 936 l 540 1000 l 590 936 z "},"ħ":{"ha":1082,"x_min":0,"x_max":0,"o":"m 846 503 l 846 936 l 794 936 l 794 736 l 288 736 l 288 936 l 236 936 l 236 503 z m 846 0 l 846 465 l 236 465 l 236 0 l 288 0 l 288 415 l 794 415 l 794 0 z m 288 551 l 288 675 l 794 675 l 794 551 z m 936 0 l 936 675 l 1068 675 l 1068 736 l 936 736 l 936 936 l 885 936 l 885 0 z m 197 0 l 197 936 l 146 936 l 146 736 l 14 736 l 14 675 l 146 675 l 146 0 z "},"ì":{"ha":432,"x_min":0,"x_max":0,"o":"m 290 936 l 199 1057 l 96 1057 l 190 936 l 168 936 l 168 0 l 219 0 l 219 936 l 257 936 l 257 0 l 308 0 l 308 936 z "},"í":{"ha":432,"x_min":0,"x_max":0,"o":"m 288 936 l 382 1057 l 279 1057 l 188 936 l 168 936 l 168 0 l 219 0 l 219 936 l 257 936 l 257 0 l 308 0 l 308 936 z "},"î":{"ha":432,"x_min":0,"x_max":0,"o":"m 388 936 l 282 1057 l 193 1057 l 88 936 l 168 936 l 168 0 l 219 0 l 219 936 l 188 936 l 238 1000 l 288 936 l 257 936 l 257 0 l 308 0 l 308 936 z "},"ĩ":{"ha":432,"x_min":0,"x_max":0,"o":"m 286 0 l 286 931 l 296 931 b 393 1057 368 931 388 996 l 318 1057 l 310 996 l 217 1040 b 136 1063 188 1054 164 1063 b 39 936 64 1063 44 997 l 114 936 l 122 997 l 215 953 b 256 936 229 946 242 940 l 235 936 l 235 0 z m 197 0 l 197 936 l 146 936 l 146 0 z "},"ï":{"ha":432,"x_min":0,"x_max":0,"o":"m 379 936 l 379 1043 l 279 1043 l 279 936 l 257 936 l 257 0 l 308 0 l 308 936 z m 199 936 l 199 1043 l 99 1043 l 99 936 l 168 936 l 168 0 l 219 0 l 219 936 z "},"ī":{"ha":432,"x_min":0,"x_max":0,"o":"m 383 936 l 383 1013 l 47 1013 l 47 936 l 146 936 l 146 0 l 197 0 l 197 936 l 235 936 l 235 0 l 286 0 l 286 936 z "},"ĭ":{"ha":432,"x_min":0,"x_max":0,"o":"m 319 1057 b 215 996 315 1014 278 996 b 111 1057 151 996 115 1014 l 42 1057 b 154 936 44 988 86 949 l 146 936 l 146 0 l 197 0 l 197 931 l 215 931 l 235 931 l 235 0 l 286 0 l 286 936 l 275 936 b 389 1057 343 949 385 988 z "},"į":{"ha":432,"x_min":0,"x_max":0,"o":"m 197 0 l 197 936 l 146 936 l 146 0 l 175 0 b 154 -54 163 -15 154 -35 b 247 -131 154 -100 185 -131 b 300 -125 268 -131 282 -129 l 293 -67 l 225 -61 l 256 0 l 286 0 l 286 936 l 235 936 l 235 0 z "},"ı":{"ha":432,"x_min":0,"x_max":0,"o":"m 286 0 l 286 936 l 235 936 l 235 0 z m 197 0 l 197 936 l 146 936 l 146 0 z "},"":{"ha":432,"x_min":0,"x_max":0,"o":"m 286 0 l 286 936 l 235 936 l 235 0 z m 197 0 l 197 936 l 146 936 l 146 0 z "},"ĳ":{"ha":1143,"x_min":0,"x_max":0,"o":"m 286 0 l 286 936 l 235 936 l 235 0 z m 197 0 l 197 936 l 146 936 l 146 0 z m 946 283 b 736 32 946 125 878 32 b 493 174 624 32 550 76 l 454 142 b 731 -18 526 19 624 -18 b 997 283 904 -18 997 85 l 997 936 l 946 936 z m 856 285 b 729 117 856 174 815 117 b 565 231 656 117 603 157 l 525 199 b 738 67 571 113 636 67 b 907 285 858 67 907 163 l 907 936 l 856 936 z "},"ĵ":{"ha":711,"x_min":0,"x_max":0,"o":"m 644 936 l 539 1057 l 450 1057 l 344 936 l 424 936 l 424 285 b 297 117 424 174 383 117 b 133 231 224 117 171 157 l 93 199 b 306 67 139 113 204 67 b 475 285 426 67 475 163 l 475 936 l 444 936 l 494 1000 l 544 936 l 514 936 l 514 283 b 304 32 514 125 446 32 b 61 174 192 32 118 76 l 22 142 b 299 -18 94 19 192 -18 b 565 283 472 -18 565 85 l 565 936 z "},"ķ":{"ha":950,"x_min":0,"x_max":0,"o":"m 197 0 l 197 936 l 146 936 l 146 0 z m 771 0 l 331 479 l 778 936 l 707 936 l 288 504 l 288 936 l 236 936 l 236 0 l 288 0 l 288 450 l 700 0 z m 896 0 l 447 479 l 896 936 l 826 936 l 376 479 l 825 0 z m 450 -121 l 510 -43 l 408 -43 l 347 -121 z "},"ĺ":{"ha":842,"x_min":0,"x_max":0,"o":"m 264 936 l 358 1057 l 256 1057 l 164 936 l 146 936 l 146 0 l 765 0 l 765 50 l 197 50 l 197 936 l 236 936 l 236 86 l 765 86 l 765 136 l 288 136 l 288 936 z "},"ľ":{"ha":842,"x_min":0,"x_max":0,"o":"m 765 86 l 765 136 l 288 136 l 288 936 l 236 936 l 236 86 z m 765 0 l 765 50 l 197 50 l 197 936 l 146 936 l 146 0 z m 489 772 l 531 936 l 444 936 l 411 772 z "},"ļ":{"ha":842,"x_min":0,"x_max":0,"o":"m 765 86 l 765 136 l 288 136 l 288 936 l 236 936 l 236 86 z m 765 0 l 765 50 l 197 50 l 197 936 l 146 936 l 146 0 z m 438 -121 l 497 -43 l 396 -43 l 335 -121 z "},"ł":{"ha":842,"x_min":0,"x_max":0,"o":"m 765 86 l 765 136 l 288 136 l 288 425 l 610 601 l 610 671 l 288 496 l 288 936 l 236 936 l 236 86 z m 765 0 l 765 50 l 197 50 l 197 936 l 146 936 l 146 419 l 42 363 l 42 292 l 146 349 l 146 0 z "},"ŀ":{"ha":842,"x_min":0,"x_max":0,"o":"m 765 86 l 765 136 l 288 136 l 288 936 l 236 936 l 236 86 z m 765 0 l 765 50 l 197 50 l 197 936 l 146 936 l 146 0 z m 704 435 l 704 542 l 604 542 l 604 435 z "},"ń":{"ha":1083,"x_min":0,"x_max":0,"o":"m 851 107 l 851 936 l 801 936 l 801 253 l 268 936 l 146 936 l 146 0 l 196 0 l 196 886 l 242 886 z m 938 0 l 938 936 l 888 936 l 888 50 l 846 50 l 232 838 l 232 0 l 282 0 l 282 682 l 818 0 z m 544 936 l 639 1057 l 536 1057 l 444 936 z "},"ň":{"ha":1083,"x_min":0,"x_max":0,"o":"m 851 107 l 851 936 l 801 936 l 801 253 l 268 936 l 146 936 l 146 0 l 196 0 l 196 886 l 242 886 z m 938 0 l 938 936 l 888 936 l 888 50 l 846 50 l 232 838 l 232 0 l 282 0 l 282 682 l 818 0 z m 586 936 l 692 1057 l 592 1057 l 542 993 l 492 1057 l 392 1057 l 497 936 z "},"ñ":{"ha":1083,"x_min":0,"x_max":0,"o":"m 851 107 l 851 936 l 801 936 l 801 253 l 268 936 l 146 936 l 146 0 l 196 0 l 196 886 l 242 886 z m 938 0 l 938 936 l 888 936 l 888 50 l 846 50 l 232 838 l 232 0 l 282 0 l 282 682 l 818 0 z m 654 996 l 561 1040 b 481 1063 532 1054 508 1063 b 383 936 408 1063 389 997 l 458 936 l 467 997 l 560 953 b 640 931 588 939 611 931 b 738 1057 713 931 732 996 l 663 1057 z "},"ņ":{"ha":1083,"x_min":0,"x_max":0,"o":"m 851 107 l 851 936 l 801 936 l 801 253 l 268 936 l 146 936 l 146 0 l 196 0 l 196 886 l 242 886 z m 938 0 l 938 936 l 888 936 l 888 50 l 846 50 l 232 838 l 232 0 l 282 0 l 282 682 l 818 0 z m 521 -121 l 581 -43 l 479 -43 l 418 -121 z "},"ò":{"ha":1042,"x_min":0,"x_max":0,"o":"m 522 -18 b 979 467 831 -18 979 214 b 561 953 979 710 840 932 l 482 1057 l 379 1057 l 461 951 b 63 469 192 924 63 706 b 522 -18 63 214 214 -18 z m 522 32 b 115 469 249 32 115 240 b 519 904 115 696 247 904 b 926 467 793 904 926 696 b 522 32 926 240 794 32 z m 522 67 b 883 468 778 67 883 269 b 519 869 883 665 775 869 b 158 468 264 869 158 667 b 522 67 158 271 267 67 z m 522 117 b 211 468 306 117 211 297 b 519 819 211 642 304 819 b 831 468 736 819 831 639 b 522 117 831 294 738 117 z "},"ó":{"ha":1042,"x_min":0,"x_max":0,"o":"m 522 -18 b 979 467 831 -18 979 214 b 569 951 979 708 843 928 l 651 1057 l 549 1057 l 468 951 b 63 469 194 928 63 707 b 522 -18 63 214 214 -18 z m 522 32 b 115 469 249 32 115 240 b 519 904 115 696 247 904 b 926 467 793 904 926 696 b 522 32 926 240 794 32 z m 522 67 b 883 468 778 67 883 269 b 519 869 883 665 775 869 b 158 468 264 869 158 667 b 522 67 158 271 267 67 z m 522 117 b 211 468 306 117 211 297 b 519 819 211 642 304 819 b 831 468 736 819 831 639 b 522 117 831 294 738 117 z "},"ô":{"ha":1042,"x_min":0,"x_max":0,"o":"m 671 936 l 565 1057 l 476 1057 l 371 936 l 381 936 b 63 469 167 876 63 681 b 522 -18 63 214 214 -18 b 979 467 831 -18 979 214 b 658 936 979 681 872 876 z m 522 32 b 115 469 249 32 115 240 b 519 904 115 696 247 904 b 926 467 793 904 926 696 b 522 32 926 240 794 32 z m 522 67 b 883 468 778 67 883 269 b 519 869 883 665 775 869 b 158 468 264 869 158 667 b 522 67 158 271 267 67 z m 522 117 b 211 468 306 117 211 297 b 519 819 211 642 304 819 b 831 468 736 819 831 639 b 522 117 831 294 738 117 z m 519 954 b 483 953 507 954 496 953 l 521 1000 l 557 953 b 519 954 544 953 532 954 z "},"õ":{"ha":1042,"x_min":0,"x_max":0,"o":"m 618 996 l 525 1040 b 444 1063 496 1054 472 1063 b 347 936 372 1063 353 997 l 381 936 b 63 469 167 876 63 681 b 522 -18 63 214 214 -18 b 979 467 831 -18 979 214 b 644 939 979 685 868 885 b 701 1057 685 960 697 1010 l 626 1057 z m 522 32 b 115 469 249 32 115 240 b 519 904 115 696 247 904 b 926 467 793 904 926 696 b 522 32 926 240 794 32 z m 522 67 b 883 468 778 67 883 269 b 519 869 883 665 775 869 b 158 468 264 869 158 667 b 522 67 158 271 267 67 z m 522 117 b 211 468 306 117 211 297 b 519 819 211 642 304 819 b 831 468 736 819 831 639 b 522 117 831 294 738 117 z m 424 946 l 431 997 l 521 954 l 519 954 b 424 946 485 954 453 951 z "},"ö":{"ha":1042,"x_min":0,"x_max":0,"o":"m 660 936 l 660 1043 l 560 1043 l 560 953 b 519 954 546 953 533 954 b 479 953 506 954 492 953 l 479 1043 l 379 1043 l 379 936 l 381 936 b 63 469 167 876 63 681 b 522 -18 63 214 214 -18 b 979 467 831 -18 979 214 b 658 936 979 681 872 876 z m 522 32 b 115 469 249 32 115 240 b 519 904 115 696 247 904 b 926 467 793 904 926 696 b 522 32 926 240 794 32 z m 522 67 b 883 468 778 67 883 269 b 519 869 883 665 775 869 b 158 468 264 869 158 667 b 522 67 158 271 267 67 z m 522 117 b 211 468 306 117 211 297 b 519 819 211 642 304 819 b 831 468 736 819 831 639 b 522 117 831 294 738 117 z "},"ō":{"ha":1042,"x_min":0,"x_max":0,"o":"m 689 936 l 689 1013 l 353 1013 l 353 936 l 381 936 b 63 469 167 876 63 681 b 522 -18 63 214 214 -18 b 979 467 831 -18 979 214 b 658 936 979 681 872 876 z m 522 32 b 115 469 249 32 115 240 b 519 904 115 696 247 904 b 926 467 793 904 926 696 b 522 32 926 240 794 32 z m 522 67 b 883 468 778 67 883 269 b 519 869 883 665 775 869 b 158 468 264 869 158 667 b 522 67 158 271 267 67 z m 522 117 b 211 468 306 117 211 297 b 519 819 211 642 304 819 b 831 468 736 819 831 639 b 522 117 831 294 738 117 z "},"ŏ":{"ha":1042,"x_min":0,"x_max":0,"o":"m 625 1057 b 521 996 621 1014 583 996 b 417 1057 457 996 421 1014 l 347 1057 b 425 946 350 1000 378 964 b 63 469 181 903 63 694 b 522 -18 63 214 214 -18 b 979 467 831 -18 979 214 b 615 946 979 693 858 901 b 694 1057 663 964 692 1000 z m 522 32 b 115 469 249 32 115 240 b 519 904 115 696 247 904 b 926 467 793 904 926 696 b 522 32 926 240 794 32 z m 522 67 b 883 468 778 67 883 269 b 519 869 883 665 775 869 b 158 468 264 869 158 667 b 522 67 158 271 267 67 z m 522 117 b 211 468 306 117 211 297 b 519 819 211 642 304 819 b 831 468 736 819 831 639 b 522 117 831 294 738 117 z "},"ő":{"ha":1042,"x_min":0,"x_max":0,"o":"m 522 -18 b 979 467 831 -18 979 214 b 654 936 979 681 871 879 l 749 1057 l 646 1057 l 567 953 b 519 954 551 954 535 954 b 490 953 510 954 500 954 l 572 1057 l 469 1057 l 378 936 l 381 936 b 63 469 167 876 63 681 b 522 -18 63 214 214 -18 z m 522 32 b 115 469 249 32 115 240 b 519 904 115 696 247 904 b 926 467 793 904 926 696 b 522 32 926 240 794 32 z m 522 67 b 883 468 778 67 883 269 b 519 869 883 665 775 869 b 158 468 264 869 158 667 b 522 67 158 271 267 67 z m 522 117 b 211 468 306 117 211 297 b 519 819 211 642 304 819 b 831 468 736 819 831 639 b 522 117 831 294 738 117 z "},"ø":{"ha":1042,"x_min":0,"x_max":0,"o":"m 522 -18 b 979 467 831 -18 979 214 b 856 817 979 599 938 725 l 956 936 l 868 936 l 806 863 b 519 954 733 919 638 954 b 63 469 211 954 63 722 b 185 119 63 336 103 210 l 86 0 l 174 0 l 235 74 b 522 -18 307 17 403 -18 z m 522 32 b 115 469 249 32 115 240 b 519 904 115 696 247 904 b 926 467 793 904 926 696 b 522 32 926 240 794 32 z m 522 67 b 883 468 778 67 883 269 b 519 869 883 665 775 869 b 158 468 264 869 158 667 b 522 67 158 271 267 67 z m 522 117 b 326 183 440 117 375 142 l 760 703 b 831 468 808 636 831 551 b 522 117 831 294 738 117 z m 211 468 b 519 819 211 642 304 819 b 714 751 601 819 665 793 l 281 233 b 211 468 233 299 211 385 z "},"ǿ":{"ha":1042,"x_min":0,"x_max":0,"o":"m 522 -18 b 979 467 831 -18 979 214 b 856 817 979 599 938 725 l 956 936 l 868 936 l 806 863 b 569 951 743 911 665 943 l 651 1057 l 549 1057 l 468 951 b 63 469 194 928 63 707 b 185 119 63 336 103 210 l 86 0 l 174 0 l 235 74 b 522 -18 307 17 403 -18 z m 522 32 b 115 469 249 32 115 240 b 519 904 115 696 247 904 b 926 467 793 904 926 696 b 522 32 926 240 794 32 z m 522 67 b 883 468 778 67 883 269 b 519 869 883 665 775 869 b 158 468 264 869 158 667 b 522 67 158 271 267 67 z m 522 117 b 326 183 440 117 375 142 l 760 703 b 831 468 808 636 831 551 b 522 117 831 294 738 117 z m 211 468 b 519 819 211 642 304 819 b 714 751 601 819 665 793 l 281 233 b 211 468 233 299 211 385 z "},"œ":{"ha":1440,"x_min":0,"x_max":0,"o":"m 1324 86 l 1324 136 l 871 136 l 871 418 l 1254 418 l 1254 467 l 819 467 l 819 86 z m 1254 501 l 1254 550 l 871 550 l 871 800 l 1296 800 l 1296 850 l 819 850 l 819 501 z m 781 86 l 781 850 l 514 850 b 157 468 278 850 157 693 b 514 86 157 233 296 86 z m 1324 0 l 1324 50 l 507 50 b 114 467 239 50 114 240 b 507 886 114 694 247 886 l 1296 886 l 1296 936 l 507 936 b 63 467 213 936 63 724 b 507 0 63 211 203 0 z m 729 136 l 514 136 b 208 468 326 136 208 265 b 514 800 208 663 311 800 l 729 800 z "},"ŕ":{"ha":956,"x_min":0,"x_max":0,"o":"m 490 454 b 707 657 614 454 707 515 b 499 853 707 781 615 853 l 236 853 l 236 454 z m 475 936 l 569 1057 l 467 1057 l 375 936 l 146 936 l 146 0 l 197 0 l 197 888 l 503 888 b 747 658 638 888 747 801 b 526 424 747 500 632 435 l 815 0 l 879 0 l 611 393 b 799 658 718 428 799 513 b 503 936 799 836 665 936 z m 288 503 l 288 803 l 499 803 b 656 657 588 803 656 749 b 490 503 656 553 586 503 z m 764 0 l 482 422 l 236 422 l 236 0 l 288 0 l 288 374 l 454 374 l 701 0 z "},"ř":{"ha":956,"x_min":0,"x_max":0,"o":"m 490 454 b 707 657 614 454 707 515 b 499 853 707 781 615 853 l 236 853 l 236 454 z m 464 936 l 569 1057 l 469 1057 l 419 993 l 369 1057 l 269 1057 l 375 936 l 146 936 l 146 0 l 197 0 l 197 888 l 503 888 b 747 658 638 888 747 801 b 526 424 747 500 632 435 l 815 0 l 879 0 l 611 393 b 799 658 718 428 799 513 b 503 936 799 836 665 936 z m 288 503 l 288 803 l 499 803 b 656 657 588 803 656 749 b 490 503 656 553 586 503 z m 764 0 l 482 422 l 236 422 l 236 0 l 288 0 l 288 374 l 454 374 l 701 0 z "},"ŗ":{"ha":956,"x_min":0,"x_max":0,"o":"m 764 0 l 482 422 l 236 422 l 236 0 l 288 0 l 288 374 l 454 374 l 701 0 z m 490 454 b 707 657 614 454 707 515 b 499 853 707 781 615 853 l 236 853 l 236 454 z m 879 0 l 611 393 b 799 658 718 428 799 513 b 503 936 799 836 665 936 l 146 936 l 146 0 l 197 0 l 197 888 l 503 888 b 747 658 638 888 747 801 b 526 424 747 500 632 435 l 815 0 z m 288 503 l 288 803 l 499 803 b 656 657 588 803 656 749 b 490 503 656 553 586 503 z m 460 -121 l 519 -43 l 418 -43 l 357 -121 z "},"ś":{"ha":913,"x_min":0,"x_max":0,"o":"m 789 789 b 497 953 703 900 611 946 l 579 1057 l 476 1057 l 394 949 b 160 690 251 925 160 835 b 433 415 160 514 301 461 b 639 240 561 371 639 339 b 461 118 639 169 581 118 b 217 253 357 118 282 167 l 176 215 b 461 68 257 107 356 68 b 690 240 601 68 690 147 b 449 465 690 367 611 411 b 210 690 332 506 210 558 b 468 904 210 815 292 904 b 753 756 567 904 656 879 z m 724 728 b 461 868 644 835 561 868 b 257 704 321 868 257 796 b 486 496 257 585 339 549 b 736 257 619 449 736 399 b 454 32 736 101 597 32 b 144 186 347 32 242 63 l 108 153 b 454 -18 210 29 317 -18 b 788 257 642 -18 788 82 b 504 544 788 446 640 496 b 308 704 390 585 308 613 b 461 818 308 769 350 818 b 688 694 556 818 622 778 z "},"ŝ":{"ha":913,"x_min":0,"x_max":0,"o":"m 618 936 l 513 1057 l 424 1057 l 318 936 l 340 936 b 160 690 229 900 160 815 b 433 415 160 514 301 461 b 639 240 561 371 639 339 b 461 118 639 169 581 118 b 217 253 357 118 282 167 l 176 215 b 461 68 257 107 356 68 b 690 240 601 68 690 147 b 449 465 690 367 611 411 b 210 690 332 506 210 558 b 468 904 210 815 292 904 b 753 756 567 904 656 879 l 789 789 b 594 936 729 867 667 913 z m 724 728 b 461 868 644 835 561 868 b 257 704 321 868 257 796 b 486 496 257 585 339 549 b 736 257 619 449 736 399 b 454 32 736 101 597 32 b 144 186 347 32 242 63 l 108 153 b 454 -18 210 29 317 -18 b 788 257 642 -18 788 82 b 504 544 788 446 640 496 b 308 704 390 585 308 613 b 461 818 308 769 350 818 b 688 694 556 818 622 778 z m 468 954 b 431 953 456 954 443 953 l 468 1000 l 504 953 b 468 954 493 953 481 954 z "},"š":{"ha":913,"x_min":0,"x_max":0,"o":"m 789 789 b 522 951 710 892 625 939 l 615 1057 l 515 1057 l 465 993 l 415 1057 l 315 1057 l 408 950 b 160 690 258 932 160 839 b 433 415 160 514 301 461 b 639 240 561 371 639 339 b 461 118 639 169 581 118 b 217 253 357 118 282 167 l 176 215 b 461 68 257 107 356 68 b 690 240 601 68 690 147 b 449 465 690 367 611 411 b 210 690 332 506 210 558 b 468 904 210 815 292 904 b 753 756 567 904 656 879 z m 724 728 b 461 868 644 835 561 868 b 257 704 321 868 257 796 b 486 496 257 585 339 549 b 736 257 619 449 736 399 b 454 32 736 101 597 32 b 144 186 347 32 242 63 l 108 153 b 454 -18 210 29 317 -18 b 788 257 642 -18 788 82 b 504 544 788 446 640 496 b 308 704 390 585 308 613 b 461 818 308 769 350 818 b 688 694 556 818 622 778 z "},"ş":{"ha":913,"x_min":0,"x_max":0,"o":"m 454 -121 l 538 -10 b 788 257 683 15 788 108 b 504 544 788 446 640 496 b 308 704 390 585 308 613 b 461 818 308 769 350 818 b 688 694 556 818 622 778 l 724 728 b 461 868 644 835 561 868 b 257 704 321 868 257 796 b 486 496 257 585 339 549 b 736 257 619 449 736 399 b 454 32 736 101 597 32 b 144 186 347 32 242 63 l 108 153 b 432 -17 204 36 304 -12 l 351 -121 z m 789 789 b 468 954 696 910 596 954 b 160 690 285 954 160 858 b 433 415 160 514 301 461 b 639 240 561 371 639 339 b 461 118 639 169 581 118 b 217 253 357 118 282 167 l 176 215 b 461 68 257 107 356 68 b 690 240 601 68 690 147 b 449 465 690 367 611 411 b 210 690 332 506 210 558 b 468 904 210 815 292 904 b 753 756 567 904 656 879 z "},"ș":{"ha":913,"x_min":0,"x_max":0,"o":"m 789 789 b 468 954 696 910 596 954 b 160 690 285 954 160 858 b 433 415 160 514 301 461 b 639 240 561 371 639 339 b 461 118 639 169 581 118 b 217 253 357 118 282 167 l 176 215 b 461 68 257 107 356 68 b 690 240 601 68 690 147 b 449 465 690 367 611 411 b 210 690 332 506 210 558 b 468 904 210 815 292 904 b 753 756 567 904 656 879 z m 724 728 b 461 868 644 835 561 868 b 257 704 321 868 257 796 b 486 496 257 585 339 549 b 736 257 619 449 736 399 b 454 32 736 101 597 32 b 144 186 347 32 242 63 l 108 153 b 454 -18 210 29 317 -18 b 788 257 642 -18 788 82 b 504 544 788 446 640 496 b 308 704 390 585 308 613 b 461 818 308 769 350 818 b 688 694 556 818 622 778 z m 461 -121 l 521 -43 l 419 -43 l 358 -121 z "},"ß":{"ha":1714,"x_min":0,"x_max":0,"o":"m 789 789 b 468 954 696 910 596 954 b 160 690 285 954 160 858 b 433 415 160 514 301 461 b 639 240 561 371 639 339 b 461 118 639 169 581 118 b 217 253 357 118 282 167 l 176 215 b 461 68 257 107 356 68 b 690 240 601 68 690 147 b 449 465 690 367 611 411 b 210 690 332 506 210 558 b 468 904 210 815 292 904 b 753 756 567 904 656 879 z m 724 728 b 461 868 644 835 561 868 b 257 704 321 868 257 796 b 486 496 257 585 339 549 b 736 257 619 449 736 399 b 454 32 736 101 597 32 b 144 186 347 32 242 63 l 108 153 b 454 -18 210 29 317 -18 b 788 257 642 -18 788 82 b 504 544 788 446 640 496 b 308 704 390 585 308 613 b 461 818 308 769 350 818 b 688 694 556 818 622 778 z m 1590 789 b 1269 954 1497 910 1397 954 b 961 690 1086 954 961 858 b 1235 415 961 514 1103 461 b 1440 240 1363 371 1440 339 b 1263 118 1440 169 1382 118 b 1018 253 1158 118 1083 167 l 978 215 b 1263 68 1058 107 1157 68 b 1492 240 1403 68 1492 147 b 1250 465 1492 367 1413 411 b 1011 690 1133 506 1011 558 b 1269 904 1011 815 1093 904 b 1554 756 1368 904 1457 879 z m 1525 728 b 1263 868 1446 835 1363 868 b 1058 704 1122 868 1058 796 b 1288 496 1058 585 1140 549 b 1538 257 1421 449 1538 399 b 1256 32 1538 101 1399 32 b 946 186 1149 32 1043 63 l 910 153 b 1256 -18 1011 29 1118 -18 b 1589 257 1443 -18 1589 82 b 1306 544 1589 446 1442 496 b 1110 704 1192 585 1110 613 b 1263 818 1110 769 1151 818 b 1489 694 1357 818 1424 778 z "},"ť":{"ha":875,"x_min":0,"x_max":0,"o":"m 418 0 l 418 850 l 42 850 l 42 800 l 367 800 l 367 0 z m 508 0 l 508 800 l 833 800 l 833 850 l 457 850 l 457 0 z m 482 936 l 588 1057 l 488 1057 l 438 993 l 388 1057 l 288 1057 l 393 936 l 42 936 l 42 886 l 833 886 l 833 936 z "},"ţ":{"ha":875,"x_min":0,"x_max":0,"o":"m 418 0 l 418 850 l 42 850 l 42 800 l 367 800 l 367 0 z m 508 0 l 508 800 l 833 800 l 833 850 l 457 850 l 457 0 z m 833 886 l 833 936 l 42 936 l 42 886 z m 410 -121 l 469 -43 l 368 -43 l 307 -121 z "},"ŧ":{"ha":875,"x_min":0,"x_max":0,"o":"m 418 0 l 418 850 l 42 850 l 42 800 l 367 800 l 367 485 l 174 485 l 174 424 l 367 424 l 367 0 z m 508 0 l 508 424 l 701 424 l 701 485 l 508 485 l 508 800 l 833 800 l 833 850 l 457 850 l 457 0 z m 833 886 l 833 936 l 42 936 l 42 886 z "},"ù":{"ha":1082,"x_min":0,"x_max":0,"o":"m 885 319 b 540 32 885 142 744 32 b 197 319 343 32 197 143 l 197 936 l 146 936 l 146 319 b 540 -18 146 108 313 -18 b 936 319 775 -18 936 107 l 936 936 l 885 936 z m 794 326 b 539 117 794 200 689 117 b 288 328 393 117 288 204 l 288 936 l 236 936 l 236 328 b 540 67 236 174 361 67 b 846 326 725 67 846 168 l 846 936 l 794 936 z m 599 936 l 507 1057 l 404 1057 l 499 936 z "},"ú":{"ha":1082,"x_min":0,"x_max":0,"o":"m 885 319 b 540 32 885 142 744 32 b 197 319 343 32 197 143 l 197 936 l 146 936 l 146 319 b 540 -18 146 108 313 -18 b 936 319 775 -18 936 107 l 936 936 l 885 936 z m 794 326 b 539 117 794 200 689 117 b 288 328 393 117 288 204 l 288 936 l 236 936 l 236 328 b 540 67 236 174 361 67 b 846 326 725 67 846 168 l 846 936 l 794 936 z m 586 936 l 681 1057 l 578 1057 l 486 936 z "},"û":{"ha":1082,"x_min":0,"x_max":0,"o":"m 885 319 b 540 32 885 142 744 32 b 197 319 343 32 197 143 l 197 936 l 146 936 l 146 319 b 540 -18 146 108 313 -18 b 936 319 775 -18 936 107 l 936 936 l 885 936 z m 794 326 b 539 117 794 200 689 117 b 288 328 393 117 288 204 l 288 936 l 236 936 l 236 328 b 540 67 236 174 361 67 b 846 326 725 67 846 168 l 846 936 l 794 936 z m 690 936 l 585 1057 l 496 1057 l 390 936 l 490 936 l 540 1000 l 590 936 z "},"ũ":{"ha":1082,"x_min":0,"x_max":0,"o":"m 885 319 b 540 32 885 142 744 32 b 197 319 343 32 197 143 l 197 936 l 146 936 l 146 319 b 540 -18 146 108 313 -18 b 936 319 775 -18 936 107 l 936 936 l 885 936 z m 794 326 b 539 117 794 200 689 117 b 288 328 393 117 288 204 l 288 936 l 236 936 l 236 328 b 540 67 236 174 361 67 b 846 326 725 67 846 168 l 846 936 l 794 936 z m 635 996 l 542 1040 b 461 1063 513 1054 489 1063 b 364 936 389 1063 369 997 l 439 936 l 447 997 l 540 953 b 621 931 568 939 592 931 b 718 1057 693 931 713 996 l 643 1057 z "},"ü":{"ha":1082,"x_min":0,"x_max":0,"o":"m 885 319 b 540 32 885 142 744 32 b 197 319 343 32 197 143 l 197 936 l 146 936 l 146 319 b 540 -18 146 108 313 -18 b 936 319 775 -18 936 107 l 936 936 l 885 936 z m 794 326 b 539 117 794 200 689 117 b 288 328 393 117 288 204 l 288 936 l 236 936 l 236 328 b 540 67 236 174 361 67 b 846 326 725 67 846 168 l 846 936 l 794 936 z m 504 936 l 504 1043 l 404 1043 l 404 936 z m 685 936 l 685 1043 l 585 1043 l 585 936 z "},"ū":{"ha":1082,"x_min":0,"x_max":0,"o":"m 885 319 b 540 32 885 142 744 32 b 197 319 343 32 197 143 l 197 936 l 146 936 l 146 319 b 540 -18 146 108 313 -18 b 936 319 775 -18 936 107 l 936 936 l 885 936 z m 794 326 b 539 117 794 200 689 117 b 288 328 393 117 288 204 l 288 936 l 236 936 l 236 328 b 540 67 236 174 361 67 b 846 326 725 67 846 168 l 846 936 l 794 936 z m 708 936 l 708 1013 l 372 1013 l 372 936 z "},"ŭ":{"ha":1082,"x_min":0,"x_max":0,"o":"m 885 319 b 540 32 885 142 744 32 b 197 319 343 32 197 143 l 197 936 l 146 936 l 146 319 b 540 -18 146 108 313 -18 b 936 319 775 -18 936 107 l 936 936 l 885 936 z m 794 326 b 539 117 794 200 689 117 b 288 328 393 117 288 204 l 288 936 l 236 936 l 236 328 b 540 67 236 174 361 67 b 846 326 725 67 846 168 l 846 936 l 794 936 z m 644 1057 b 540 996 640 1014 603 996 b 436 1057 476 996 440 1014 l 367 1057 b 540 931 371 969 438 931 b 714 1057 643 931 710 969 z "},"ů":{"ha":1082,"x_min":0,"x_max":0,"o":"m 885 319 b 540 32 885 142 744 32 b 197 319 343 32 197 143 l 197 936 l 146 936 l 146 319 b 540 -18 146 108 313 -18 b 936 319 775 -18 936 107 l 936 936 l 885 936 z m 794 326 b 539 117 794 200 689 117 b 288 328 393 117 288 204 l 288 936 l 236 936 l 236 328 b 540 67 236 174 361 67 b 846 326 725 67 846 168 l 846 936 l 794 936 z m 590 1025 b 540 985 590 1000 575 985 b 492 1025 507 985 492 1003 b 540 1067 492 1049 507 1067 b 590 1025 575 1067 590 1049 z m 654 1025 b 540 1118 654 1085 611 1118 b 426 1025 469 1118 426 1086 b 540 932 426 965 469 932 b 654 1025 611 932 654 964 z "},"ű":{"ha":1082,"x_min":0,"x_max":0,"o":"m 885 319 b 540 32 885 142 744 32 b 197 319 343 32 197 143 l 197 936 l 146 936 l 146 319 b 540 -18 146 108 313 -18 b 936 319 775 -18 936 107 l 936 936 l 885 936 z m 794 326 b 539 117 794 200 689 117 b 288 328 393 117 288 204 l 288 936 l 236 936 l 236 328 b 540 67 236 174 361 67 b 846 326 725 67 846 168 l 846 936 l 794 936 z m 456 936 l 550 1057 l 447 1057 l 356 936 z m 632 936 l 726 1057 l 624 1057 l 532 936 z "},"ų":{"ha":1082,"x_min":0,"x_max":0,"o":"m 885 319 b 540 32 885 142 744 32 b 197 319 343 32 197 143 l 197 936 l 146 936 l 146 319 b 485 -15 146 125 286 3 b 475 -54 479 -26 475 -40 b 568 -131 475 -100 506 -131 b 621 -125 589 -131 603 -129 l 614 -67 l 546 -61 l 567 -17 b 936 319 788 -8 936 115 l 936 936 l 885 936 z m 794 326 b 539 117 794 200 689 117 b 288 328 393 117 288 204 l 288 936 l 236 936 l 236 328 b 540 67 236 174 361 67 b 846 326 725 67 846 168 l 846 936 l 794 936 z "},"ẁ":{"ha":1306,"x_min":0,"x_max":0,"o":"m 976 -7 l 1231 936 l 1174 936 l 935 43 l 875 43 l 653 847 l 425 43 l 368 43 l 129 936 l 75 936 l 328 -7 l 468 -7 l 651 682 l 833 -7 z m 708 936 l 617 1057 l 514 1057 l 608 936 l 586 936 l 400 236 l 233 936 l 179 936 l 396 85 l 625 886 l 683 886 l 904 85 l 1131 936 l 1076 936 l 901 238 l 725 936 z "},"ẃ":{"ha":1306,"x_min":0,"x_max":0,"o":"m 976 -7 l 1231 936 l 1174 936 l 935 43 l 875 43 l 653 847 l 425 43 l 368 43 l 129 936 l 75 936 l 328 -7 l 468 -7 l 651 682 l 833 -7 z m 697 936 l 792 1057 l 689 1057 l 597 936 l 586 936 l 400 236 l 233 936 l 179 936 l 396 85 l 625 886 l 683 886 l 904 85 l 1131 936 l 1076 936 l 901 238 l 725 936 z "},"ŵ":{"ha":1306,"x_min":0,"x_max":0,"o":"m 976 -7 l 1231 936 l 1174 936 l 935 43 l 875 43 l 653 847 l 425 43 l 368 43 l 129 936 l 75 936 l 328 -7 l 468 -7 l 651 682 l 833 -7 z m 803 936 l 697 1057 l 608 1057 l 503 936 l 586 936 l 400 236 l 233 936 l 179 936 l 396 85 l 625 886 l 683 886 l 904 85 l 1131 936 l 1076 936 l 901 238 l 725 936 z m 653 1000 l 703 936 l 603 936 z "},"ẅ":{"ha":1306,"x_min":0,"x_max":0,"o":"m 976 -7 l 1231 936 l 1174 936 l 935 43 l 875 43 l 653 847 l 425 43 l 368 43 l 129 936 l 75 936 l 328 -7 l 468 -7 l 651 682 l 833 -7 z m 793 936 l 793 1043 l 693 1043 l 693 936 l 613 936 l 613 1043 l 513 1043 l 513 936 l 586 936 l 400 236 l 233 936 l 179 936 l 396 85 l 625 886 l 683 886 l 904 85 l 1131 936 l 1076 936 l 901 238 l 725 936 z "},"ỳ":{"ha":892,"x_min":0,"x_max":0,"o":"m 425 0 l 425 447 l 100 936 l 36 936 l 374 429 l 374 0 z m 515 0 l 515 429 l 856 936 l 792 936 l 464 447 l 464 0 z m 446 482 l 744 936 l 682 936 l 447 567 l 213 936 l 150 936 z m 543 936 l 451 1057 l 349 1057 l 443 936 z "},"ý":{"ha":892,"x_min":0,"x_max":0,"o":"m 397 0 l 397 447 l 72 936 l 8 936 l 346 429 l 346 0 z m 488 0 l 488 429 l 828 936 l 764 936 l 436 447 l 436 0 z m 418 482 l 717 936 l 654 936 l 419 567 l 185 936 l 122 936 z m 476 936 l 385 1057 l 282 1057 l 376 936 z "},"ŷ":{"ha":892,"x_min":0,"x_max":0,"o":"m 425 0 l 425 447 l 100 936 l 36 936 l 374 429 l 374 0 z m 515 0 l 515 429 l 856 936 l 792 936 l 464 447 l 464 0 z m 446 482 l 744 936 l 682 936 l 447 567 l 213 936 l 150 936 z m 596 936 l 490 1057 l 401 1057 l 296 936 l 396 936 l 446 1000 l 496 936 z "},"ÿ":{"ha":892,"x_min":0,"x_max":0,"o":"m 397 0 l 397 447 l 72 936 l 8 936 l 346 429 l 346 0 z m 488 0 l 488 429 l 828 936 l 764 936 l 436 447 l 436 0 z m 418 482 l 717 936 l 654 936 l 419 567 l 185 936 l 122 936 z m 382 936 l 382 1043 l 282 1043 l 282 936 z m 563 936 l 563 1043 l 463 1043 l 463 936 z "},"ź":{"ha":861,"x_min":0,"x_max":0,"o":"m 461 936 l 556 1057 l 453 1057 l 361 936 l 129 936 l 129 885 l 707 885 l 707 844 l 197 86 l 785 86 l 785 136 l 293 136 l 758 831 l 758 936 z m 785 0 l 785 50 l 156 50 l 156 89 l 665 850 l 129 850 l 129 800 l 568 800 l 104 106 l 104 0 z "},"ž":{"ha":861,"x_min":0,"x_max":0,"o":"m 447 936 l 553 1057 l 453 1057 l 403 993 l 353 1057 l 253 1057 l 358 936 l 88 936 l 88 885 l 665 885 l 665 844 l 156 86 l 743 86 l 743 136 l 251 136 l 717 831 l 717 936 z m 743 0 l 743 50 l 114 50 l 114 89 l 624 850 l 88 850 l 88 800 l 526 800 l 63 106 l 63 0 z "},"ż":{"ha":861,"x_min":0,"x_max":0,"o":"m 496 936 l 496 1043 l 396 1043 l 396 936 l 129 936 l 129 885 l 707 885 l 707 844 l 197 86 l 785 86 l 785 136 l 293 136 l 758 831 l 758 936 z m 785 0 l 785 50 l 156 50 l 156 89 l 665 850 l 129 850 l 129 800 l 568 800 l 104 106 l 104 0 z "},"ŋ":{"ha":1083,"x_min":0,"x_max":0,"o":"m 938 936 l 888 936 l 888 -25 b 657 -260 888 -137 825 -235 l 669 -308 b 938 -26 853 -286 938 -179 z m 282 0 l 282 682 l 796 28 l 796 3 b 633 -172 794 -100 746 -157 l 647 -226 b 847 -26 790 -208 847 -108 l 846 50 l 232 838 l 232 0 z m 851 936 l 801 936 l 801 253 l 268 936 l 146 936 l 146 0 l 196 0 l 196 886 l 242 886 l 851 107 z "},"ð":{"ha":1031,"x_min":0,"x_max":0,"o":"m 524 0 b 968 469 818 0 968 213 b 524 936 968 725 828 936 l 146 936 l 146 515 l 14 515 l 14 454 l 146 454 l 146 0 z m 197 50 l 197 886 l 524 886 b 917 469 792 886 917 696 b 524 50 917 242 783 50 z m 517 86 b 874 468 753 86 874 243 b 517 850 874 703 735 850 l 236 850 l 236 86 z m 288 136 l 288 454 l 528 454 l 528 515 l 288 515 l 288 800 l 517 800 b 822 468 704 800 822 671 b 517 136 822 274 719 136 z "},"þ":{"ha":890,"x_min":0,"x_max":0,"o":"m 499 318 b 724 538 647 318 724 394 b 500 754 724 669 636 754 l 236 754 l 236 318 z m 288 0 l 288 233 l 503 233 b 814 540 700 233 814 350 b 504 839 814 724 689 839 l 288 839 l 288 936 l 236 936 l 236 789 l 504 789 b 764 540 658 789 764 692 b 503 283 764 382 667 283 l 236 283 l 236 0 z m 288 367 l 288 707 l 500 707 b 672 538 606 707 672 639 b 499 367 672 429 614 367 z m 197 0 l 197 936 l 146 936 l 146 0 z "},"`":{"ha":694,"x_min":0,"x_max":0,"o":"m 444 936 l 353 1057 l 250 1057 l 344 936 z "},"":{"ha":694,"x_min":0,"x_max":0,"o":"m 444 936 l 353 1057 l 250 1057 l 344 936 z "},"´":{"ha":694,"x_min":0,"x_max":0,"o":"m 350 936 l 444 1057 l 342 1057 l 250 936 z "},"":{"ha":694,"x_min":0,"x_max":0,"o":"m 350 936 l 444 1057 l 342 1057 l 250 936 z "},"ˆ":{"ha":694,"x_min":0,"x_max":0,"o":"m 497 936 l 392 1057 l 303 1057 l 197 936 l 297 936 l 347 1000 l 397 936 z "},"":{"ha":694,"x_min":0,"x_max":0,"o":"m 497 936 l 392 1057 l 303 1057 l 197 936 l 297 936 l 347 1000 l 397 936 z "},"ˇ":{"ha":694,"x_min":0,"x_max":0,"o":"m 392 936 l 497 1057 l 397 1057 l 347 993 l 297 1057 l 197 1057 l 303 936 z "},"":{"ha":694,"x_min":0,"x_max":0,"o":"m 392 936 l 497 1057 l 397 1057 l 347 993 l 297 1057 l 197 1057 l 303 936 z "},"̕":{"ha":694,"x_min":0,"x_max":0,"o":"m 375 772 l 417 936 l 331 936 l 297 772 z "},"˜":{"ha":694,"x_min":0,"x_max":0,"o":"m 440 996 l 347 1040 b 267 1063 318 1054 294 1063 b 169 936 194 1063 175 997 l 244 936 l 253 997 l 346 953 b 426 931 374 939 397 931 b 524 1057 499 931 518 996 l 449 1057 z "},"":{"ha":694,"x_min":0,"x_max":0,"o":"m 440 996 l 347 1040 b 267 1063 318 1054 294 1063 b 169 936 194 1063 175 997 l 244 936 l 253 997 l 346 953 b 426 931 374 939 397 931 b 524 1057 499 931 518 996 l 449 1057 z "},"¨":{"ha":694,"x_min":0,"x_max":0,"o":"m 307 936 l 307 1043 l 207 1043 l 207 936 z m 488 936 l 488 1043 l 388 1043 l 388 936 z "},"":{"ha":694,"x_min":0,"x_max":0,"o":"m 307 936 l 307 1043 l 207 1043 l 207 936 z m 488 936 l 488 1043 l 388 1043 l 388 936 z "},"¯":{"ha":694,"x_min":0,"x_max":0,"o":"m 515 936 l 515 1013 l 179 1013 l 179 936 z "},"":{"ha":694,"x_min":0,"x_max":0,"o":"m 515 936 l 515 1013 l 179 1013 l 179 936 z "},"˘":{"ha":694,"x_min":0,"x_max":0,"o":"m 451 1057 b 347 996 447 1014 410 996 b 243 1057 283 996 247 1014 l 174 1057 b 347 931 178 969 244 931 b 521 1057 450 931 517 969 z "},"":{"ha":694,"x_min":0,"x_max":0,"o":"m 451 1057 b 347 996 447 1014 410 996 b 243 1057 283 996 247 1014 l 174 1057 b 347 931 178 969 244 931 b 521 1057 450 931 517 969 z "},"˚":{"ha":694,"x_min":0,"x_max":0,"o":"m 397 1025 b 347 985 397 1000 382 985 b 299 1025 314 985 299 1003 b 347 1067 299 1049 314 1067 b 397 1025 382 1067 397 1049 z m 461 1025 b 347 1118 461 1085 418 1118 b 233 1025 276 1118 233 1086 b 347 932 233 965 276 932 b 461 1025 418 932 461 964 z "},"":{"ha":694,"x_min":0,"x_max":0,"o":"m 397 1025 b 347 985 397 1000 382 985 b 299 1025 314 985 299 1003 b 347 1067 299 1049 314 1067 b 397 1025 382 1067 397 1049 z m 461 1025 b 347 1118 461 1085 418 1118 b 233 1025 276 1118 233 1086 b 347 932 233 965 276 932 b 461 1025 418 932 461 964 z "},"˝":{"ha":694,"x_min":0,"x_max":0,"o":"m 261 936 l 356 1057 l 253 1057 l 161 936 z m 438 936 l 532 1057 l 429 1057 l 338 936 z "},"":{"ha":694,"x_min":0,"x_max":0,"o":"m 261 936 l 356 1057 l 253 1057 l 161 936 z m 438 936 l 532 1057 l 429 1057 l 338 936 z "},"˙":{"ha":694,"x_min":0,"x_max":0,"o":"m 397 936 l 397 1043 l 297 1043 l 297 936 z "},"":{"ha":694,"x_min":0,"x_max":0,"o":"m 397 936 l 397 1043 l 297 1043 l 297 936 z "},"¸":{"ha":694,"x_min":0,"x_max":0,"o":"m 353 -121 l 444 0 l 344 0 l 250 -121 z "},"˛":{"ha":694,"x_min":0,"x_max":0,"o":"m 282 0 b 261 -54 269 -15 261 -35 b 354 -131 261 -100 292 -131 b 407 -125 375 -131 389 -129 l 400 -67 l 332 -61 l 363 0 z "},"̦":{"ha":694,"x_min":0,"x_max":0,"o":"m 353 -121 l 413 -43 l 311 -43 l 250 -121 z "},"ʻ":{"ha":694,"x_min":0,"x_max":0,"o":"m 368 742 l 415 954 l 346 954 l 279 742 z "},",":{"ha":347,"x_min":0,"x_max":0,"o":"m 135 -212 l 249 142 l 201 142 l 93 -212 z m 61 -212 l 164 142 l 117 142 l 19 -212 z "},";":{"ha":347,"x_min":0,"x_max":0,"o":"m 135 -212 l 249 142 l 201 142 l 93 -212 z m 61 -212 l 164 142 l 117 142 l 19 -212 z m 236 482 l 236 624 l 190 624 l 190 482 z m 156 482 l 156 624 l 110 624 l 110 482 z "},":":{"ha":347,"x_min":0,"x_max":0,"o":"m 236 0 l 236 142 l 190 142 l 190 0 z m 156 0 l 156 142 l 110 142 l 110 0 z m 236 482 l 236 624 l 190 624 l 190 482 z m 156 482 l 156 624 l 110 624 l 110 482 z "},".":{"ha":347,"x_min":0,"x_max":0,"o":"m 236 0 l 236 142 l 190 142 l 190 0 z m 156 0 l 156 142 l 110 142 l 110 0 z "},"…":{"ha":1389,"x_min":0,"x_max":0,"o":"m 300 0 l 300 142 l 254 142 l 254 0 z m 219 0 l 219 142 l 174 142 l 174 0 z m 1219 0 l 1219 142 l 1174 142 l 1174 0 z m 1139 0 l 1139 142 l 1093 142 l 1093 0 z m 760 0 l 760 142 l 714 142 l 714 0 z m 679 0 l 679 142 l 633 142 l 633 0 z "},"-":{"ha":347,"x_min":0,"x_max":0,"o":"m 319 488 l 319 532 l 28 532 l 28 488 z m 319 408 l 319 453 l 28 453 l 28 408 z "},"!":{"ha":347,"x_min":0,"x_max":0,"o":"m 236 0 l 236 142 l 190 142 l 190 0 z m 156 0 l 156 142 l 110 142 l 110 0 z m 158 246 l 154 936 l 100 936 l 115 246 z m 232 246 l 246 936 l 192 936 l 189 246 z "},"¡":{"ha":347,"x_min":0,"x_max":0,"o":"m 156 794 l 156 936 l 110 936 l 110 794 z m 236 794 l 236 936 l 190 936 l 190 794 z m 246 0 l 231 690 l 188 690 l 192 0 z m 154 0 l 157 690 l 114 690 l 100 0 z "},"?":{"ha":610,"x_min":0,"x_max":0,"o":"m 342 0 l 342 142 l 296 142 l 296 0 z m 261 0 l 261 142 l 215 142 l 215 0 z m 264 246 l 263 451 b 468 704 393 543 468 603 b 282 874 468 807 389 874 b 83 771 192 874 133 836 l 114 736 b 282 824 163 796 207 824 b 417 704 358 824 417 783 b 215 476 417 621 358 567 l 221 246 z m 338 246 l 343 411 b 554 707 447 482 554 564 b 283 954 554 868 433 954 b 31 829 175 954 99 911 l 63 794 b 282 904 121 867 188 904 b 504 707 401 904 504 840 b 296 438 504 583 399 507 l 294 246 z "},"¿":{"ha":610,"x_min":0,"x_max":0,"o":"m 314 794 l 314 936 l 268 936 l 268 794 z m 394 794 l 394 936 l 349 936 l 349 794 z m 496 200 b 328 113 447 140 403 113 b 193 232 251 113 193 153 b 394 460 193 315 251 369 l 389 690 l 346 690 l 347 485 b 142 232 217 393 142 333 b 328 63 142 129 221 63 b 526 165 418 63 476 100 z m 547 142 b 328 32 489 69 422 32 b 106 229 208 32 106 96 b 314 499 106 353 211 429 l 315 690 l 272 690 l 267 525 b 56 229 163 454 56 372 b 326 -18 56 68 176 -18 b 579 107 435 -18 511 25 z "},"‘":{"ha":347,"x_min":0,"x_max":0,"o":"m 110 582 l 218 936 l 176 936 l 63 582 z m 194 582 l 292 936 l 250 936 l 147 582 z "},"’":{"ha":347,"x_min":0,"x_max":0,"o":"m 171 582 l 285 936 l 238 936 l 129 582 z m 97 582 l 200 936 l 153 936 l 56 582 z "},"“":{"ha":569,"x_min":0,"x_max":0,"o":"m 332 582 l 440 936 l 399 936 l 285 582 z m 417 582 l 514 936 l 472 936 l 369 582 z m 110 582 l 218 936 l 176 936 l 63 582 z m 194 582 l 292 936 l 250 936 l 147 582 z "},"”":{"ha":569,"x_min":0,"x_max":0,"o":"m 171 582 l 285 936 l 238 936 l 129 582 z m 97 582 l 200 936 l 153 936 l 56 582 z m 393 582 l 507 936 l 460 936 l 351 582 z m 319 582 l 422 936 l 375 936 l 278 582 z "},"‚":{"ha":347,"x_min":0,"x_max":0,"o":"m 171 -212 l 285 142 l 238 142 l 129 -212 z m 97 -212 l 200 142 l 153 142 l 56 -212 z "},"„":{"ha":569,"x_min":0,"x_max":0,"o":"m 171 -212 l 285 142 l 238 142 l 129 -212 z m 97 -212 l 200 142 l 153 142 l 56 -212 z m 393 -212 l 507 142 l 460 142 l 351 -212 z m 319 -212 l 422 142 l 375 142 l 278 -212 z "},"'":{"ha":347,"x_min":0,"x_max":0,"o":"m 153 596 l 156 936 l 108 936 l 111 596 z m 226 596 l 240 936 l 193 936 l 185 596 z "},"\"":{"ha":569,"x_min":0,"x_max":0,"o":"m 153 596 l 156 936 l 108 936 l 111 596 z m 226 596 l 240 936 l 193 936 l 185 596 z m 374 596 l 376 936 l 329 936 l 332 596 z m 447 596 l 461 936 l 414 936 l 406 596 z "},"‹":{"ha":347,"x_min":0,"x_max":0,"o":"m 290 239 l 192 468 l 290 697 l 249 697 l 143 468 l 249 239 z m 217 239 l 106 468 l 217 697 l 175 697 l 57 468 l 175 239 z "},"›":{"ha":347,"x_min":0,"x_max":0,"o":"m 57 697 l 156 468 l 57 239 l 99 239 l 204 468 l 99 697 z m 131 697 l 242 468 l 131 239 l 172 239 l 290 468 l 172 697 z "},"«":{"ha":569,"x_min":0,"x_max":0,"o":"m 290 239 l 192 468 l 290 697 l 249 697 l 143 468 l 249 239 z m 217 239 l 106 468 l 217 697 l 175 697 l 57 468 l 175 239 z m 513 239 l 414 468 l 513 697 l 471 697 l 365 468 l 471 239 z m 439 239 l 328 468 l 439 697 l 397 697 l 279 468 l 397 239 z "},"»":{"ha":569,"x_min":0,"x_max":0,"o":"m 279 697 l 378 468 l 279 239 l 321 239 l 426 468 l 321 697 z m 353 697 l 464 468 l 353 239 l 394 239 l 513 468 l 394 697 z m 57 697 l 156 468 l 57 239 l 99 239 l 204 468 l 99 697 z m 131 697 l 242 468 l 131 239 l 172 239 l 290 468 l 172 697 z "},"/":{"ha":467,"x_min":0,"x_max":0,"o":"m 28 0 l 401 936 l 353 936 l -21 0 z m 113 0 l 486 936 l 438 936 l 64 0 z "},"\\":{"ha":467,"x_min":0,"x_max":0,"o":"m 486 0 l 113 936 l 64 936 l 438 0 z m 401 0 l 28 936 l -21 936 l 353 0 z "},"|":{"ha":347,"x_min":0,"x_max":0,"o":"m 156 -289 l 156 1100 l 111 1100 l 111 -289 z m 235 -289 l 235 1100 l 190 1100 l 190 -289 z "},"¦":{"ha":347,"x_min":0,"x_max":0,"o":"m 111 261 l 111 -289 l 156 -289 l 156 261 z m 190 261 l 190 -289 l 235 -289 l 235 261 z m 235 550 l 235 1100 l 190 1100 l 190 550 z m 156 550 l 156 1100 l 111 1100 l 111 550 z "},"–":{"ha":694,"x_min":0,"x_max":0,"o":"m 667 488 l 667 532 l 28 532 l 28 488 z m 667 408 l 667 453 l 28 453 l 28 408 z "},"_":{"ha":694,"x_min":0,"x_max":0,"o":"m 694 -210 l 694 -165 l 0 -165 l 0 -210 z m 694 -289 l 694 -244 l 0 -244 l 0 -289 z "},"—":{"ha":1389,"x_min":0,"x_max":0,"o":"m 1361 488 l 1361 532 l 28 532 l 28 488 z m 1361 408 l 1361 453 l 28 453 l 28 408 z "},"•":{"ha":475,"x_min":0,"x_max":0,"o":"m 260 342 l 260 597 l 214 597 l 214 342 z m 179 342 l 179 597 l 133 597 l 133 342 z m 340 342 l 340 597 l 294 597 l 294 342 z "},"·":{"ha":347,"x_min":0,"x_max":0,"o":"m 236 400 l 236 542 l 190 542 l 190 400 z m 156 400 l 156 542 l 110 542 l 110 400 z "},"(":{"ha":426,"x_min":0,"x_max":0,"o":"m 433 -144 b 214 468 311 28 214 225 b 433 1081 214 711 311 908 l 381 1081 b 168 468 251 892 168 710 b 381 -144 168 226 251 44 z m 344 -144 b 133 468 228 31 133 218 b 344 1081 133 718 228 906 l 292 1081 b 88 468 193 943 88 754 b 292 -144 88 182 193 -7 z "},")":{"ha":426,"x_min":0,"x_max":0,"o":"m 46 -144 b 258 468 175 44 258 226 b 46 1081 258 710 175 892 l -7 1081 b 213 468 115 908 213 711 b -7 -144 213 225 115 28 z m 135 -144 b 339 468 233 -7 339 182 b 135 1081 339 754 233 943 l 82 1081 b 293 468 199 906 293 718 b 82 -144 293 218 199 31 z "},"[":{"ha":426,"x_min":0,"x_max":0,"o":"m 399 -144 l 399 -101 l 165 -101 l 165 1038 l 399 1038 l 399 1081 l 121 1081 l 121 -144 z m 399 -69 l 399 -26 l 244 -26 l 244 963 l 399 963 l 399 1006 l 200 1006 l 200 -69 z "},"]":{"ha":426,"x_min":0,"x_max":0,"o":"m 306 -144 l 306 1081 l 28 1081 l 28 1038 l 261 1038 l 261 -101 l 28 -101 l 28 -144 z m 226 -69 l 226 1006 l 28 1006 l 28 963 l 182 963 l 182 -26 l 28 -26 l 28 -69 z "},"{":{"ha":426,"x_min":0,"x_max":0,"o":"m 399 -144 l 399 -101 l 321 -101 b 169 56 208 -101 169 -35 b 193 226 169 124 182 176 b 208 338 201 265 208 303 b 81 451 208 397 178 451 l 67 451 l 67 408 b 165 342 132 408 165 388 b 151 238 165 308 160 272 b 125 56 139 188 125 126 b 311 -144 125 -51 176 -144 z m 399 -69 l 399 -26 l 324 -26 b 247 57 279 -26 247 4 b 265 196 247 113 256 154 b 285 344 276 242 285 289 b 229 468 285 394 264 438 b 285 592 264 497 285 542 b 265 740 285 647 276 694 b 247 879 256 782 247 824 b 322 963 247 932 278 963 l 399 963 l 399 1006 l 322 1006 b 203 879 250 1006 203 968 b 225 728 203 821 214 774 b 243 601 235 683 243 640 b 151 468 243 546 226 494 b 243 335 226 440 243 390 b 225 208 243 296 235 253 b 203 57 215 163 203 115 b 322 -69 203 -32 250 -69 z m 67 485 l 81 485 b 208 599 178 485 208 539 b 193 710 208 633 201 671 b 169 881 182 760 169 813 b 321 1038 169 971 208 1038 l 399 1038 l 399 1081 l 311 1081 b 125 881 176 1081 125 988 b 151 699 125 810 139 749 b 165 594 160 664 165 628 b 67 528 165 549 132 528 z "},"}":{"ha":426,"x_min":0,"x_max":0,"o":"m 115 -144 b 301 56 250 -144 301 -51 b 275 238 301 126 288 188 b 261 342 267 272 261 308 b 360 408 261 388 294 408 l 360 451 l 346 451 b 218 338 249 451 218 397 b 233 226 218 303 225 265 b 257 56 244 176 257 124 b 106 -101 257 -35 218 -101 l 28 -101 l 28 -144 z m 104 -69 b 224 57 176 -69 224 -32 b 201 208 224 115 211 163 b 183 335 192 253 183 296 b 275 468 183 390 200 440 b 183 601 200 494 183 546 b 201 728 183 640 192 683 b 224 879 213 774 224 821 b 104 1006 224 968 176 1006 l 28 1006 l 28 963 l 104 963 b 179 879 149 963 179 932 b 161 740 179 824 171 782 b 142 592 150 694 142 647 b 197 468 142 542 163 497 b 142 344 163 438 142 394 b 161 196 142 289 150 242 b 179 57 171 154 179 113 b 103 -26 179 4 147 -26 l 28 -26 l 28 -69 z m 360 528 b 261 594 294 528 261 549 b 275 699 261 628 267 664 b 301 881 288 749 301 810 b 115 1081 301 988 250 1081 l 28 1081 l 28 1038 l 106 1038 b 257 881 218 1038 257 971 b 233 710 257 813 244 760 b 218 599 225 671 218 633 b 346 485 218 539 249 485 l 360 485 z "},"*":{"ha":596,"x_min":0,"x_max":0,"o":"m 283 707 l 283 936 l 240 936 l 242 767 l 85 828 l 69 788 z m 274 681 l 60 763 l 44 722 l 203 663 l 89 538 l 122 510 z m 297 601 l 421 461 l 453 490 l 297 663 l 142 490 l 174 461 z m 472 510 l 506 538 l 392 663 l 550 722 l 535 763 l 321 681 z m 525 788 l 510 828 l 353 767 l 354 936 l 311 936 l 311 707 z "},"†":{"ha":669,"x_min":0,"x_max":0,"o":"m 321 0 l 318 638 l 61 639 l 61 593 l 278 594 l 275 0 z m 396 0 l 393 594 l 608 593 l 608 639 l 350 638 l 350 0 z m 608 668 l 608 714 l 393 711 l 396 936 l 350 936 l 350 669 z m 318 669 l 321 936 l 275 936 b 276 711 275 864 276 783 l 61 714 l 61 668 z "},"‡":{"ha":669,"x_min":0,"x_max":0,"o":"m 321 0 l 318 267 l 61 268 l 61 222 l 276 225 b 275 0 276 153 275 72 z m 396 0 l 393 225 l 608 222 l 608 268 l 350 267 l 350 0 z m 608 297 l 608 343 l 393 342 l 396 467 l 393 594 l 608 593 l 608 639 l 350 638 l 350 299 z m 608 668 l 608 714 l 393 711 l 396 936 l 350 936 l 350 669 z m 318 669 l 321 936 l 275 936 b 276 711 275 864 276 783 l 61 714 l 61 668 z m 318 299 l 318 638 l 61 639 l 61 593 l 278 594 l 275 467 l 278 342 l 61 343 l 61 297 z "},"§":{"ha":801,"x_min":0,"x_max":0,"o":"m 372 172 b 558 361 508 210 558 288 b 406 528 558 436 507 490 b 219 339 283 490 219 415 b 372 172 219 268 263 215 z m 425 153 b 600 -32 511 121 600 71 b 388 -207 600 -122 543 -207 b 122 -87 297 -207 204 -186 l 86 -121 b 383 -254 163 -221 271 -254 b 651 -33 544 -254 653 -164 b 532 161 650 67 600 121 b 656 381 603 206 656 279 b 428 619 656 513 539 579 b 272 743 333 654 272 674 b 389 824 272 793 313 824 b 569 726 464 824 513 794 l 606 760 b 389 869 540 847 463 869 b 221 738 288 869 221 817 b 410 571 221 649 289 614 b 604 372 519 532 604 472 b 425 153 604 286 550 193 z m 356 546 b 178 732 267 582 178 624 b 390 907 178 822 235 907 b 635 788 474 907 553 886 l 671 821 b 394 954 594 921 500 954 b 126 733 233 954 126 863 b 246 539 126 633 182 576 b 122 319 175 494 122 421 b 350 81 122 188 239 121 b 506 -43 444 46 506 26 b 389 -124 506 -93 465 -124 b 188 -26 317 -124 244 -94 l 151 -60 b 389 -169 219 -146 314 -169 b 557 -37 490 -169 557 -117 b 368 129 557 51 489 86 b 174 328 258 168 174 228 b 356 546 174 392 207 496 z m 507 360 b 382 225 507 299 463 253 b 271 340 304 258 271 299 b 396 475 271 404 329 454 b 507 360 471 444 507 404 z "},"¶":{"ha":818,"x_min":0,"x_max":0,"o":"m 561 443 l 561 853 l 376 853 b 153 649 240 853 153 774 b 378 443 153 514 229 443 z m 215 28 b 385 -18 263 0 310 -18 b 651 285 558 -18 651 85 l 651 936 l 372 936 b 63 651 188 936 63 825 b 374 358 63 471 176 358 l 510 358 l 510 285 b 383 117 510 174 469 117 b 282 149 344 117 311 131 l 258 104 b 392 67 300 81 339 67 b 561 285 513 67 561 163 l 561 408 l 374 408 b 113 651 210 408 113 501 b 372 888 113 793 218 888 l 600 888 l 600 285 b 390 32 600 125 532 32 b 240 72 328 32 290 44 z "},"@":{"ha":1089,"x_min":0,"x_max":0,"o":"m 757 250 b 1021 507 919 250 1021 326 b 543 990 1021 801 826 990 b 67 476 231 990 67 744 b 547 -40 67 175 238 -40 b 918 101 692 -40 818 4 l 890 135 b 547 4 797 51 697 4 b 114 476 271 4 114 200 b 543 946 114 724 253 946 b 974 507 807 946 974 772 b 731 297 974 321 863 297 l 557 731 l 393 326 l 596 326 l 596 374 l 465 374 l 556 607 l 692 250 z m 760 328 b 931 503 900 329 931 404 b 543 908 931 772 779 908 b 157 475 281 908 157 718 b 553 42 157 218 286 42 b 871 158 676 42 775 69 l 840 194 b 553 86 760 114 667 86 b 204 475 315 86 204 246 b 542 864 204 689 314 864 b 883 503 746 864 883 738 b 790 374 883 417 847 379 l 615 811 l 501 811 l 274 250 l 596 250 l 596 297 l 343 297 l 529 761 l 586 761 z "},"©":{"ha":1088,"x_min":0,"x_max":0,"o":"m 1015 468 b 544 939 1015 740 810 939 b 72 468 279 939 72 742 b 544 -4 72 196 279 -4 b 1015 468 810 -4 1015 194 z m 954 468 b 544 50 954 236 779 50 b 133 468 310 50 133 236 b 544 885 133 700 310 885 b 954 468 779 885 954 700 z m 750 281 l 701 325 b 553 250 660 272 611 250 b 371 474 428 250 371 361 b 553 697 371 586 428 697 b 700 622 611 697 660 675 l 749 667 b 550 756 701 721 639 756 b 303 472 382 756 303 619 b 550 192 303 328 382 192 b 750 281 639 192 703 226 z "},"®":{"ha":1088,"x_min":0,"x_max":0,"o":"m 1015 468 b 544 939 1015 740 810 939 b 72 468 279 939 72 742 b 544 -4 72 196 279 -4 b 1015 468 810 -4 1015 194 z m 954 468 b 544 50 954 236 779 50 b 133 468 310 50 133 236 b 544 885 133 700 310 885 b 954 468 779 885 954 700 z m 778 204 l 615 438 b 740 592 683 450 740 501 b 569 747 740 690 665 747 l 367 747 l 367 204 l 433 204 l 433 426 l 543 426 l 694 204 z m 674 589 b 558 485 674 518 624 485 l 433 485 l 433 690 l 564 690 b 674 589 625 690 674 653 z "},"℗":{"ha":1088,"x_min":0,"x_max":0,"o":"m 771 575 b 589 746 771 681 697 746 l 389 746 l 389 203 l 456 203 l 456 401 l 586 401 b 771 575 703 401 771 467 z m 703 574 b 582 458 703 501 661 458 l 456 458 l 456 689 l 583 689 b 703 574 656 689 703 643 z m 1015 468 b 544 939 1015 740 810 939 b 72 468 279 939 72 742 b 544 -4 72 196 279 -4 b 1015 468 810 -4 1015 194 z m 954 468 b 544 50 954 236 779 50 b 133 468 310 50 133 236 b 544 885 133 700 310 885 b 954 468 779 885 954 700 z "},"™":{"ha":1272,"x_min":0,"x_max":0,"o":"m 1133 394 l 1133 943 l 1078 943 l 882 629 l 688 943 l 632 943 l 632 394 l 697 394 l 697 806 l 856 551 l 906 551 l 1065 813 l 1065 394 z m 325 393 l 325 876 l 521 876 l 521 936 l 58 936 l 58 876 l 256 876 l 256 393 z "},"ª":{"ha":465,"x_min":0,"x_max":0,"o":"m 393 332 l 393 394 l 43 394 l 43 332 z m 43 579 b 186 456 43 503 103 456 b 325 518 244 456 292 478 l 325 467 l 393 467 l 393 740 b 219 886 393 836 324 886 b 61 818 150 886 97 860 l 106 776 b 214 826 133 811 171 826 b 321 736 282 826 321 793 l 321 686 b 204 707 286 699 247 707 b 43 579 117 707 43 671 z m 321 574 b 206 513 294 533 251 513 b 113 582 147 513 113 540 b 217 657 113 640 165 657 b 321 636 254 657 290 650 z "},"º":{"ha":479,"x_min":0,"x_max":0,"o":"m 442 332 l 442 394 l 38 394 l 38 332 z m 367 671 b 240 513 367 579 331 513 b 113 671 150 513 113 582 b 240 829 113 763 150 829 b 367 671 331 829 367 761 z m 442 669 b 240 886 442 790 374 886 b 38 672 106 886 38 793 b 240 456 38 551 106 456 b 442 669 374 456 442 549 z "},"№":{"ha":1583,"x_min":0,"x_max":0,"o":"m 1546 332 l 1546 394 l 1142 394 l 1142 332 z m 1546 669 b 1344 886 1546 790 1478 886 b 1142 672 1210 886 1142 793 b 1344 456 1142 551 1210 456 b 1546 669 1478 456 1546 549 z m 1471 671 b 1344 513 1471 579 1435 513 b 1217 671 1254 513 1217 582 b 1344 829 1217 763 1254 829 b 1471 671 1435 829 1471 761 z m 851 107 l 851 936 l 801 936 l 801 253 l 268 936 l 146 936 l 146 0 l 196 0 l 196 886 l 242 886 z m 938 0 l 938 936 l 888 936 l 888 50 l 846 50 l 232 838 l 232 0 l 282 0 l 282 682 l 818 0 z "},"#":{"ha":750,"x_min":0,"x_max":0,"o":"m 468 331 l 510 606 l 282 606 l 240 331 z m 515 635 l 561 936 l 521 936 l 481 678 l 332 678 l 372 936 l 332 936 l 286 635 z m 418 0 l 464 301 l 235 301 l 189 0 l 229 0 l 268 258 l 417 258 l 378 0 z m 433 374 l 286 374 l 315 563 l 463 563 z m 676 331 l 676 374 l 547 374 l 576 563 l 676 563 l 676 606 l 543 606 l 501 331 z m 207 331 l 249 606 l 74 606 l 74 563 l 201 563 l 172 374 l 74 374 l 74 331 z m 492 0 l 531 258 l 676 258 l 676 301 l 497 301 l 451 0 z m 253 635 l 299 936 l 258 936 l 218 678 l 74 678 l 74 635 z m 156 0 l 201 301 l 74 301 l 74 258 l 154 258 l 115 0 z m 676 635 l 676 678 l 594 678 l 635 936 l 594 936 l 549 635 z "},"€":{"ha":849,"x_min":0,"x_max":0,"o":"m 92 399 l 246 399 b 247 543 242 449 242 496 l 92 543 l 92 497 l 193 497 b 193 444 192 479 192 460 l 92 444 z m 522 113 b 343 324 433 113 367 172 l 617 324 l 617 369 l 285 369 b 519 63 314 147 399 63 b 731 164 617 63 676 100 l 696 200 b 522 113 643 139 601 113 z m 517 32 b 249 369 367 32 275 138 l 92 369 l 92 324 l 199 324 b 517 -18 232 92 350 -18 b 788 107 636 -18 710 25 l 753 142 b 517 32 688 69 621 32 z m 617 399 l 617 444 l 336 444 b 336 497 335 463 335 481 l 617 497 l 617 543 l 282 543 b 282 399 276 493 276 444 z m 517 824 b 696 736 596 824 643 797 l 731 772 b 517 874 676 836 617 874 b 285 572 372 874 307 765 l 617 572 l 617 618 l 340 618 b 517 824 361 749 415 824 z m 517 904 b 753 794 621 904 688 867 l 788 829 b 517 954 710 911 636 954 b 199 618 332 954 226 821 l 92 618 l 92 572 l 249 572 b 517 904 272 771 353 904 z "},"$":{"ha":706,"x_min":0,"x_max":0,"o":"m 115 181 b 340 63 163 111 240 63 b 557 240 465 63 557 147 b 338 468 557 371 492 414 b 128 690 226 508 128 558 b 344 904 128 811 201 900 l 344 1093 l 300 1093 l 300 950 b 78 690 171 928 78 832 b 322 418 78 518 197 464 b 506 240 443 374 506 336 b 340 113 506 169 447 113 b 154 213 261 113 200 147 z m 628 829 b 424 949 568 893 508 935 l 424 1093 l 379 1093 l 379 904 b 593 794 471 899 533 861 z m 344 -157 l 344 32 b 92 160 240 32 149 82 l 53 129 b 300 -15 114 51 199 -3 l 300 -157 z m 424 -157 l 424 -8 b 647 257 558 25 647 114 b 393 542 647 443 522 493 b 219 704 285 582 219 615 b 357 824 219 769 265 824 b 536 736 436 824 483 797 l 571 772 b 357 874 517 836 457 874 b 168 704 238 874 168 796 b 375 493 168 582 235 546 b 596 257 501 446 596 399 b 379 33 596 115 490 46 l 379 -157 z "},"¢":{"ha":711,"x_min":0,"x_max":0,"o":"m 372 -157 l 372 32 b 113 476 208 40 113 186 b 372 904 113 704 188 896 l 372 1093 l 328 1093 l 328 950 b 61 476 140 918 61 733 b 328 -14 61 171 157 14 l 328 -157 z m 451 -157 l 451 -12 b 657 107 535 0 594 42 l 622 142 b 407 32 561 75 500 36 l 407 -157 z m 600 164 l 565 200 b 392 113 513 139 471 113 b 201 476 275 113 201 218 b 386 824 201 697 254 824 b 565 736 465 824 513 797 l 600 772 b 386 874 546 836 486 874 b 147 476 211 874 147 693 b 389 63 147 194 246 63 b 600 164 486 63 546 100 z m 622 794 l 657 829 b 451 950 593 896 535 936 l 451 1093 l 407 1093 l 407 904 b 622 794 499 899 561 861 z "},"£":{"ha":721,"x_min":0,"x_max":0,"o":"m 154 85 b 318 308 265 172 318 225 b 272 456 318 351 301 397 l 88 456 l 88 410 l 239 410 b 269 310 257 371 269 339 b 104 107 269 244 217 186 l 104 0 l 656 0 l 656 50 l 154 50 z m 326 133 b 400 307 364 178 400 229 b 381 410 400 343 392 375 l 578 410 l 578 456 l 307 456 b 350 307 329 406 350 354 b 204 83 350 225 307 172 l 656 83 l 656 133 z m 401 824 b 581 736 481 824 528 797 l 615 772 b 401 874 561 836 501 874 b 218 701 288 874 218 807 b 289 485 218 631 243 579 l 578 485 l 578 531 l 326 531 b 268 701 297 588 268 646 b 401 824 268 771 315 824 z m 401 904 b 638 794 506 904 572 867 l 672 829 b 401 954 594 911 521 954 b 133 701 214 954 133 821 b 176 531 133 636 151 585 l 88 531 l 88 485 l 256 485 b 183 701 217 564 183 632 b 401 904 183 797 249 904 z "},"ƒ":{"ha":754,"x_min":0,"x_max":0,"o":"m 244 0 l 244 456 l 69 456 l 69 410 l 193 410 l 193 0 z m 331 0 l 331 410 l 560 410 l 560 456 l 279 456 l 279 0 z m 560 485 l 560 531 l 331 531 l 331 685 b 457 824 331 767 364 824 b 636 736 536 824 583 797 l 671 772 b 457 874 617 836 557 874 b 279 685 325 874 279 792 l 279 485 z m 244 485 l 244 685 b 457 904 244 832 313 904 b 693 794 561 904 628 867 l 728 829 b 457 954 653 925 569 954 b 193 685 292 954 193 851 l 193 531 l 69 531 l 69 485 z "},"¥":{"ha":763,"x_min":0,"x_max":0,"o":"m 633 456 l 397 456 l 397 311 l 633 311 l 633 357 l 449 357 l 449 410 l 633 410 z m 633 282 l 397 282 l 397 0 l 449 0 l 449 236 l 633 236 z m 126 311 l 364 311 l 364 456 l 126 456 l 126 410 l 313 410 l 313 357 l 126 357 z m 126 282 l 126 236 l 313 236 l 313 0 l 364 0 l 364 282 z m 651 936 l 417 485 l 633 485 l 633 531 l 499 531 l 711 936 z m 613 936 l 556 936 l 383 588 l 210 936 l 153 936 l 383 486 z m 53 936 l 261 531 l 126 531 l 126 485 l 343 485 b 111 936 274 619 181 799 z "},"⁰":{"ha":524,"x_min":0,"x_max":0,"o":"m 410 771 b 261 1026 410 935 364 1026 b 114 771 163 1026 114 935 b 261 517 114 613 161 517 b 410 771 358 517 410 613 z m 442 772 b 261 489 442 613 383 489 b 82 772 139 489 82 613 b 261 1054 82 932 139 1054 b 442 772 383 1054 442 932 z m 481 772 b 261 1088 481 963 404 1088 b 43 772 118 1088 43 963 b 261 456 43 582 118 456 b 481 772 404 456 481 582 z m 368 771 b 261 550 368 642 338 550 b 154 771 185 550 154 642 b 261 993 154 901 185 993 b 368 771 338 993 368 901 z "},"¹":{"ha":326,"x_min":0,"x_max":0,"o":"m 236 467 l 236 1086 l 25 1015 l 36 978 l 197 1033 l 197 467 z m 172 467 l 172 997 l 43 954 l 54 922 l 133 947 l 133 467 z "},"²":{"ha":506,"x_min":0,"x_max":0,"o":"m 461 467 l 461 506 l 92 506 l 92 535 b 349 907 311 743 347 806 b 233 1028 347 993 299 1028 b 93 936 165 1028 122 985 l 121 917 b 233 993 154 972 189 993 b 308 906 285 993 308 960 b 53 546 308 822 272 756 l 53 467 z m 461 532 l 461 571 l 210 571 b 418 903 314 675 418 758 b 233 1089 418 1029 333 1089 b 43 971 150 1089 92 1050 l 71 950 b 233 1056 111 1013 154 1056 b 381 903 313 1056 381 1007 b 125 532 381 775 300 701 z "},"³":{"ha":504,"x_min":0,"x_max":0,"o":"m 203 801 b 353 921 303 801 353 849 b 226 1028 353 988 304 1028 b 90 967 172 1028 128 1008 l 113 944 b 229 993 146 983 181 993 b 314 925 278 993 314 964 b 203 839 314 865 276 839 l 136 839 l 136 801 z m 40 544 b 232 456 96 486 150 456 b 449 646 351 456 449 517 b 357 794 449 718 407 769 b 424 924 397 822 424 868 b 229 1089 424 1029 339 1089 b 50 1007 151 1089 100 1061 l 72 985 b 229 1056 113 1029 164 1056 b 385 924 308 1056 385 1015 b 283 790 385 860 349 807 b 411 639 356 778 411 726 b 232 489 411 538 328 489 b 65 568 164 489 106 524 z m 85 589 b 235 517 124 542 175 517 b 379 639 314 517 379 551 b 201 775 379 719 321 775 l 136 775 l 136 738 l 201 738 b 339 639 299 738 339 706 b 232 551 339 572 308 551 b 107 611 182 551 143 567 z "},"⁴":{"ha":524,"x_min":0,"x_max":0,"o":"m 356 682 l 356 1038 l 100 682 z m 356 467 l 356 656 l 68 656 l 68 685 l 339 1056 l 381 1056 l 381 682 l 500 682 l 500 719 l 419 719 l 419 1086 l 319 1086 l 35 694 l 35 618 l 317 618 l 317 467 z m 419 467 l 419 618 l 500 618 l 500 656 l 381 656 l 381 467 z m 317 719 l 174 719 l 317 921 z "},"":{"ha":524,"x_min":0,"x_max":0,"o":"m 410 632 b 261 888 410 796 364 888 b 114 632 163 888 114 796 b 261 378 114 474 161 378 b 410 632 358 378 410 474 z m 442 633 b 261 350 442 474 383 350 b 82 633 139 350 82 474 b 261 915 82 793 139 915 b 442 633 383 915 442 793 z m 481 633 b 261 949 481 824 404 949 b 43 633 118 949 43 824 b 261 317 43 443 118 317 b 481 633 404 317 481 443 z m 368 632 b 261 411 368 503 338 411 b 154 632 185 411 154 503 b 261 854 154 763 185 854 b 368 632 338 854 368 763 z "},"":{"ha":326,"x_min":0,"x_max":0,"o":"m 236 328 l 236 947 l 25 876 l 36 839 l 197 894 l 197 328 z m 172 328 l 172 858 l 43 815 l 54 783 l 133 808 l 133 328 z "},"":{"ha":506,"x_min":0,"x_max":0,"o":"m 461 328 l 461 367 l 92 367 l 92 396 b 349 768 311 604 347 667 b 233 889 347 854 299 889 b 93 797 165 889 122 846 l 121 778 b 233 854 154 833 189 854 b 308 767 285 854 308 821 b 53 407 308 683 272 617 l 53 328 z m 461 393 l 461 432 l 210 432 b 418 764 314 536 418 619 b 233 950 418 890 333 950 b 43 832 150 950 92 911 l 71 811 b 233 917 111 874 154 917 b 381 764 313 917 381 868 b 125 393 381 636 300 563 z "},"":{"ha":504,"x_min":0,"x_max":0,"o":"m 203 663 b 353 782 303 663 353 710 b 226 889 353 849 304 889 b 90 828 172 889 128 869 l 113 806 b 229 854 146 844 181 854 b 314 786 278 854 314 825 b 203 700 314 726 276 700 l 136 700 l 136 663 z m 40 406 b 232 317 96 347 150 317 b 449 507 351 317 449 378 b 357 656 449 579 407 631 b 424 785 397 683 424 729 b 229 950 424 890 339 950 b 50 868 151 950 100 922 l 72 846 b 229 917 113 890 164 917 b 385 785 308 917 385 876 b 283 651 385 721 349 668 b 411 500 356 639 411 588 b 232 350 411 399 328 350 b 65 429 164 350 106 385 z m 85 450 b 235 378 124 403 175 378 b 379 500 314 378 379 413 b 201 636 379 581 321 636 l 136 636 l 136 599 l 201 599 b 339 500 299 599 339 567 b 232 413 339 433 308 413 b 107 472 182 413 143 428 z "},"":{"ha":524,"x_min":0,"x_max":0,"o":"m 356 543 l 356 899 l 100 543 z m 356 328 l 356 517 l 68 517 l 68 546 l 339 917 l 381 917 l 381 543 l 500 543 l 500 581 l 419 581 l 419 947 l 319 947 l 35 556 l 35 479 l 317 479 l 317 328 z m 419 328 l 419 479 l 500 479 l 500 517 l 381 517 l 381 328 z m 317 581 l 174 581 l 317 782 z "},"":{"ha":524,"x_min":0,"x_max":0,"o":"m 410 304 b 261 560 410 468 364 560 b 114 304 163 560 114 468 b 261 50 114 146 161 50 b 410 304 358 50 410 146 z m 442 306 b 261 22 442 146 383 22 b 82 306 139 22 82 146 b 261 588 82 465 139 588 b 442 306 383 588 442 465 z m 481 306 b 261 621 481 496 404 621 b 43 306 118 621 43 496 b 261 -11 43 115 118 -11 b 481 306 404 -11 481 115 z m 368 304 b 261 83 368 175 338 83 b 154 304 185 83 154 175 b 261 526 154 435 185 526 b 368 304 338 526 368 435 z "},"":{"ha":326,"x_min":0,"x_max":0,"o":"m 236 0 l 236 619 l 25 549 l 36 511 l 197 567 l 197 0 z m 172 0 l 172 531 l 43 488 l 54 456 l 133 481 l 133 0 z "},"":{"ha":506,"x_min":0,"x_max":0,"o":"m 461 0 l 461 39 l 92 39 l 92 68 b 349 440 311 276 347 339 b 233 561 347 526 299 561 b 93 469 165 561 122 518 l 121 450 b 233 526 154 506 189 526 b 308 439 285 526 308 493 b 53 79 308 356 272 289 l 53 0 z m 461 65 l 461 104 l 210 104 b 418 436 314 208 418 292 b 233 622 418 563 333 622 b 43 504 150 622 92 583 l 71 483 b 233 589 111 546 154 589 b 381 436 313 589 381 540 b 125 65 381 308 300 235 z "},"":{"ha":504,"x_min":0,"x_max":0,"o":"m 203 335 b 353 454 303 335 353 382 b 226 561 353 521 304 561 b 90 500 172 561 128 542 l 113 478 b 229 526 146 517 181 526 b 314 458 278 526 314 497 b 203 372 314 399 276 372 l 136 372 l 136 335 z m 40 78 b 232 -11 96 19 150 -11 b 449 179 351 -11 449 50 b 357 328 449 251 407 303 b 424 457 397 356 424 401 b 229 622 424 563 339 622 b 50 540 151 622 100 594 l 72 518 b 229 589 113 563 164 589 b 385 457 308 589 385 549 b 283 324 385 393 349 340 b 411 172 356 311 411 260 b 232 22 411 71 328 22 b 65 101 164 22 106 57 z m 85 122 b 235 50 124 75 175 50 b 379 172 314 50 379 85 b 201 308 379 253 321 308 l 136 308 l 136 271 l 201 271 b 339 172 299 271 339 239 b 232 85 339 106 308 85 b 107 144 182 85 143 100 z "},"":{"ha":524,"x_min":0,"x_max":0,"o":"m 356 215 l 356 571 l 100 215 z m 356 0 l 356 189 l 68 189 l 68 218 l 339 589 l 381 589 l 381 215 l 500 215 l 500 253 l 419 253 l 419 619 l 319 619 l 35 228 l 35 151 l 317 151 l 317 0 z m 419 0 l 419 151 l 500 151 l 500 189 l 381 189 l 381 0 z m 317 253 l 174 253 l 317 454 z "},"⁄":{"ha":178,"x_min":0,"x_max":0,"o":"m -146 0 l 371 936 l 324 936 l -193 0 z "},"½":{"ha":1010,"x_min":0,"x_max":0,"o":"m 236 328 l 236 947 l 25 876 l 36 839 l 197 894 l 197 328 z m 172 328 l 172 858 l 43 815 l 54 783 l 133 808 l 133 328 z m 181 0 l 697 936 l 650 936 l 133 0 z m 965 0 l 965 39 l 596 39 l 596 68 b 853 440 815 276 851 339 b 738 561 851 526 803 561 b 597 469 669 561 626 518 l 625 450 b 738 526 658 506 693 526 b 813 439 789 526 813 493 b 557 79 813 356 776 289 l 557 0 z m 965 65 l 965 104 l 714 104 b 922 436 818 208 922 292 b 738 622 922 563 838 622 b 547 504 654 622 596 583 l 575 483 b 738 589 615 546 658 589 b 885 436 817 589 885 540 b 629 65 885 308 804 235 z "},"¼":{"ha":958,"x_min":0,"x_max":0,"o":"m 236 328 l 236 947 l 25 876 l 36 839 l 197 894 l 197 328 z m 172 328 l 172 858 l 43 815 l 54 783 l 133 808 l 133 328 z m 181 0 l 697 936 l 650 936 l 133 0 z m 790 215 l 790 571 l 535 215 z m 790 0 l 790 189 l 503 189 l 503 218 l 774 589 l 815 589 l 815 215 l 935 215 l 935 253 l 854 253 l 854 619 l 754 619 l 469 228 l 469 151 l 751 151 l 751 0 z m 854 0 l 854 151 l 935 151 l 935 189 l 815 189 l 815 0 z m 751 253 l 608 253 l 751 454 z "},"¾":{"ha":1136,"x_min":0,"x_max":0,"o":"m 203 663 b 353 782 303 663 353 710 b 226 889 353 849 304 889 b 90 828 172 889 128 869 l 113 806 b 229 854 146 844 181 854 b 314 786 278 854 314 825 b 203 700 314 726 276 700 l 136 700 l 136 663 z m 40 406 b 232 317 96 347 150 317 b 449 507 351 317 449 378 b 357 656 449 579 407 631 b 424 785 397 683 424 729 b 229 950 424 890 339 950 b 50 868 151 950 100 922 l 72 846 b 229 917 113 890 164 917 b 385 785 308 917 385 876 b 283 651 385 721 349 668 b 411 500 356 639 411 588 b 232 350 411 399 328 350 b 65 429 164 350 106 385 z m 85 450 b 235 378 124 403 175 378 b 379 500 314 378 379 413 b 201 636 379 581 321 636 l 136 636 l 136 599 l 201 599 b 339 500 299 599 339 567 b 232 413 339 433 308 413 b 107 472 182 413 143 428 z m 358 0 l 875 936 l 828 936 l 311 0 z m 968 215 l 968 571 l 713 215 z m 968 0 l 968 189 l 681 189 l 681 218 l 951 589 l 993 589 l 993 215 l 1113 215 l 1113 253 l 1032 253 l 1032 619 l 932 619 l 647 228 l 647 151 l 929 151 l 929 0 z m 1032 0 l 1032 151 l 1113 151 l 1113 189 l 993 189 l 993 0 z m 929 253 l 786 253 l 929 454 z "},"%":{"ha":1225,"x_min":0,"x_max":0,"o":"m 410 632 b 261 888 410 796 364 888 b 114 632 163 888 114 796 b 261 378 114 474 161 378 b 410 632 358 378 410 474 z m 442 633 b 261 350 442 474 383 350 b 82 633 139 350 82 474 b 261 915 82 793 139 915 b 442 633 383 915 442 793 z m 481 633 b 261 949 481 824 404 949 b 43 633 118 949 43 824 b 261 317 43 443 118 317 b 481 633 404 317 481 443 z m 368 632 b 261 411 368 503 338 411 b 154 632 185 411 154 503 b 261 854 154 763 185 854 b 368 632 338 854 368 763 z m 378 0 l 894 936 l 847 936 l 331 0 z m 1111 304 b 963 560 1111 468 1065 560 b 815 304 864 560 815 468 b 963 50 815 146 863 50 b 1111 304 1060 50 1111 146 z m 1143 306 b 963 22 1143 146 1085 22 b 783 306 840 22 783 146 b 963 588 783 465 840 588 b 1143 306 1085 588 1143 465 z m 1182 306 b 963 621 1182 496 1106 621 b 744 306 819 621 744 496 b 963 -11 744 115 819 -11 b 1182 306 1106 -11 1182 115 z m 1069 304 b 963 83 1069 175 1039 83 b 856 304 886 83 856 175 b 963 526 856 435 886 526 b 1069 304 1039 526 1069 435 z "},"‰":{"ha":1749,"x_min":0,"x_max":0,"o":"m 410 632 b 261 888 410 796 364 888 b 114 632 163 888 114 796 b 261 378 114 474 161 378 b 410 632 358 378 410 474 z m 442 633 b 261 350 442 474 383 350 b 82 633 139 350 82 474 b 261 915 82 793 139 915 b 442 633 383 915 442 793 z m 481 633 b 261 949 481 824 404 949 b 43 633 118 949 43 824 b 261 317 43 443 118 317 b 481 633 404 317 481 443 z m 368 632 b 261 411 368 503 338 411 b 154 632 185 411 154 503 b 261 854 154 763 185 854 b 368 632 338 854 368 763 z m 378 0 l 894 936 l 847 936 l 331 0 z m 1111 304 b 963 560 1111 468 1065 560 b 815 304 864 560 815 468 b 963 50 815 146 863 50 b 1111 304 1060 50 1111 146 z m 1143 306 b 963 22 1143 146 1085 22 b 783 306 840 22 783 146 b 963 588 783 465 840 588 b 1143 306 1085 588 1143 465 z m 1182 306 b 963 621 1182 496 1106 621 b 744 306 819 621 744 496 b 963 -11 744 115 819 -11 b 1182 306 1106 -11 1182 115 z m 1069 304 b 963 83 1069 175 1039 83 b 856 304 886 83 856 175 b 963 526 856 435 886 526 b 1069 304 1039 526 1069 435 z m 1635 304 b 1486 560 1635 468 1589 560 b 1339 304 1388 560 1339 468 b 1486 50 1339 146 1386 50 b 1635 304 1583 50 1635 146 z m 1667 306 b 1486 22 1667 146 1608 22 b 1307 306 1364 22 1307 146 b 1486 588 1307 465 1364 588 b 1667 306 1608 588 1667 465 z m 1706 306 b 1486 621 1706 496 1629 621 b 1268 306 1343 621 1268 496 b 1486 -11 1268 115 1343 -11 b 1706 306 1629 -11 1706 115 z m 1593 304 b 1486 83 1593 175 1563 83 b 1379 304 1410 83 1379 175 b 1486 526 1379 435 1410 526 b 1593 304 1563 526 1593 435 z "},"+":{"ha":806,"x_min":0,"x_max":0,"o":"m 433 64 l 433 354 l 706 354 l 706 414 l 432 414 l 432 706 l 372 706 l 372 414 l 101 414 l 101 354 l 374 354 l 374 64 z "},"−":{"ha":806,"x_min":0,"x_max":0,"o":"m 706 356 l 706 414 l 100 414 l 100 356 z "},"±":{"ha":806,"x_min":0,"x_max":0,"o":"m 432 317 l 432 524 l 706 524 l 706 582 l 431 582 l 431 811 l 372 811 l 372 582 l 100 582 l 100 524 l 372 524 l 372 317 z m 706 164 l 706 222 l 100 222 l 100 164 z "},"×":{"ha":806,"x_min":0,"x_max":0,"o":"m 194 636 l 151 593 l 358 385 l 151 178 l 193 135 l 401 343 l 610 136 l 653 179 l 444 386 l 654 594 l 611 638 l 401 428 z "},"÷":{"ha":806,"x_min":0,"x_max":0,"o":"m 704 356 l 704 414 l 100 414 l 100 356 z m 461 114 b 404 171 461 146 435 171 b 349 114 372 171 349 144 b 404 58 349 82 372 58 b 461 114 435 58 461 82 z m 461 654 b 404 711 461 688 435 711 b 349 654 372 711 349 686 b 404 600 349 624 372 600 b 461 654 435 600 461 624 z "},"=":{"ha":806,"x_min":0,"x_max":0,"o":"m 704 186 l 704 246 l 100 246 l 100 186 z m 704 521 l 704 581 l 100 581 l 100 521 z "},"≠":{"ha":806,"x_min":0,"x_max":0,"o":"m 329 43 l 389 186 l 704 186 l 704 246 l 414 246 l 529 521 l 704 521 l 704 581 l 554 581 l 615 725 l 560 725 l 499 581 l 100 581 l 100 521 l 474 521 l 358 246 l 100 246 l 100 186 l 333 186 l 274 43 z "},"~":{"ha":806,"x_min":0,"x_max":0,"o":"m 700 388 l 700 454 b 544 369 657 404 615 369 b 258 457 449 369 358 457 b 104 379 189 457 138 418 l 104 313 b 258 394 144 361 197 394 b 546 308 354 394 446 308 b 700 388 617 308 656 339 z "},"≈":{"ha":806,"x_min":0,"x_max":0,"o":"m 546 454 b 700 533 617 454 656 485 l 700 601 b 544 517 657 551 615 517 b 258 603 449 517 358 603 b 104 526 189 603 138 564 l 104 458 b 258 542 144 507 197 542 b 546 454 354 542 446 454 z m 700 246 l 700 313 b 544 228 657 263 615 228 b 258 314 449 228 358 314 b 104 238 189 314 138 276 l 104 171 b 258 253 144 219 197 253 b 546 167 354 253 446 167 b 700 246 617 167 656 197 z "},"^":{"ha":806,"x_min":0,"x_max":0,"o":"m 669 263 l 433 851 l 375 851 l 135 263 l 204 263 l 403 771 l 404 771 l 600 263 z "},"<":{"ha":806,"x_min":0,"x_max":0,"o":"m 707 114 l 707 183 l 188 382 l 188 385 l 707 579 l 707 649 l 99 411 l 99 354 z "},">":{"ha":806,"x_min":0,"x_max":0,"o":"m 99 114 l 707 354 l 707 411 l 99 649 l 99 579 l 617 385 l 617 382 l 99 183 z "},"≤":{"ha":806,"x_min":0,"x_max":0,"o":"m 706 281 l 706 342 l 185 503 l 185 506 l 706 667 l 706 728 l 100 535 l 100 474 z m 706 115 l 706 174 l 101 174 l 101 115 z "},"≥":{"ha":806,"x_min":0,"x_max":0,"o":"m 706 474 l 706 535 l 100 728 l 100 667 l 621 506 l 621 503 l 100 342 l 100 281 z m 706 115 l 706 174 l 101 174 l 101 115 z "},"¬":{"ha":806,"x_min":0,"x_max":0,"o":"m 704 244 l 704 569 l 100 569 l 100 510 l 644 510 l 644 244 z "},"¤":{"ha":806,"x_min":0,"x_max":0,"o":"m 610 135 l 653 178 l 571 260 b 611 383 597 296 611 339 b 568 508 611 429 594 472 l 654 594 l 611 636 l 525 550 b 403 592 492 575 449 592 b 279 550 354 592 313 575 l 194 636 l 151 593 l 236 507 b 196 383 210 471 196 428 b 235 260 196 336 210 294 l 151 176 l 193 135 l 276 217 b 403 175 311 190 356 175 b 528 215 451 175 494 190 z m 403 225 b 247 383 319 225 247 293 b 403 542 247 461 308 542 b 558 383 488 542 558 471 b 403 225 558 303 494 225 z "},"∞":{"ha":907,"x_min":0,"x_max":0,"o":"m 783 383 b 608 565 783 489 713 565 b 426 424 515 565 467 503 b 244 565 388 501 333 565 b 72 383 142 565 72 488 b 246 192 72 261 147 192 b 429 340 336 192 394 253 b 613 192 468 247 529 192 b 783 383 697 192 783 254 z m 603 254 b 468 381 536 254 492 307 b 604 503 496 450 539 503 b 724 382 669 503 724 457 b 603 254 724 293 663 254 z m 250 254 b 131 382 186 254 131 301 b 250 504 131 454 185 504 b 388 382 315 504 358 451 b 250 254 364 307 321 254 z "},"◊":{"ha":806,"x_min":0,"x_max":0,"o":"m 725 383 l 403 721 l 79 383 l 403 44 z m 654 383 l 403 122 l 150 383 l 403 644 z "},"∆":{"ha":951,"x_min":0,"x_max":0,"o":"m 917 0 l 540 943 l 413 943 l 35 0 z m 839 49 l 113 49 l 450 893 l 504 893 z m 779 85 l 476 856 l 168 85 z m 704 132 l 243 132 l 475 732 z "},"Ω":{"ha":1014,"x_min":0,"x_max":0,"o":"m 976 0 l 976 50 l 618 50 l 618 85 b 872 508 793 263 872 351 b 507 869 872 713 722 869 b 142 508 292 869 142 713 b 396 85 142 351 221 263 l 396 50 l 38 50 l 38 0 l 446 0 l 446 107 b 193 508 269 286 193 367 b 507 819 193 683 322 819 b 821 508 692 819 821 683 b 568 107 821 367 744 286 l 568 0 z m 976 83 l 976 133 l 785 133 b 965 503 893 258 965 371 b 507 954 965 763 776 954 b 49 503 238 954 49 763 b 229 133 49 371 121 258 l 38 133 l 38 83 l 350 83 b 101 503 190 242 101 371 b 507 904 101 731 269 904 b 913 503 744 904 913 731 b 664 83 913 371 824 242 z "},"∂":{"ha":835,"x_min":0,"x_max":0,"o":"m 635 397 b 404 526 575 472 499 526 b 186 297 254 526 186 431 b 403 63 186 156 276 63 b 635 374 565 63 635 210 z m 131 789 b 363 904 203 872 282 904 b 672 422 644 904 672 592 b 406 32 672 213 607 32 b 147 308 250 32 147 140 b 388 560 147 454 242 560 b 635 443 500 560 572 513 b 371 874 635 694 553 874 b 154 767 278 874 213 833 l 192 731 b 371 824 247 796 300 824 b 581 544 510 824 567 699 b 386 606 528 581 464 606 b 97 308 213 606 97 486 b 406 -18 97 113 219 -18 b 724 422 644 -18 724 189 b 363 954 724 664 668 954 b 94 824 263 954 175 913 z m 583 368 b 403 113 583 229 529 113 b 238 297 297 113 238 179 b 406 479 238 403 289 479 b 583 385 488 479 543 440 z "},"∫":{"ha":682,"x_min":0,"x_max":0,"o":"m 414 685 b 540 824 414 767 447 824 b 632 807 576 824 606 818 l 650 854 b 540 874 619 867 583 874 b 363 685 408 874 363 792 l 363 -37 b 150 -257 363 -185 294 -257 b 31 -235 103 -257 65 -250 l 15 -286 b 150 -307 56 -301 100 -307 b 414 -37 315 -307 414 -204 z m 328 685 b 540 904 328 832 396 904 b 660 882 588 904 625 897 l 675 933 b 540 954 635 949 590 954 b 276 685 375 954 276 851 l 276 -37 b 150 -176 276 -119 243 -176 b 58 -160 114 -176 85 -171 l 40 -207 b 150 -226 71 -219 107 -226 b 328 -37 282 -226 328 -144 z "},"√":{"ha":885,"x_min":0,"x_max":0,"o":"m 483 0 l 803 992 l 738 992 l 450 74 l 446 74 l 225 804 l 51 804 l 51 747 l 176 747 l 408 0 z "},"∑":{"ha":868,"x_min":0,"x_max":0,"o":"m 517 288 l 188 -203 l 775 -203 l 775 -153 l 283 -153 l 578 288 l 311 800 l 747 800 l 747 850 l 215 850 z m 472 288 b 174 847 374 440 274 694 l 174 886 l 747 886 l 747 936 l 122 936 l 122 831 l 408 288 l 94 -183 l 94 -289 l 775 -289 l 775 -239 l 146 -239 l 146 -200 b 472 288 246 -47 374 135 z "},"∏":{"ha":1082,"x_min":0,"x_max":0,"o":"m 849 -287 l 849 850 l 235 850 l 235 -287 l 286 -287 l 286 800 l 797 800 l 797 -287 z m 938 -287 l 938 936 l 146 936 l 146 -287 l 197 -287 l 197 888 l 886 888 l 886 -287 z "},"π":{"ha":867,"x_min":0,"x_max":0,"o":"m 607 0 l 606 588 l 260 588 l 260 0 l 307 0 l 307 538 l 560 538 l 560 0 z m 40 588 l 40 538 l 179 538 l 179 0 l 226 0 l 226 588 z m 639 588 l 640 0 l 688 0 l 688 538 l 826 538 l 826 588 z m 826 621 l 826 671 l 40 671 l 40 621 z "},"µ":{"ha":760,"x_min":0,"x_max":0,"o":"m 128 -289 l 128 671 l 81 671 l 81 -289 z m 681 671 l 633 671 l 633 281 b 381 32 633 63 474 32 b 160 138 290 32 200 60 l 160 -289 l 207 -289 l 207 26 b 381 -18 244 1 311 -18 b 681 281 529 -18 681 47 z m 381 65 b 601 281 515 65 601 140 l 601 671 l 554 671 l 554 281 b 381 113 554 161 483 113 b 207 281 278 113 207 164 l 207 671 l 160 671 l 160 281 b 381 65 160 140 246 65 z "},"°":{"ha":508,"x_min":0,"x_max":0,"o":"m 254 571 b 446 760 382 571 446 668 b 254 954 446 867 378 954 b 63 765 125 954 63 856 b 254 571 63 657 132 571 z m 254 624 b 115 764 174 624 115 676 b 254 901 115 835 165 901 b 392 758 338 901 392 844 b 254 624 392 686 339 624 z "},"ℓ":{"ha":694,"x_min":0,"x_max":0,"o":"m 397 -18 b 658 139 521 -18 611 68 l 621 178 b 404 39 583 119 503 39 b 185 269 279 39 214 125 b 590 713 489 385 590 544 b 388 954 590 843 514 954 b 100 478 207 954 100 781 b 111 301 100 414 103 354 b -28 261 69 288 22 274 l -10 208 b 122 246 38 219 81 232 b 397 -18 161 76 250 -18 z m 168 479 b 385 896 168 735 246 896 b 528 711 474 896 528 808 b 176 326 528 574 443 433 b 168 479 171 372 168 424 z "},"℮":{"ha":1258,"x_min":0,"x_max":0,"o":"m 628 -18 b 1085 226 842 -18 1001 88 l 1008 228 b 629 36 929 111 799 36 b 239 233 478 36 322 100 l 239 431 l 1154 431 b 628 956 1160 769 917 956 b 104 468 338 956 104 754 b 628 -18 104 176 339 -18 z m 631 903 b 1022 708 785 903 936 840 l 1022 490 l 239 492 l 239 700 b 631 903 319 831 468 903 z "},"&":{"ha":1119,"x_min":0,"x_max":0,"o":"m 561 522 l 561 572 l 474 572 b 283 701 360 572 283 610 b 450 824 283 776 340 824 b 644 736 536 824 592 797 l 679 772 b 450 874 625 838 556 874 b 233 701 313 874 233 806 b 474 522 233 585 321 522 z m 1093 490 l 1076 538 l 861 446 b 886 328 876 408 886 367 b 493 32 886 113 693 32 b 156 279 269 32 156 132 b 358 508 156 410 243 483 b 194 703 258 533 194 606 b 450 904 194 831 297 904 b 701 794 560 904 638 868 l 736 829 b 450 954 661 911 575 954 b 144 703 265 954 144 864 b 257 515 144 615 185 556 b 104 279 165 475 104 401 b 493 -18 104 100 233 -18 b 939 331 740 -18 939 89 b 926 419 939 358 933 396 z m 1064 567 l 1047 614 l 583 415 l 600 368 z m 794 361 b 799 317 797 347 799 332 b 500 113 799 213 715 113 b 244 279 349 113 244 164 b 476 439 244 393 324 439 l 561 439 l 561 489 l 476 489 b 193 279 293 489 193 415 b 500 63 193 132 321 63 b 850 324 665 63 850 135 b 828 431 850 360 842 397 l 613 339 l 629 292 z "},"ﬁ":{"ha":1281,"x_min":0,"x_max":0,"o":"m 714 464 l 714 513 l 288 513 l 288 800 l 756 800 l 756 850 l 236 850 l 236 464 z m 714 381 l 714 429 l 236 429 l 236 0 l 288 0 l 288 381 z m 197 0 l 197 886 l 756 886 l 756 936 l 146 936 l 146 0 z m 1135 0 l 1135 936 l 1083 936 l 1083 0 z m 1046 0 l 1046 936 l 994 936 l 994 0 z "},"ﬂ":{"ha":1690,"x_min":0,"x_max":0,"o":"m 714 464 l 714 513 l 288 513 l 288 800 l 756 800 l 756 850 l 236 850 l 236 464 z m 714 381 l 714 429 l 236 429 l 236 0 l 288 0 l 288 381 z m 197 0 l 197 886 l 756 886 l 756 936 l 146 936 l 146 0 z m 1614 86 l 1614 136 l 1136 136 l 1136 936 l 1085 936 l 1085 86 z m 1614 0 l 1614 50 l 1046 50 l 1046 936 l 994 936 l 994 0 z "},"":{"ha":1026,"x_min":0,"x_max":0,"o":"m 790 415 l 790 608 b 514 869 790 763 693 869 b 236 610 329 869 236 768 l 236 415 z m 739 464 l 288 464 l 288 610 b 515 819 288 736 365 819 b 739 608 661 819 739 732 z m 881 0 l 881 617 b 514 954 881 828 742 954 b 146 617 279 954 146 829 l 146 0 l 197 0 l 197 617 b 514 904 197 794 310 904 b 829 617 711 904 829 793 l 829 0 z m 790 0 l 790 381 l 236 381 l 236 0 l 288 0 l 288 332 l 739 332 l 739 0 z "},"":{"ha":964,"x_min":0,"x_max":0,"o":"m 844 449 b 490 32 844 160 718 32 b 115 467 254 32 115 206 b 496 904 115 690 236 904 b 808 758 640 904 717 864 l 846 792 b 496 954 769 892 658 954 b 63 467 200 954 63 715 b 490 -18 63 175 221 -18 b 896 497 768 -18 896 142 l 469 497 l 469 449 z m 750 365 b 500 115 744 210 660 115 b 211 468 310 115 211 253 b 499 819 211 643 300 819 b 739 697 603 819 682 776 l 779 733 b 499 869 700 835 614 869 b 158 468 264 869 158 668 b 500 65 158 221 275 65 b 801 414 688 65 801 178 l 469 414 l 469 365 z "},"":{"ha":1042,"x_min":0,"x_max":0,"o":"m 522 67 b 883 468 778 67 883 269 b 519 869 883 665 775 869 b 158 468 264 869 158 667 b 522 67 158 271 267 67 z m 522 117 b 211 468 306 117 211 297 b 519 819 211 642 304 819 b 831 468 736 819 831 639 b 522 117 831 294 738 117 z m 522 32 b 115 469 249 32 115 240 b 519 904 115 696 247 904 b 926 467 793 904 926 696 b 522 32 926 240 794 32 z m 522 -18 b 979 467 831 -18 979 214 b 519 954 979 722 826 954 b 63 469 211 954 63 722 b 522 -18 63 214 214 -18 z m 475 -125 b 306 -250 375 -125 336 -183 l 353 -271 b 478 -171 378 -217 399 -171 b 908 -336 611 -171 724 -336 b 1150 -172 1024 -336 1099 -268 l 1103 -150 b 904 -290 1061 -232 1008 -290 b 475 -125 736 -290 628 -125 z m 901 -260 b 1071 -135 1001 -260 1040 -201 l 1024 -114 b 899 -214 999 -168 978 -214 b 468 -49 765 -214 651 -49 b 226 -212 353 -49 278 -117 l 274 -235 b 472 -94 315 -153 368 -94 b 901 -260 640 -94 751 -260 z "},"":{"ha":956,"x_min":0,"x_max":0,"o":"m 490 454 b 707 657 614 454 707 515 b 499 853 707 781 615 853 l 236 853 l 236 454 z m 288 503 l 288 803 l 499 803 b 656 657 588 803 656 750 b 490 503 656 553 586 503 z m 917 68 b 801 31 883 47 844 31 b 626 214 718 31 679 108 b 375 422 540 389 489 422 l 236 422 l 236 0 l 288 0 l 288 374 l 375 374 b 579 190 465 374 504 342 b 800 -18 639 68 683 -18 b 936 26 849 -18 901 3 z m 888 143 b 817 117 864 126 840 117 b 711 251 785 117 764 147 b 617 394 675 322 646 364 b 799 658 718 428 799 513 b 503 936 799 836 665 936 l 146 936 l 146 0 l 197 0 l 197 888 l 503 888 b 747 658 638 888 747 801 b 514 422 747 494 624 431 b 665 226 563 394 618 322 b 808 68 728 101 751 68 b 904 101 842 68 879 83 z "},"":{"ha":890,"x_min":0,"x_max":0,"o":"m 514 0 l 514 250 b 810 821 514 536 644 821 b 853 815 824 821 839 818 l 861 864 b 808 869 842 868 825 869 b 463 250 593 869 463 494 l 463 0 z m 875 949 b 817 954 856 953 836 954 b 446 569 626 954 499 783 b 67 954 394 783 267 954 b 8 949 47 954 28 953 l 17 899 b 69 903 36 901 54 903 b 444 413 306 903 418 604 b 814 903 479 607 582 903 b 867 899 829 903 847 901 z m 425 0 l 425 250 b 75 868 425 517 288 868 b 22 863 58 868 42 867 l 31 811 b 74 817 44 814 60 817 b 374 250 232 817 374 529 l 374 0 z "},"":{"ha":1026,"x_min":0,"x_max":0,"o":"m 790 415 l 790 608 b 514 869 790 763 693 869 b 236 610 329 869 236 768 l 236 415 z m 739 464 l 288 464 l 288 610 b 515 819 288 736 365 819 b 739 608 661 819 739 732 z m 881 0 l 881 617 b 581 950 881 806 768 928 l 500 1057 l 397 1057 l 478 953 b 146 617 265 942 146 818 l 146 0 l 197 0 l 197 617 b 514 904 197 794 310 904 b 829 617 711 904 829 793 l 829 0 z m 790 0 l 790 381 l 236 381 l 236 0 l 288 0 l 288 332 l 739 332 l 739 0 z "},"":{"ha":1026,"x_min":0,"x_max":0,"o":"m 790 415 l 790 608 b 514 869 790 763 693 869 b 236 610 329 869 236 768 l 236 415 z m 739 464 l 288 464 l 288 610 b 515 819 288 736 365 819 b 739 608 661 819 739 732 z m 881 0 l 881 617 b 544 953 881 818 754 942 l 625 1057 l 522 1057 l 440 950 b 146 617 251 926 146 806 l 146 0 l 197 0 l 197 617 b 514 904 197 794 310 904 b 829 617 711 904 829 793 l 829 0 z m 790 0 l 790 381 l 236 381 l 236 0 l 288 0 l 288 332 l 739 332 l 739 0 z "},"":{"ha":1026,"x_min":0,"x_max":0,"o":"m 790 415 l 790 608 b 514 869 790 763 693 869 b 236 610 329 869 236 768 l 236 415 z m 739 464 l 288 464 l 288 610 b 515 819 288 736 365 819 b 739 608 661 819 739 732 z m 663 936 l 557 1057 l 468 1057 l 363 936 l 374 936 b 146 617 226 894 146 782 l 146 0 l 197 0 l 197 617 b 514 904 197 794 310 904 b 829 617 711 904 829 793 l 829 0 l 881 0 l 881 617 b 651 936 881 781 796 894 z m 790 0 l 790 381 l 236 381 l 236 0 l 288 0 l 288 332 l 739 332 l 739 0 z m 514 954 b 475 953 500 954 488 954 l 513 1000 l 549 953 b 514 954 538 954 525 954 z "},"":{"ha":1026,"x_min":0,"x_max":0,"o":"m 790 415 l 790 608 b 514 869 790 763 693 869 b 236 610 329 869 236 768 l 236 415 z m 607 996 l 514 1040 b 433 1063 485 1054 461 1063 b 336 936 361 1063 342 997 l 374 936 b 146 617 226 894 146 782 l 146 0 l 197 0 l 197 617 b 514 904 197 794 310 904 b 829 617 711 904 829 793 l 829 0 l 881 0 l 881 617 b 636 940 881 786 790 901 b 690 1057 674 961 686 1010 l 615 1057 z m 739 464 l 288 464 l 288 610 b 515 819 288 736 365 819 b 739 608 661 819 739 732 z m 790 0 l 790 381 l 236 381 l 236 0 l 288 0 l 288 332 l 739 332 l 739 0 z m 413 944 l 419 997 l 510 954 b 413 944 475 954 442 950 z "},"":{"ha":1026,"x_min":0,"x_max":0,"o":"m 790 415 l 790 608 b 514 869 790 763 693 869 b 236 610 329 869 236 768 l 236 415 z m 739 464 l 288 464 l 288 610 b 515 819 288 736 365 819 b 739 608 661 819 739 732 z m 653 936 l 653 1043 l 553 1043 l 553 953 b 514 954 540 953 526 954 b 472 953 500 954 485 953 l 472 1043 l 372 1043 l 372 936 l 374 936 b 146 617 226 894 146 782 l 146 0 l 197 0 l 197 617 b 514 904 197 794 310 904 b 829 617 711 904 829 793 l 829 0 l 881 0 l 881 617 b 651 936 881 781 796 894 z m 790 0 l 790 381 l 236 381 l 236 0 l 288 0 l 288 332 l 739 332 l 739 0 z "},"":{"ha":1026,"x_min":0,"x_max":0,"o":"m 790 415 l 790 608 b 514 869 790 763 693 869 b 236 610 329 869 236 768 l 236 415 z m 739 464 l 288 464 l 288 610 b 515 819 288 736 365 819 b 739 608 661 819 739 732 z m 681 936 l 681 1013 l 344 1013 l 344 936 l 374 936 b 146 617 226 894 146 782 l 146 0 l 197 0 l 197 617 b 514 904 197 794 310 904 b 829 617 711 904 829 793 l 829 0 l 881 0 l 881 617 b 651 936 881 781 796 894 z m 790 0 l 790 381 l 236 381 l 236 0 l 288 0 l 288 332 l 739 332 l 739 0 z "},"":{"ha":1026,"x_min":0,"x_max":0,"o":"m 790 415 l 790 608 b 514 869 790 763 693 869 b 236 610 329 869 236 768 l 236 415 z m 739 464 l 288 464 l 288 610 b 515 819 288 736 365 819 b 739 608 661 819 739 732 z m 617 1057 b 513 996 613 1014 575 996 b 408 1057 449 996 413 1014 l 339 1057 b 417 946 342 1000 369 964 b 146 617 243 915 146 797 l 146 0 l 197 0 l 197 617 b 514 904 197 794 310 904 b 829 617 711 904 829 793 l 829 0 l 881 0 l 881 617 b 608 946 881 796 779 914 b 686 1057 656 964 683 1001 z m 790 0 l 790 381 l 236 381 l 236 0 l 288 0 l 288 332 l 739 332 l 739 0 z "},"":{"ha":1026,"x_min":0,"x_max":0,"o":"m 790 415 l 790 608 b 514 869 790 763 693 869 b 236 610 329 869 236 768 l 236 415 z m 626 1025 b 513 1118 626 1085 583 1118 b 399 1025 442 1118 399 1086 b 438 949 399 990 413 964 b 146 617 250 924 146 804 l 146 0 l 197 0 l 197 617 b 514 904 197 794 310 904 b 829 617 711 904 829 793 l 829 0 l 881 0 l 881 617 b 588 949 881 804 771 924 b 626 1025 613 964 626 990 z m 739 464 l 288 464 l 288 610 b 515 819 288 736 365 819 b 739 608 661 819 739 732 z m 790 0 l 790 381 l 236 381 l 236 0 l 288 0 l 288 332 l 739 332 l 739 0 z m 563 1025 b 513 985 563 1000 547 985 b 464 1025 479 985 464 1003 b 513 1067 464 1049 479 1067 b 563 1025 547 1067 563 1049 z "},"":{"ha":1026,"x_min":0,"x_max":0,"o":"m 790 415 l 790 608 b 514 869 790 763 693 869 b 236 610 329 869 236 768 l 236 415 z m 626 1025 b 565 1110 626 1068 604 1097 l 654 1224 l 551 1224 l 467 1113 b 399 1025 424 1101 399 1071 b 438 949 399 990 413 964 b 146 617 250 924 146 804 l 146 0 l 197 0 l 197 617 b 514 904 197 794 310 904 b 829 617 711 904 829 793 l 829 0 l 881 0 l 881 617 b 588 949 881 804 771 924 b 626 1025 613 964 626 990 z m 739 464 l 288 464 l 288 610 b 515 819 288 736 365 819 b 739 608 661 819 739 732 z m 790 0 l 790 381 l 236 381 l 236 0 l 288 0 l 288 332 l 739 332 l 739 0 z m 563 1025 b 513 985 563 1000 547 985 b 464 1025 479 985 464 1003 b 513 1067 464 1049 479 1067 b 563 1025 547 1067 563 1049 z "},"":{"ha":1026,"x_min":0,"x_max":0,"o":"m 790 415 l 790 608 b 514 869 790 763 693 869 b 236 610 329 869 236 768 l 236 415 z m 790 0 l 790 381 l 236 381 l 236 0 l 288 0 l 288 332 l 739 332 l 739 0 l 757 0 b 736 -54 744 -15 736 -35 b 829 -131 736 -100 767 -131 b 882 -125 850 -131 864 -129 l 875 -67 l 807 -61 l 838 0 l 881 0 l 881 617 b 514 954 881 828 742 954 b 146 617 279 954 146 829 l 146 0 l 197 0 l 197 617 b 514 904 197 794 310 904 b 829 617 711 904 829 793 l 829 0 z m 739 464 l 288 464 l 288 610 b 515 819 288 736 365 819 b 739 608 661 819 739 732 z "},"":{"ha":964,"x_min":0,"x_max":0,"o":"m 650 936 l 544 1057 l 456 1057 l 350 936 l 364 936 b 63 467 158 876 63 675 b 490 -18 63 175 221 -18 b 896 497 768 -18 896 142 l 469 497 l 469 449 l 844 449 b 490 32 844 160 718 32 b 115 467 254 32 115 206 b 496 904 115 690 236 904 b 808 758 640 904 717 864 l 846 792 b 636 936 793 860 725 910 z m 750 365 b 500 115 744 210 660 115 b 211 468 310 115 211 253 b 499 819 211 643 300 819 b 739 697 603 819 682 776 l 779 733 b 499 869 700 835 614 869 b 158 468 264 869 158 668 b 500 65 158 221 275 65 b 801 414 688 65 801 178 l 469 414 l 469 365 z m 496 954 b 463 953 485 954 474 953 l 500 1000 l 538 953 b 496 954 524 953 510 954 z "},"":{"ha":964,"x_min":0,"x_max":0,"o":"m 604 1057 b 500 996 600 1014 563 996 b 396 1057 436 996 400 1014 l 326 1057 b 404 946 329 1000 357 964 b 63 467 171 901 63 688 b 490 -18 63 175 221 -18 b 896 497 768 -18 896 142 l 469 497 l 469 449 l 844 449 b 490 32 844 160 718 32 b 115 467 254 32 115 206 b 496 904 115 690 236 904 b 808 758 640 904 717 864 l 846 792 b 594 946 786 869 706 925 b 674 1057 642 964 671 1000 z m 750 365 b 500 115 744 210 660 115 b 211 468 310 115 211 253 b 499 819 211 643 300 819 b 739 697 603 819 682 776 l 779 733 b 499 869 700 835 614 869 b 158 468 264 869 158 668 b 500 65 158 221 275 65 b 801 414 688 65 801 178 l 469 414 l 469 365 z "},"":{"ha":964,"x_min":0,"x_max":0,"o":"m 844 449 b 490 32 844 160 718 32 b 115 467 254 32 115 206 b 496 904 115 690 236 904 b 808 758 640 904 717 864 l 846 792 b 546 951 778 881 681 940 l 546 1043 l 446 1043 l 446 951 b 63 467 185 925 63 700 b 490 -18 63 175 221 -18 b 896 497 768 -18 896 142 l 469 497 l 469 449 z m 750 365 b 500 115 744 210 660 115 b 211 468 310 115 211 253 b 499 819 211 643 300 819 b 739 697 603 819 682 776 l 779 733 b 499 869 700 835 614 869 b 158 468 264 869 158 668 b 500 65 158 221 275 65 b 801 414 688 65 801 178 l 469 414 l 469 365 z "},"":{"ha":964,"x_min":0,"x_max":0,"o":"m 844 449 b 490 32 844 160 718 32 b 115 467 254 32 115 206 b 496 904 115 690 236 904 b 808 758 640 904 717 864 l 846 792 b 496 954 769 892 658 954 b 63 467 200 954 63 715 b 490 -18 63 175 221 -18 b 896 497 768 -18 896 142 l 469 497 l 469 449 z m 750 365 b 500 115 744 210 660 115 b 211 468 310 115 211 253 b 499 819 211 643 300 819 b 739 697 603 819 682 776 l 779 733 b 499 869 700 835 614 869 b 158 468 264 869 158 668 b 500 65 158 221 275 65 b 801 414 688 65 801 178 l 469 414 l 469 365 z m 486 -121 l 546 -43 l 444 -43 l 383 -121 z "},"":{"ha":956,"x_min":0,"x_max":0,"o":"m 490 454 b 707 657 614 454 707 515 b 499 853 707 781 615 853 l 236 853 l 236 454 z m 888 143 b 817 117 864 126 840 117 b 711 251 785 117 764 147 b 617 394 675 322 646 364 b 799 658 718 428 799 513 b 503 936 799 836 665 936 l 475 936 l 569 1057 l 467 1057 l 375 936 l 146 936 l 146 0 l 197 0 l 197 888 l 503 888 b 747 658 638 888 747 801 b 514 422 747 494 624 431 b 665 226 563 394 618 322 b 808 68 728 101 751 68 b 904 101 842 68 879 83 z m 288 503 l 288 803 l 499 803 b 656 657 588 803 656 750 b 490 503 656 553 586 503 z m 917 68 b 801 31 883 47 844 31 b 626 214 718 31 679 108 b 375 422 540 389 489 422 l 236 422 l 236 0 l 288 0 l 288 374 l 375 374 b 579 190 465 374 504 342 b 800 -18 639 68 683 -18 b 936 26 849 -18 901 3 z "},"":{"ha":956,"x_min":0,"x_max":0,"o":"m 490 454 b 707 657 614 454 707 515 b 499 853 707 781 615 853 l 236 853 l 236 454 z m 464 936 l 569 1057 l 469 1057 l 419 993 l 369 1057 l 269 1057 l 375 936 l 146 936 l 146 0 l 197 0 l 197 888 l 503 888 b 747 658 638 888 747 801 b 514 422 747 494 624 431 b 665 226 563 394 618 322 b 808 68 728 101 751 68 b 904 101 842 68 879 83 l 888 143 b 817 117 864 126 840 117 b 711 251 785 117 764 147 b 617 394 675 322 646 364 b 799 658 718 428 799 513 b 503 936 799 836 665 936 z m 288 503 l 288 803 l 499 803 b 656 657 588 803 656 750 b 490 503 656 553 586 503 z m 917 68 b 801 31 883 47 844 31 b 626 214 718 31 679 108 b 375 422 540 389 489 422 l 236 422 l 236 0 l 288 0 l 288 374 l 375 374 b 579 190 465 374 504 342 b 800 -18 639 68 683 -18 b 936 26 849 -18 901 3 z "},"":{"ha":956,"x_min":0,"x_max":0,"o":"m 490 454 b 707 657 614 454 707 515 b 499 853 707 781 615 853 l 236 853 l 236 454 z m 288 503 l 288 803 l 499 803 b 656 657 588 803 656 750 b 490 503 656 553 586 503 z m 917 68 b 801 31 883 47 844 31 b 626 214 718 31 679 108 b 375 422 540 389 489 422 l 236 422 l 236 0 l 288 0 l 288 374 l 375 374 b 579 190 465 374 504 342 b 800 -18 639 68 683 -18 b 936 26 849 -18 901 3 z m 888 143 b 817 117 864 126 840 117 b 711 251 785 117 764 147 b 617 394 675 322 646 364 b 799 658 718 428 799 513 b 503 936 799 836 665 936 l 146 936 l 146 0 l 197 0 l 197 888 l 503 888 b 747 658 638 888 747 801 b 514 422 747 494 624 431 b 665 226 563 394 618 322 b 808 68 728 101 751 68 b 904 101 842 68 879 83 z m 460 -121 l 519 -43 l 418 -43 l 357 -121 z "},"":{"ha":890,"x_min":0,"x_max":0,"o":"m 514 0 l 514 250 b 810 821 514 536 644 821 b 853 815 824 821 839 818 l 861 864 b 808 869 842 868 825 869 b 463 250 593 869 463 494 l 463 0 z m 875 949 b 817 954 856 953 836 954 b 446 569 626 954 499 783 b 67 954 394 783 267 954 b 8 949 47 954 28 953 l 17 899 b 69 903 36 901 54 903 b 444 413 306 903 418 604 b 814 903 479 607 582 903 b 867 899 829 903 847 901 z m 425 0 l 425 250 b 75 868 425 517 288 868 b 22 863 58 868 42 867 l 31 811 b 74 817 44 814 60 817 b 374 250 232 817 374 529 l 374 0 z m 542 936 l 450 1057 l 347 1057 l 442 936 z "},"":{"ha":890,"x_min":0,"x_max":0,"o":"m 514 0 l 514 250 b 810 821 514 536 644 821 b 853 815 824 821 839 818 l 861 864 b 808 869 842 868 825 869 b 463 250 593 869 463 494 l 463 0 z m 875 949 b 817 954 856 953 836 954 b 446 569 626 954 499 783 b 67 954 394 783 267 954 b 8 949 47 954 28 953 l 17 899 b 69 903 36 901 54 903 b 444 413 306 903 418 604 b 814 903 479 607 582 903 b 867 899 829 903 847 901 z m 425 0 l 425 250 b 75 868 425 517 288 868 b 22 863 58 868 42 867 l 31 811 b 74 817 44 814 60 817 b 374 250 232 817 374 529 l 374 0 z m 447 936 l 542 1057 l 439 1057 l 347 936 z "},"":{"ha":890,"x_min":0,"x_max":0,"o":"m 514 0 l 514 250 b 810 821 514 536 644 821 b 853 815 824 821 839 818 l 861 864 b 808 869 842 868 825 869 b 463 250 593 869 463 494 l 463 0 z m 875 949 b 817 954 856 953 836 954 b 446 569 626 954 499 783 b 67 954 394 783 267 954 b 8 949 47 954 28 953 l 17 899 b 69 903 36 901 54 903 b 444 413 306 903 418 604 b 814 903 479 607 582 903 b 867 899 829 903 847 901 z m 425 0 l 425 250 b 75 868 425 517 288 868 b 22 863 58 868 42 867 l 31 811 b 74 817 44 814 60 817 b 374 250 232 817 374 529 l 374 0 z m 594 936 l 489 1057 l 400 1057 l 294 936 l 394 936 l 444 1000 l 494 936 z "},"":{"ha":890,"x_min":0,"x_max":0,"o":"m 514 0 l 514 250 b 810 821 514 536 644 821 b 853 815 824 821 839 818 l 861 864 b 808 869 842 868 825 869 b 463 250 593 869 463 494 l 463 0 z m 875 949 b 817 954 856 953 836 954 b 446 569 626 954 499 783 b 67 954 394 783 267 954 b 8 949 47 954 28 953 l 17 899 b 69 903 36 901 54 903 b 444 413 306 903 418 604 b 814 903 479 607 582 903 b 867 899 829 903 847 901 z m 425 0 l 425 250 b 75 868 425 517 288 868 b 22 863 58 868 42 867 l 31 811 b 74 817 44 814 60 817 b 374 250 232 817 374 529 l 374 0 z m 404 936 l 404 1043 l 304 1043 l 304 936 z m 585 936 l 585 1043 l 485 1043 l 485 936 z "},"":{"ha":694,"x_min":0,"x_max":0,"o":"m 151 883 l 322 715 l 322 640 l 208 715 l 208 625 l 489 346 l 489 451 l 543 397 l 543 50 l 489 107 l 489 192 l 208 471 l 208 368 l 322 218 l 322 133 l 151 301 z m 583 0 l 583 938 l 114 938 l 114 0 z "},"":{"ha":694,"x_min":0,"x_max":0,"o":"m 151 883 l 322 715 l 322 640 l 208 715 l 208 625 l 489 346 l 489 451 l 543 397 l 543 50 l 489 107 l 489 192 l 208 471 l 208 368 l 322 218 l 322 133 l 151 301 z m 583 0 l 583 938 l 114 938 l 114 0 z "},"":{"ha":694,"x_min":0,"x_max":0,"o":"m 151 883 l 322 715 l 322 640 l 208 715 l 208 625 l 489 346 l 489 451 l 543 397 l 543 50 l 489 107 l 489 192 l 208 471 l 208 368 l 322 218 l 322 133 l 151 301 z m 583 0 l 583 938 l 114 938 l 114 0 z "},"":{"ha":694,"x_min":0,"x_max":0,"o":"m 151 883 l 322 715 l 322 640 l 208 715 l 208 625 l 489 346 l 489 451 l 543 397 l 543 50 l 489 107 l 489 192 l 208 471 l 208 368 l 322 218 l 322 133 l 151 301 z m 583 0 l 583 938 l 114 938 l 114 0 z "},"":{"ha":694,"x_min":0,"x_max":0,"o":"m 151 883 l 322 715 l 322 640 l 208 715 l 208 625 l 489 346 l 489 451 l 543 397 l 543 50 l 489 107 l 489 192 l 208 471 l 208 368 l 322 218 l 322 133 l 151 301 z m 583 0 l 583 938 l 114 938 l 114 0 z "},"":{"ha":694,"x_min":0,"x_max":0,"o":"m 151 883 l 322 715 l 322 640 l 208 715 l 208 625 l 489 346 l 489 451 l 543 397 l 543 50 l 489 107 l 489 192 l 208 471 l 208 368 l 322 218 l 322 133 l 151 301 z m 583 0 l 583 938 l 114 938 l 114 0 z "},"":{"ha":694,"x_min":0,"x_max":0,"o":"m 151 883 l 322 715 l 322 640 l 208 715 l 208 625 l 489 346 l 489 451 l 543 397 l 543 50 l 489 107 l 489 192 l 208 471 l 208 368 l 322 218 l 322 133 l 151 301 z m 583 0 l 583 938 l 114 938 l 114 0 z "},"":{"ha":694,"x_min":0,"x_max":0,"o":"m 151 883 l 322 715 l 322 640 l 208 715 l 208 625 l 489 346 l 489 451 l 543 397 l 543 50 l 489 107 l 489 192 l 208 471 l 208 368 l 322 218 l 322 133 l 151 301 z m 583 0 l 583 938 l 114 938 l 114 0 z "},"":{"ha":694,"x_min":0,"x_max":0,"o":"m 151 883 l 322 715 l 322 640 l 208 715 l 208 625 l 489 346 l 489 451 l 543 397 l 543 50 l 489 107 l 489 192 l 208 471 l 208 368 l 322 218 l 322 133 l 151 301 z m 583 0 l 583 938 l 114 938 l 114 0 z "},"":{"ha":694,"x_min":0,"x_max":0,"o":"m 151 883 l 322 715 l 322 640 l 208 715 l 208 625 l 489 346 l 489 451 l 543 397 l 543 50 l 489 107 l 489 192 l 208 471 l 208 368 l 322 218 l 322 133 l 151 301 z m 583 0 l 583 938 l 114 938 l 114 0 z "},"":{"ha":694,"x_min":0,"x_max":0,"o":"m 151 883 l 322 715 l 322 640 l 208 715 l 208 625 l 489 346 l 489 451 l 543 397 l 543 50 l 489 107 l 489 192 l 208 471 l 208 368 l 322 218 l 322 133 l 151 301 z m 583 0 l 583 938 l 114 938 l 114 0 z "},"":{"ha":694,"x_min":0,"x_max":0,"o":"m 151 883 l 322 715 l 322 640 l 208 715 l 208 625 l 489 346 l 489 451 l 543 397 l 543 50 l 489 107 l 489 192 l 208 471 l 208 368 l 322 218 l 322 133 l 151 301 z m 583 0 l 583 938 l 114 938 l 114 0 z "},"":{"ha":947,"x_min":0,"x_max":0,"o":"m 469 -121 l 549 -15 b 846 143 675 -4 769 51 l 808 176 b 499 32 717 71 622 32 b 115 467 239 32 115 246 b 496 904 115 690 236 904 b 808 758 640 904 717 864 l 846 792 b 496 954 769 892 658 954 b 63 467 200 954 63 715 b 449 -15 63 233 185 8 l 367 -121 z m 739 239 b 499 117 668 147 597 117 b 211 468 300 117 211 293 b 499 819 211 643 300 819 b 739 697 603 819 682 776 l 779 733 b 499 869 700 835 614 869 b 158 468 264 869 158 668 b 501 67 158 267 269 67 b 779 201 611 67 693 97 z "},"":{"ha":947,"x_min":0,"x_max":0,"o":"m 469 -121 l 549 -15 b 846 143 675 -4 769 51 l 808 176 b 499 32 717 71 622 32 b 115 467 239 32 115 246 b 496 904 115 690 236 904 b 808 758 640 904 717 864 l 846 792 b 496 954 769 892 658 954 b 63 467 200 954 63 715 b 449 -15 63 233 185 8 l 367 -121 z m 739 239 b 499 117 668 147 597 117 b 211 468 300 117 211 293 b 499 819 211 643 300 819 b 739 697 603 819 682 776 l 779 733 b 499 869 700 835 614 869 b 158 468 264 869 158 668 b 501 67 158 267 269 67 b 779 201 611 67 693 97 z "}}}
